SplineFontDB: 3.0
FontName: Cutive-Regular
FullName: Cutive Regular
FamilyName: Cutive
Weight: Normal
Copyright: Copyright (c) 2012, vernon adams (vern@newtypography.co.uk), with Reserved Font Names "Cutive"
Version: 1.002
ItalicAngle: 0
UnderlinePosition: 0
UnderlineWidth: 0
Ascent: 1638
Descent: 410
UFOAscent: 2363
UFODescent: -804
LayerCount: 2
Layer: 0 0 "Back"  1
Layer: 1 0 "Fore"  0
FSType: 1
OS2Version: 0
OS2_WeightWidthSlopeOnly: 0
OS2_UseTypoMetrics: 0
CreationTime: 1339500265
ModificationTime: 1342567652
PfmFamily: 0
TTFWeight: 400
TTFWidth: 5
LineGap: 0
VLineGap: 0
Panose: 0 0 0 0 0 0 0 0 0 0
OS2TypoAscent: 0
OS2TypoAOffset: 1
OS2TypoDescent: 0
OS2TypoDOffset: 1
OS2TypoLinegap: 0
OS2WinAscent: 2364
OS2WinAOffset: 0
OS2WinDescent: 785
OS2WinDOffset: 0
HheadAscent: 2364
HheadAOffset: 0
HheadDescent: -785
HheadDOffset: 0
OS2SubXSize: 2937
OS2SubYSize: 2726
OS2SubXOff: 0
OS2SubYOff: 588
OS2SupXSize: 2937
OS2SupYSize: 2726
OS2SupXOff: 0
OS2SupYOff: 2001
OS2StrikeYSize: 102
OS2StrikeYPos: 512
OS2Vendor: 'newt'
OS2CodePages: 00000001.00000000
OS2UnicodeRanges: 80000027.00000000.00000000.00000000
Lookup: 4 0 1 "'liga' Standard Ligatures lookup 0"  {"'liga' Standard Ligatures lookup 0-1"  } ['liga' ('DFLT' <'dflt' > 'grek' <'dflt' > 'latn' <'dflt' > ) ]
Lookup: 260 0 0 "'mark' Mark Positioning lookup 1"  {"'mark' Mark Positioning lookup 1-1"  } ['mark' ('DFLT' <'dflt' > 'grek' <'dflt' > 'latn' <'dflt' > ) ]
Lookup: 258 0 0 "'kern' Horizontal Kerning in Latin lookup 0"  {"'kern' Horizontal Kerning in Latin lookup 0 subtable" [307,30,0] "'kern' Horizontal Kerning lookup 1 kerning class 1"  "'kern' Horizontal Kerning lookup 2 kerning class 1"  } ['kern' ('DFLT' <'dflt' > 'latn' <'dflt' > ) ]
MarkAttachClasses: 1
DEI: 91125
KernClass2: 30 34 "'kern' Horizontal Kerning lookup 2 kerning class 1" 
 81 A Aacute Abreve Acircumflex Adieresis Agrave Amacron Aogonek Aring Atilde uni0202
 1 B

StartChar: A
Encoding: 33 65 0
Width: 1990
VWidth: 0
Flags: HW
PickledData: "(dp1
S'com.typemytype.robofont.layerData'
p2
(dp3
s."
AnchorPoint: "top" 1012 1714 basechar 0
LayerCount: 2
Fore
SplineSet
13 84 m 0
 13 134 34 176 85 176 c 2
 224 176 l 1
 886 1671 l 2
 906 1718 945 1763 1009 1763 c 0
 1076 1763 1107 1717 1127 1667 c 2
 1728 176 l 1
 1906 176 l 2
 1957 176 1977 134 1977 84 c 0
 1977 40 1951 0 1904 0 c 2
 1259 0 l 2
 1212 0 1185 40 1185 84 c 0
 1185 134 1206 176 1257 176 c 2
 1476 176 l 1
 1328 567 l 1
 603 567 l 1
 446 176 l 1
 632 176 l 2
 683 176 704 134 704 84 c 0
 704 40 677 0 630 0 c 2
 87 0 l 2
 40 0 13 40 13 84 c 0
665 721 m 1
 1271 721 l 1
 978 1499 l 1
 665 721 l 1
EndSplineSet
EndChar

StartChar: AE
Encoding: 132 198 1
Width: 2781
VWidth: 0
Flags: HW
PickledData: "(dp1
S'com.typemytype.robofont.layerData'
p2
(dp3
s."
LayerCount: 2
Fore
SplineSet
-77 74 m 0
 -77 121 -45 176 3 176 c 2
 140 176 l 1
 1115 1649 l 1
 1160 1713 1222 1714 1326 1714 c 2
 2368 1714 l 2
 2484 1714 2551 1367 2551 1276 c 0
 2551 1235 2529 1206 2485 1206 c 0
 2426 1206 2384 1234 2371 1282 c 2
 2303 1538 l 1
 1394 1538 l 1
 1498 967 l 1
 1818 967 l 1
 1836 1153 l 1
 1841 1192 1864 1221 1904 1221 c 0
 1952 1221 1985 1186 1990 1141 c 2
 2016 899 l 1
 2076 649 l 1
 2076 635 l 2
 2076 591 2056 569 2016 569 c 0
 1972 569 1944 602 1928 637 c 2
 1844 823 l 1
 1525 823 l 1
 1643 176 l 1
 2452 176 l 1
 2516 506 l 1
 2527 550 2554 582 2602 582 c 0
 2649 582 2683 551 2690 508 c 1
 2690 488 l 2
 2690 482 2691 476 2694 469 c 1
 2694 78 l 1
 2690 27 2672 0 2627 0 c 2
 1156 0 l 2
 1111 0 1091 35 1091 78 c 0
 1091 127 1120 176 1172 176 c 2
 1398 176 l 1
 1334 567 l 1
 605 567 l 1
 361 176 l 1
 548 176 l 2
 597 176 630 142 630 96 c 0
 630 41 587 0 527 0 c 2
 -13 0 l 2
 -55 0 -77 34 -77 74 c 0
699 721 m 1
 1310 721 l 1
 1185 1499 l 1
 699 721 l 1
EndSplineSet
EndChar

StartChar: B
Encoding: 34 66 11
Width: 1844
VWidth: 0
Flags: HW
PickledData: "(dp1
S'com.typemytype.robofont.layerData'
p2
(dp3
s."
AnchorPoint: "top" 932 1714 basechar 0
LayerCount: 2
Fore
SplineSet
1764 510 m 0
 1764 145 1396 0 1030 0 c 2
 123 0 l 2
 76 0 49 40 49 84 c 0
 49 134 70 176 121 176 c 2
 385 176 l 1
 385 1538 l 1
 172 1538 l 2
 125 1538 99 1578 99 1622 c 0
 99 1672 119 1714 170 1714 c 2
 987 1714 l 2
 1317 1714 1595 1615 1595 1279 c 0
 1595 1111 1485 1002 1354 967 c 1
 1577 936 1764 803 1764 510 c 0
1514 532 m 0
 1514 835 1300 866 1069 866 c 2
 619 866 l 1
 619 176 l 1
 1033 176 l 2
 1314 176 1514 262 1514 532 c 0
1394 1267 m 0
 1394 1472 1238 1538 1006 1538 c 2
 619 1538 l 1
 619 995 l 1
 1069 995 l 2
 1231 995 1394 1074 1394 1267 c 0
EndSplineSet
EndChar

StartChar: C
Encoding: 35 67 12
Width: 1818
VWidth: 0
Flags: HW
PickledData: "(dp1
S'com.typemytype.robofont.layerData'
p2
(dp3
s."
AnchorPoint: "top" 982 1714 basechar 0
LayerCount: 2
Fore
SplineSet
1710 571 m 0
 1710 249 1422 -25 973 -25 c 0
 468 -25 93 330 93 889 c 0
 93 1399 475 1739 992 1739 c 0
 1210 1739 1359 1661 1479 1538 c 1
 1479 1642 l 2
 1479 1693 1521 1714 1571 1714 c 0
 1615 1714 1655 1687 1655 1640 c 2
 1655 1266 l 2
 1655 1219 1615 1192 1571 1192 c 0
 1526 1192 1511 1236 1487 1270 c 1
 1389 1431 1243 1550 992 1550 c 0
 596 1550 356 1268 356 878 c 0
 356 439 585 171 992 171 c 0
 1275 171 1452 336 1502 590 c 0
 1512 638 1558 661 1604 661 c 0
 1656 661 1710 630 1710 571 c 0
EndSplineSet
EndChar

StartChar: D
Encoding: 36 68 18
Width: 1953
VWidth: 0
Flags: HW
PickledData: "(dp1
S'com.typemytype.robofont.layerData'
p2
(dp3
s."
AnchorPoint: "top" 1022 1714 basechar 0
LayerCount: 2
Fore
SplineSet
1618 866 m 0
 1618 1297 1343 1538 909 1538 c 2
 623 1538 l 1
 623 176 l 1
 670 173 715 172 760 172 c 0
 1268 172 1618 346 1618 866 c 0
1860 866 m 0
 1860 301 1448 0 881 0 c 2
 123 0 l 2
 76 0 49 40 49 84 c 0
 49 134 70 176 121 176 c 2
 389 176 l 1
 389 1538 l 1
 186 1538 l 2
 135 1538 115 1580 115 1630 c 0
 115 1674 142 1714 189 1714 c 2
 881 1714 l 2
 1460 1714 1860 1438 1860 866 c 0
EndSplineSet
EndChar

StartChar: Dcroat
Encoding: 206 272 20
Width: 1878
VWidth: 0
Flags: HW
LayerCount: 2
Fore
SplineSet
1872 866 m 0
 1872 301 1460 0 893 0 c 2
 135 0 l 2
 88 0 61 40 61 84 c 0
 61 134 82 176 133 176 c 2
 401 176 l 1
 401 809 l 1
 252 809 l 2
 197 809 170 849 170 888 c 0
 170 927 196 965 246 965 c 2
 401 965 l 1
 401 1538 l 1
 198 1538 l 2
 147 1538 127 1580 127 1630 c 0
 127 1674 154 1714 201 1714 c 2
 893 1714 l 2
 1472 1714 1872 1438 1872 866 c 0
1630 866 m 0
 1630 1297 1355 1538 921 1538 c 2
 635 1538 l 1
 635 965 l 1
 888 965 l 2
 936 965 960 927 960 888 c 0
 960 849 935 809 886 809 c 2
 635 809 l 1
 635 176 l 1
 682 173 727 172 772 172 c 0
 1280 172 1630 346 1630 866 c 0
EndSplineSet
EndChar

StartChar: E
Encoding: 37 69 21
Width: 1894
VWidth: 0
Flags: HW
PickledData: "(dp1
S'com.typemytype.robofont.layerData'
p2
(dp3
s."
AnchorPoint: "top" 1022 1714 basechar 0
LayerCount: 2
Fore
SplineSet
1174 649 m 1
 1174 602 1149 569 1104 569 c 0
 1062 569 1035 600 1024 637 c 2
 973 823 l 1
 639 823 l 1
 639 176 l 1
 1506 176 l 1
 1622 506 l 1
 1641 548 1673 582 1725 582 c 0
 1769 582 1798 554 1798 508 c 0
 1798 494 1796 481 1792 469 c 1
 1729 78 l 1
 1715 30 1695 0 1647 0 c 2
 123 0 l 2
 76 0 49 40 49 84 c 0
 49 134 70 176 121 176 c 2
 406 176 l 1
 406 1538 l 1
 223 1538 l 2
 172 1538 152 1580 152 1630 c 0
 152 1674 178 1714 225 1714 c 2
 1606 1714 l 2
 1654 1714 1672 1683 1688 1636 c 1
 1784 1319 l 2
 1788 1304 1790 1291 1790 1280 c 0
 1790 1236 1760 1206 1717 1206 c 0
 1667 1206 1631 1240 1614 1282 c 2
 1506 1538 l 1
 639 1538 l 1
 639 967 l 1
 973 967 l 1
 1024 1153 l 2
 1035 1190 1062 1221 1104 1221 c 0
 1149 1221 1174 1188 1174 1141 c 1
 1159 899 l 1
 1174 649 l 1
EndSplineSet
EndChar

StartChar: Eng
Encoding: 264 330 29
Width: 2083
VWidth: 0
Flags: HW
LayerCount: 2
Fore
SplineSet
68 1630 m 0
 68 1674 95 1714 142 1714 c 2
 605 1714 l 2
 637 1714 652 1704 664 1679 c 1
 1543 426 l 1
 1543 1538 l 1
 1363 1538 l 2
 1312 1538 1291 1580 1291 1630 c 0
 1291 1674 1318 1714 1365 1714 c 2
 1947 1714 l 2
 1994 1714 2020 1674 2020 1630 c 0
 2020 1580 2000 1538 1949 1538 c 2
 1750 1538 l 1
 1750 -52 l 2
 1750 -425 1555 -587 1302 -587 c 0
 1121 -587 967 -489 967 -364 c 2
 967 -245 l 2
 967 -176 997 -141 1071 -141 c 0
 1128 -141 1179 -170 1179 -225 c 2
 1179 -338 l 1
 1180 -381 1242 -419 1315 -419 c 0
 1418 -419 1543 -336 1543 -75 c 2
 1543 51 l 1
 550 1456 l 1
 550 176 l 1
 726 176 l 2
 777 176 798 134 798 84 c 0
 798 40 771 0 724 0 c 2
 142 0 l 2
 95 0 68 40 68 84 c 0
 68 134 89 176 140 176 c 2
 339 176 l 1
 339 1538 l 1
 140 1538 l 2
 89 1538 68 1580 68 1630 c 0
EndSplineSet
EndChar

StartChar: Eth
Encoding: 142 208 31
Width: 1878
VWidth: 0
Flags: HW
LayerCount: 2
Fore
SplineSet
1872 866 m 0
 1872 301 1460 0 893 0 c 2
 135 0 l 2
 88 0 61 40 61 84 c 0
 61 134 82 176 133 176 c 2
 401 176 l 1
 401 809 l 1
 252 809 l 2
 197 809 170 849 170 888 c 0
 170 927 196 965 246 965 c 2
 401 965 l 1
 401 1538 l 1
 198 1538 l 2
 147 1538 127 1580 127 1630 c 0
 127 1674 154 1714 201 1714 c 2
 893 1714 l 2
 1472 1714 1872 1438 1872 866 c 0
1630 866 m 0
 1630 1297 1355 1538 921 1538 c 2
 635 1538 l 1
 635 965 l 1
 888 965 l 2
 936 965 960 927 960 888 c 0
 960 849 935 809 886 809 c 2
 635 809 l 1
 635 176 l 1
 682 173 727 172 772 172 c 0
 1280 172 1630 346 1630 866 c 0
EndSplineSet
EndChar

StartChar: Euro
Encoding: 409 8364 32
Width: 2197
VWidth: 0
Flags: HW
LayerCount: 2
Fore
SplineSet
1952 539 m 1
 1932 257 1684 -25 1235 -25 c 0
 817 -25 516 204 424 600 c 1
 233 600 l 2
 174 600 144 637 144 674 c 0
 144 711 174 748 233 748 c 2
 400 748 l 1
 397 787 395 827 395 869 c 0
 395 896 396 923 398 950 c 1
 233 950 l 2
 174 950 144 988 144 1025 c 0
 144 1063 174 1100 233 1100 c 2
 420 1100 l 1
 508 1484 819 1739 1254 1739 c 0
 1472 1739 1621 1661 1741 1538 c 1
 1741 1642 l 2
 1741 1693 1783 1714 1833 1714 c 0
 1877 1714 1917 1687 1917 1640 c 2
 1917 1266 l 2
 1917 1219 1877 1192 1833 1192 c 0
 1788 1192 1773 1236 1749 1270 c 1
 1651 1431 1505 1550 1254 1550 c 0
 938 1550 710 1371 631 1100 c 1
 997 1100 l 2
 1055 1100 1084 1063 1084 1025 c 0
 1084 988 1055 950 997 950 c 2
 603 950 l 1
 601 926 600 902 600 878 c 0
 600 833 603 789 608 748 c 1
 997 748 l 2
 1055 748 1084 711 1084 674 c 0
 1084 637 1055 600 997 600 c 2
 639 600 l 1
 724 329 942 171 1254 171 c 0
 1537 171 1705 326 1764 560 c 0
 1775 607 1817 630 1859 630 c 0
 1906 630 1952 601 1952 546 c 2
 1952 539 l 1
EndSplineSet
EndChar

StartChar: F
Encoding: 38 70 33
Width: 1795
VWidth: 0
Flags: HW
PickledData: "(dp1
S'com.typemytype.robofont.layerData'
p2
(dp3
s."
AnchorPoint: "top" 1022 1714 basechar 0
LayerCount: 2
Fore
SplineSet
983 0 m 2
 123 0 l 2
 76 0 49 40 49 84 c 0
 49 134 70 176 121 176 c 2
 447 176 l 1
 447 1538 l 1
 203 1538 l 2
 152 1538 131 1580 131 1630 c 0
 131 1674 158 1714 205 1714 c 2
 1655 1714 l 2
 1703 1714 1721 1683 1737 1636 c 1
 1813 1319 l 2
 1817 1304 1819 1291 1819 1280 c 0
 1819 1236 1788 1206 1745 1206 c 0
 1695 1206 1660 1240 1643 1282 c 1
 1555 1538 l 1
 680 1538 l 1
 680 928 l 1
 1020 928 l 1
 1071 1114 l 2
 1082 1151 1109 1182 1151 1182 c 0
 1196 1182 1221 1149 1221 1102 c 1
 1207 860 l 1
 1221 610 l 1
 1221 563 1196 530 1151 530 c 0
 1109 530 1082 561 1071 598 c 2
 1020 784 l 1
 680 784 l 1
 680 176 l 1
 985 176 l 2
 1036 176 1057 134 1057 84 c 0
 1057 40 1030 0 983 0 c 2
EndSplineSet
EndChar

StartChar: G
Encoding: 39 71 34
Width: 2007
VWidth: 0
Flags: HW
PickledData: "(dp1
S'com.typemytype.robofont.layerData'
p2
(dp3
s."
AnchorPoint: "top" 1022 1714 basechar 0
LayerCount: 2
Fore
SplineSet
990 164 m 0
 1304 164 1594 252 1594 569 c 2
 1594 696 l 1
 1442 696 l 2
 1395 696 1369 736 1369 780 c 0
 1369 830 1389 872 1440 872 c 2
 1856 872 l 2
 1907 872 1928 830 1928 780 c 0
 1928 736 1901 696 1854 696 c 2
 1770 696 l 1
 1770 72 l 2
 1770 21 1728 0 1678 0 c 0
 1634 0 1594 27 1594 74 c 2
 1594 197 l 1
 1478 38 1261 -25 990 -25 c 0
 461 -25 93 319 93 850 c 0
 93 1387 474 1739 1010 1739 c 0
 1252 1739 1419 1664 1559 1538 c 1
 1559 1642 l 2
 1559 1693 1601 1714 1651 1714 c 0
 1695 1714 1735 1687 1735 1640 c 2
 1735 1266 l 2
 1735 1219 1695 1192 1651 1192 c 0
 1605 1192 1589 1236 1567 1270 c 1
 1444 1443 1272 1550 1010 1550 c 0
 599 1550 355 1262 355 850 c 0
 355 444 588 164 990 164 c 0
EndSplineSet
EndChar

StartChar: H
Encoding: 40 72 39
Width: 2046
VWidth: 0
Flags: HW
PickledData: "(dp1
S'com.typemytype.robofont.layerData'
p2
(dp3
s."
AnchorPoint: "top" 1054 1714 basechar 0
LayerCount: 2
Fore
SplineSet
49 84 m 0
 49 134 70 176 121 176 c 2
 344 176 l 1
 344 1538 l 1
 142 1538 l 2
 91 1538 70 1580 70 1630 c 0
 70 1674 97 1714 144 1714 c 2
 779 1714 l 2
 826 1714 852 1674 852 1630 c 0
 852 1580 832 1538 781 1538 c 2
 578 1538 l 1
 578 963 l 1
 1510 963 l 1
 1510 1538 l 1
 1307 1538 l 2
 1256 1538 1235 1580 1235 1630 c 0
 1235 1674 1262 1714 1309 1714 c 2
 1923 1714 l 2
 1970 1714 1997 1674 1997 1630 c 0
 1997 1580 1976 1538 1925 1538 c 2
 1743 1538 l 1
 1743 176 l 1
 1925 176 l 2
 1976 176 1997 134 1997 84 c 0
 1997 40 1970 0 1923 0 c 2
 1309 0 l 2
 1262 0 1235 40 1235 84 c 0
 1235 134 1256 176 1307 176 c 2
 1510 176 l 1
 1510 788 l 1
 578 788 l 1
 578 176 l 1
 781 176 l 2
 832 176 852 134 852 84 c 0
 852 40 826 0 779 0 c 2
 123 0 l 2
 76 0 49 40 49 84 c 0
EndSplineSet
EndChar

StartChar: Hbar
Encoding: 228 294 40
Width: 2020
VWidth: 0
Flags: HW
LayerCount: 2
Fore
SplineSet
1497 1170 m 1
 565 1170 l 1
 565 963 l 1
 1497 963 l 1
 1497 1170 l 1
36 84 m 0
 36 134 57 176 108 176 c 2
 331 176 l 1
 331 1170 l 1
 187 1170 l 2
 131.003 1170 104 1210 104 1249 c 0
 104 1287 130.003 1325 181 1325 c 2
 331 1325 l 1
 331 1538 l 1
 129 1538 l 2
 78 1538 57 1580 57 1630 c 0
 57 1674 84 1714 131 1714 c 2
 766 1714 l 2
 813 1714 839 1674 839 1630 c 0
 839 1580 819 1538 768 1538 c 2
 565 1538 l 1
 565 1325 l 1
 1497 1325 l 1
 1497 1538 l 1
 1294 1538 l 2
 1243 1538 1222 1580 1222 1630 c 0
 1222 1674 1249 1714 1296 1714 c 2
 1910 1714 l 2
 1957 1714 1984 1674 1984 1630 c 0
 1984 1580 1963 1538 1912 1538 c 2
 1730 1538 l 1
 1730 1325 l 1
 1871.5 1325 l 2
 1919.5 1325 1943.5 1287 1943.5 1249 c 0
 1943.5 1210 1918.5 1170 1869.5 1170 c 2
 1730 1170 l 1
 1730 176 l 1
 1912 176 l 2
 1963 176 1984 134 1984 84 c 0
 1984 40 1957 0 1910 0 c 2
 1296 0 l 2
 1249 0 1222 40 1222 84 c 0
 1222 134 1243 176 1294 176 c 2
 1497 176 l 1
 1497 788 l 1
 565 788 l 1
 565 176 l 1
 768 176 l 2
 819 176 839 134 839 84 c 0
 839 40 813 0 766 0 c 2
 110 0 l 2
 63 0 36 40 36 84 c 0
EndSplineSet
EndChar

StartChar: I
Encoding: 41 73 42
Width: 1008
VWidth: 0
Flags: HW
AnchorPoint: "top" 522 1714 basechar 0
LayerCount: 2
Fore
SplineSet
74 84 m 0
 74 134 94 176 145 176 c 2
 389 176 l 1
 389 1538 l 1
 145 1538 l 2
 94 1538 74 1580 74 1630 c 0
 74 1674 100 1714 147 1714 c 2
 864 1714 l 2
 911 1714 938 1674 938 1630 c 0
 938 1580 917 1538 866 1538 c 2
 623 1538 l 1
 623 176 l 1
 866 176 l 2
 917 176 938 134 938 84 c 0
 938 40 911 0 864 0 c 2
 147 0 l 2
 100 0 74 40 74 84 c 0
EndSplineSet
EndChar

StartChar: J
Encoding: 42 74 53
Width: 1333
VWidth: 0
Flags: HW
AnchorPoint: "top" 842 1714 basechar 0
LayerCount: 2
Fore
SplineSet
965 443 m 2
 965 24 745 -158 461 -158 c 0
 257 -158 85 -47 85 93 c 2
 85 226 l 2
 85 303 118 343 202 343 c 0
 266 343 323 311 323 249 c 2
 323 122 l 1
 324 73 394 31 476 31 c 0
 592 31 732 123 732 417 c 2
 732 1538 l 1
 410 1538 l 2
 359 1538 339 1580 339 1630 c 0
 339 1674 365 1714 412 1714 c 2
 1228 1714 l 2
 1275 1714 1301 1674 1301 1630 c 0
 1301 1580 1281 1538 1230 1538 c 2
 965 1538 l 1
 965 443 l 2
EndSplineSet
EndChar

StartChar: K
Encoding: 43 75 55
Width: 2045
VWidth: 0
Flags: HW
PickledData: "(dp1
S'com.typemytype.robofont.layerData'
p2
(dp3
s."
AnchorPoint: "top" 1022 1714 basechar 0
LayerCount: 2
Fore
SplineSet
49 84 m 0
 49 134 70 176 121 176 c 2
 340 176 l 1
 340 1538 l 1
 121 1538 l 2
 70 1538 49 1580 49 1630 c 0
 49 1674 76 1714 123 1714 c 2
 774 1714 l 2
 821 1714 848 1674 848 1630 c 0
 848 1580 828 1538 777 1538 c 2
 574 1538 l 1
 574 842 l 1
 1366 1499 l 2
 1372 1505 1381 1517 1381 1530 c 0
 1381 1545 1370 1552 1348 1552 c 2
 1278 1552 l 2
 1230 1552 1207 1578 1207 1630 c 0
 1207 1674 1233 1714 1280 1714 c 2
 1809 1714 l 2
 1856 1714 1882 1674 1882 1630 c 0
 1882 1580 1862 1538 1811 1538 c 2
 1653 1538 l 1
 1047 1016 l 1
 1833 176 l 1
 1975 176 l 2
 2026 176 2046 134 2046 84 c 0
 2046 40 2020 0 1973 0 c 2
 1362 0 l 2
 1315 0 1289 40 1289 84 c 0
 1289 134 1309 176 1360 176 c 2
 1559 176 l 1
 897 911 l 1
 574 662 l 1
 574 176 l 1
 858 176 l 2
 909 176 930 134 930 84 c 0
 930 40 903 0 856 0 c 2
 123 0 l 2
 76 0 49 40 49 84 c 0
EndSplineSet
EndChar

StartChar: L
Encoding: 44 76 57
Width: 1851
VWidth: 0
Flags: HW
PickledData: "(dp1
S'com.typemytype.robofont.layerData'
p2
(dp3
s."
AnchorPoint: "top" 1022 1714 basechar 0
LayerCount: 2
Fore
SplineSet
951 1630 m 0
 951 1580 930 1538 879 1538 c 2
 656 1538 l 1
 656 176 l 1
 1360 176 l 2
 1474 176 1566 197 1575 303 c 1
 1604 584 l 2
 1609 628 1639 647 1686 647 c 0
 1735 647 1778 620 1778 567 c 1
 1733 68 l 2
 1729 30 1709 0 1672 0 c 2
 123 0 l 2
 76 0 49 40 49 84 c 0
 49 134 70 176 121 176 c 2
 422 176 l 1
 422 1538 l 1
 183 1538 l 2
 132 1538 111 1580 111 1630 c 0
 111 1674 138 1714 185 1714 c 2
 877 1714 l 2
 924 1714 951 1674 951 1630 c 0
EndSplineSet
EndChar

StartChar: Lslash
Encoding: 255 321 62
Width: 1870
VWidth: 0
Flags: HW
LayerCount: 2
Fore
SplineSet
970 1630 m 0
 970 1580 949 1538 898 1538 c 2
 675 1538 l 1
 675 1149 l 1
 937 1250 l 1
 958 1256 976 1259 992 1259 c 0
 1042 1259 1060 1228 1060 1195 c 0
 1060 1160 1040 1122 1016 1115 c 1
 675 984 l 1
 675 176 l 1
 1379 176 l 2
 1493 176 1585 197 1594 303 c 1
 1623 584 l 2
 1628 628 1658 647 1705 647 c 0
 1754 647 1797 620 1797 567 c 1
 1752 68 l 2
 1748 30 1728 0 1691 0 c 2
 142 0 l 2
 95 0 68 40 68 84 c 0
 68 134 89 176 140 176 c 2
 441 176 l 1
 441 893 l 1
 310 843 l 1
 286 836 266 833 249 833 c 0
 197 833 178 864 178 897 c 0
 178 931 197 967 223 975 c 1
 441 1059 l 1
 441 1538 l 1
 202 1538 l 2
 151 1538 130 1580 130 1630 c 0
 130 1674 157 1714 204 1714 c 2
 896 1714 l 2
 943 1714 970 1674 970 1630 c 0
EndSplineSet
EndChar

StartChar: M
Encoding: 45 77 63
Width: 2443
VWidth: 0
Flags: HW
PickledData: "(dp1
S'com.typemytype.robofont.layerData'
p2
(dp3
s."
AnchorPoint: "top" 1252 1714 basechar 0
LayerCount: 2
Fore
SplineSet
1653 84 m 0
 1653 134 1674 176 1725 176 c 2
 1907 176 l 1
 1907 1235 l 1
 1303 102 l 1
 1290 67 1255 37 1209 37 c 0
 1168 37 1133 63 1119 92 c 2
 553 1249 l 1
 553 176 l 1
 756 176 l 2
 807 176 828 134 828 84 c 0
 828 40 801 0 754 0 c 2
 123 0 l 2
 76 0 49 40 49 84 c 0
 49 134 70 176 121 176 c 2
 344 176 l 1
 344 1538 l 1
 142 1538 l 2
 91 1538 70 1580 70 1630 c 0
 70 1674 97 1714 144 1714 c 2
 480 1714 l 2
 516 1714 535 1688 547 1663 c 2
 1209 328 l 1
 1915 1671 l 2
 1927 1694 1947 1714 1981 1714 c 2
 2300 1714 l 2
 2347 1714 2374 1674 2374 1630 c 0
 2374 1580 2353 1538 2302 1538 c 2
 2120 1538 l 1
 2120 176 l 1
 2323 176 l 2
 2374 176 2394 134 2394 84 c 0
 2394 40 2368 0 2321 0 c 2
 1727 0 l 2
 1680 0 1653 40 1653 84 c 0
EndSplineSet
EndChar

StartChar: N
Encoding: 46 78 64
Width: 2037
VWidth: 0
Flags: HW
PickledData: "(dp1
S'com.typemytype.robofont.layerData'
p2
(dp3
s."
AnchorPoint: "top" 1022 1714 basechar 0
LayerCount: 2
Fore
SplineSet
49 1630 m 0
 49 1674 76 1714 123 1714 c 2
 586 1714 l 2
 618 1714 633 1704 645 1679 c 1
 1524 426 l 1
 1524 1538 l 1
 1344 1538 l 2
 1293 1538 1272 1580 1272 1630 c 0
 1272 1674 1299 1714 1346 1714 c 2
 1928 1714 l 2
 1975 1714 2001 1674 2001 1630 c 0
 2001 1580 1981 1538 1930 1538 c 2
 1731 1538 l 1
 1731 53 l 2
 1731 2 1690 -37 1641 -37 c 0
 1598 -37 1569 -13 1549 16 c 2
 531 1456 l 1
 531 176 l 1
 707 176 l 2
 758 176 779 134 779 84 c 0
 779 40 752 0 705 0 c 2
 123 0 l 2
 76 0 49 40 49 84 c 0
 49 134 70 176 121 176 c 2
 320 176 l 1
 320 1538 l 1
 121 1538 l 2
 70 1538 49 1580 49 1630 c 0
EndSplineSet
EndChar

StartChar: O
Encoding: 47 79 69
Width: 1972
VWidth: 0
Flags: HW
PickledData: "(dp1
S'com.typemytype.robofont.layerData'
p2
(dp3
s."
AnchorPoint: "top" 987 1714 basechar 0
LayerCount: 2
Fore
SplineSet
982 -25 m 0
 458 -25 93 320 93 850 c 0
 93 1382 458 1739 982 1739 c 0
 1512 1739 1879 1382 1879 850 c 0
 1879 320 1510 -25 982 -25 c 0
973 1550 m 0
 574 1550 343 1256 343 850 c 0
 343 444 580 164 990 164 c 0
 1391 164 1631 438 1631 848 c 0
 1631 1262 1385 1550 973 1550 c 0
EndSplineSet
EndChar

StartChar: OE
Encoding: 272 338 70
Width: 3047
VWidth: 0
Flags: HW
LayerCount: 2
Fore
SplineSet
950 -25 m 0
 434 -25 74 320 74 850 c 0
 74 1382 434 1739 950 1739 c 0
 1222 1739 1485 1609 1589 1387 c 1
 1589 1714 l 1
 2786 1714 l 2
 2834 1714 2852 1683 2868 1636 c 1
 2964 1319 l 2
 2968 1304 2970 1291 2970 1280 c 0
 2970 1236 2940 1206 2897 1206 c 0
 2847 1206 2811 1240 2794 1282 c 2
 2686 1538 l 1
 1822 1538 l 1
 1822 967 l 1
 2156 967 l 1
 2207 1153 l 2
 2218 1190 2245 1221 2287 1221 c 0
 2332 1221 2357 1188 2357 1141 c 1
 2342 899 l 1
 2357 649 l 1
 2357 602 2332 569 2287 569 c 0
 2245 569 2218 600 2207 637 c 2
 2156 823 l 1
 1822 823 l 1
 1822 176 l 1
 2686 176 l 1
 2802 506 l 1
 2821 548 2853 582 2905 582 c 0
 2949 582 2978 554 2978 508 c 0
 2978 494 2976 481 2972 469 c 1
 2909 78 l 1
 2895 30 2875 0 2827 0 c 2
 1589 0 l 1
 1589 311 l 1
 1505 108 1221 -25 950 -25 c 0
941 1550 m 0
 550 1550 324 1256 324 850 c 0
 324 444 556 164 958 164 c 0
 1353 164 1589 438 1589 848 c 0
 1589 1262 1347 1550 941 1550 c 0
EndSplineSet
EndChar

StartChar: Oslash
Encoding: 150 216 78
Width: 1940
VWidth: 0
Flags: HW
LayerCount: 2
Fore
SplineSet
957 1550 m 0
 558 1550 327 1256 327 850 c 0
 327 594 422 387 595 270 c 1
 1190 1515 l 1
 1120 1538 1042 1550 957 1550 c 0
974 164 m 0
 1375 164 1615 438 1615 848 c 0
 1615 1106 1519 1315 1348 1436 c 1
 755 195 l 1
 821 175 894 164 974 164 c 0
499 -341 m 1
 484 -370 467 -389 432 -389 c 0
 385 -389 327 -351 327 -303 c 0
 327 -292 330 -282 335 -272 c 2
 505 83 l 1
 240 224 77 496 77 850 c 0
 77 1382 442 1739 966 1739 c 0
 1077 1739 1181 1723 1276 1694 c 1
 1443 2042 l 1
 1454 2068 1475 2081 1505 2081 c 0
 1551 2081 1607 2045 1607 1995 c 0
 1607 1985 1605 1977 1601 1967 c 2
 1438 1625 l 1
 1701 1479 1863 1203 1863 850 c 0
 1863 320 1494 -25 966 -25 c 0
 860 -25 761 -11 669 16 c 1
 499 -341 l 1
EndSplineSet
EndChar

StartChar: P
Encoding: 48 80 80
Width: 1768
VWidth: 0
Flags: HW
PickledData: "(dp1
S'com.typemytype.robofont.layerData'
p2
(dp3
s."
AnchorPoint: "top" 922 1714 basechar 0
LayerCount: 2
Fore
SplineSet
1448 1223 m 0
 1448 1538 1107 1538 826 1538 c 2
 619 1538 l 1
 619 889 l 1
 887 889 l 2
 1175 889 1448 903 1448 1223 c 0
1684 1208 m 0
 1684 745 1262 725 834 725 c 2
 619 725 l 1
 619 176 l 1
 924 176 l 2
 975 176 996 134 996 84 c 0
 996 40 969 0 922 0 c 2
 123 0 l 2
 76 0 49 40 49 84 c 0
 49 134 70 176 121 176 c 2
 385 176 l 1
 385 1538 l 1
 142 1538 l 2
 91 1538 70 1580 70 1630 c 0
 70 1674 97 1714 144 1714 c 2
 797 1714 l 2
 1244 1714 1684 1688 1684 1208 c 0
EndSplineSet
EndChar

StartChar: Q
Encoding: 49 81 81
Width: 1980
VWidth: 0
Flags: HW
PickledData: "(dp1
S'com.typemytype.robofont.layerData'
p2
(dp3
s."
LayerCount: 2
Fore
SplineSet
990 1550 m 0
 587 1550 355 1255 355 850 c 0
 355 444 588 164 990 164 c 0
 1400 164 1645 439 1645 850 c 0
 1645 1263 1400 1550 990 1550 c 0
1156 -13 m 1
 1384 -161 l 1
 1417 -178 1454 -183 1492 -183 c 0
 1552 -183 1623 -154 1705 -95 c 0
 1717 -87 1731 -83 1746 -83 c 0
 1802 -83 1855 -136 1855 -191 c 0
 1855 -314 1584 -384 1480 -384 c 0
 1213 -384 1093 -91 894 -21 c 1
 417 18 93 352 93 850 c 0
 93 1382 460 1739 990 1739 c 0
 1520 1739 1887 1382 1887 850 c 0
 1887 377 1595 52 1156 -13 c 1
EndSplineSet
EndChar

StartChar: R
Encoding: 50 82 82
Width: 1841
VWidth: 0
Flags: HW
PickledData: "(dp1
S'com.typemytype.robofont.layerData'
p2
(dp3
s."
AnchorPoint: "top" 902 1714 basechar 0
LayerCount: 2
Fore
SplineSet
762 942 m 2
 1067 942 1338 947 1338 1239 c 0
 1338 1537 1022 1538 725 1538 c 2
 578 1538 l 1
 578 942 l 1
 762 942 l 2
1581 1249 m 0
 1581 976 1361 861 1101 816 c 1
 1268 774 1343 686 1403 540 c 2
 1553 177 l 1
 1700 177 l 2
 1780 177 1808 153 1808 84 c 0
 1808 9 1764 0 1701 0 c 2
 1187 0 l 2
 1140 0 1113 40 1113 84 c 0
 1113 134 1134 177 1185 177 c 2
 1314 177 l 1
 1202 460 l 2
 1142 611 1059 764 805 764 c 2
 578 764 l 1
 578 177 l 1
 842 177 l 2
 893 177 914 134 914 84 c 0
 914 40 887 0 840 0 c 2
 123 0 l 2
 76 0 49 40 49 84 c 0
 49 134 70 177 121 177 c 2
 344 177 l 1
 344 1538 l 1
 162 1538 l 2
 111 1538 90 1580 90 1630 c 0
 90 1674 117 1714 164 1714 c 2
 756 1714 l 2
 1191 1714 1581 1678 1581 1249 c 0
EndSplineSet
EndChar

StartChar: S
Encoding: 51 83 86
Width: 1510
VWidth: 0
Flags: HW
PickledData: "(dp1
S'com.typemytype.robofont.layerData'
p2
(dp3
s."
AnchorPoint: "top" 782 1714 basechar 0
LayerCount: 2
Fore
SplineSet
802 1581 m 0
 480 1581 406 1439 406 1287 c 0
 406 1157 496 1082 675 1038 c 2
 962 967 l 2
 1226 901 1407 775 1407 458 c 0
 1407 111 1086 -27 735 -27 c 0
 593 -27 439 7 311 95 c 1
 306 49 285 -25 239 -25 c 0
 191 -25 160 -6 155 39 c 2
 98 535 l 1
 98 588 130 614 194 614 c 0
 234 614 269 589 274 549 c 2
 290 410 l 1
 303 286 503 150 710 150 c 0
 939 150 1202 208 1202 459 c 0
 1202 640 1077 689 927 732 c 2
 599 825 l 1
 359 879 185 1001 185 1271 c 0
 185 1564 446 1739 769 1739 c 0
 909 1739 1067 1707 1164 1627 c 1
 1164 1683 1203 1738 1258 1738 c 0
 1298 1738 1333 1712 1338 1672 c 1
 1345 1275 l 1
 1345 1217 1306 1193 1253 1193 c 0
 1206 1193 1174 1212 1169 1256 c 1
 1165 1372 l 1
 1147 1524 973 1581 802 1581 c 0
EndSplineSet
EndChar

StartChar: T
Encoding: 52 84 92
Width: 1662
VWidth: 0
Flags: HW
AnchorPoint: "top" 822 1714 basechar 0
LayerCount: 2
Fore
SplineSet
102 1184 m 0
 58 1184 34 1216 34 1264 c 1
 49 1636 l 2
 51 1688 65 1714 110 1714 c 2
 1552 1714 l 2
 1595 1714 1611 1687 1613 1636 c 2
 1628 1264 l 1
 1628 1216 1604 1184 1560 1184 c 0
 1513 1184 1483 1201 1478 1251 c 2
 1447 1538 l 1
 937 1538 l 1
 937 176 l 1
 1202 176 l 2
 1253 176 1273 134 1273 84 c 0
 1273 40 1247 0 1200 0 c 2
 442 0 l 2
 395 0 368 40 368 84 c 0
 368 134 389 176 440 176 c 2
 704 176 l 1
 704 1538 l 1
 214 1538 l 1
 184 1251 l 2
 179 1200 149 1184 102 1184 c 0
EndSplineSet
EndChar

StartChar: Thorn
Encoding: 156 222 95
Width: 1518
VWidth: 0
Flags: HW
LayerCount: 2
Fore
SplineSet
1545 907 m 0
 1545 471 1070 460 638 460 c 1
 638 176 l 1
 943 176 l 2
 994 176 1015 134 1015 84 c 0
 1015 40 988 0 941 0 c 2
 142 0 l 2
 95 0 68 40 68 84 c 0
 68 134 89 176 140 176 c 2
 404 176 l 1
 404 1536 l 1
 160 1536 l 2
 109 1536 88 1578 88 1628 c 0
 88 1672 115 1712 162 1712 c 2
 861 1712 l 2
 899 1712 921 1672 921 1628 c 0
 921 1578 900 1536 849 1536 c 2
 638 1536 l 1
 638 1359 l 1
 1098 1359 1545 1358 1545 907 c 0
1309 917 m 0
 1309 1175 1093 1191 638 1191 c 1
 638 624 l 1
 1105 624 1309 635 1309 917 c 0
EndSplineSet
EndChar

StartChar: U
Encoding: 53 85 96
Width: 1852
VWidth: 0
Flags: HW
AnchorPoint: "top" 952 1714 basechar 0
LayerCount: 2
Fore
SplineSet
944 -25 m 0
 542 -25 262 207 262 604 c 2
 262 1538 l 1
 111 1538 l 2
 60 1538 39 1580 39 1630 c 0
 39 1674 66 1714 113 1714 c 2
 697 1714 l 2
 744 1714 770 1674 770 1630 c 0
 770 1580 750 1538 699 1538 c 2
 496 1538 l 1
 496 604 l 2
 496 318 656 154 944 154 c 0
 1206 154 1375 340 1375 602 c 2
 1375 1538 l 1
 1184 1538 l 2
 1133 1538 1112 1580 1112 1630 c 0
 1112 1674 1139 1714 1186 1714 c 2
 1739 1714 l 2
 1786 1714 1813 1674 1813 1630 c 0
 1813 1580 1792 1538 1741 1538 c 2
 1567 1538 l 1
 1567 602 l 2
 1567 230 1315 -25 944 -25 c 0
EndSplineSet
EndChar

StartChar: V
Encoding: 54 86 107
Width: 1866
VWidth: 0
Flags: HW
PickledData: "(dp1
S'com.typemytype.robofont.layerData'
p2
(dp3
s."
LayerCount: 2
Fore
SplineSet
1843 1630 m 0
 1843 1580 1823 1538 1772 1538 c 2
 1602 1538 l 1
 1051 29 l 1
 1028 -23 1010 -53 957 -53 c 0
 905 -53 882 -19 864 29 c 2
 305 1538 l 1
 94 1538 l 2
 43 1538 23 1580 23 1630 c 0
 23 1674 49 1714 96 1714 c 2
 711 1714 l 2
 758 1714 785 1674 785 1630 c 0
 785 1580 764 1538 713 1538 c 2
 551 1538 l 1
 985 332 l 1
 1397 1538 l 1
 1235 1538 l 2
 1184 1538 1163 1580 1163 1630 c 0
 1163 1674 1190 1714 1237 1714 c 2
 1770 1714 l 2
 1817 1714 1843 1674 1843 1630 c 0
EndSplineSet
EndChar

StartChar: W
Encoding: 55 87 108
Width: 2345
VWidth: 0
Flags: HW
PickledData: "(dp1
S'com.typemytype.robofont.layerData'
p2
(dp3
s."
AnchorPoint: "top" 1202 1714 basechar 0
LayerCount: 2
Fore
SplineSet
1671 1622 m 0
 1671 1672 1692 1714 1743 1714 c 2
 2240 1714 l 2
 2291 1714 2312 1672 2312 1622 c 0
 2312 1578 2285 1538 2238 1538 c 2
 2072 1538 l 1
 1636 39 l 1
 1622 3 1576 -27 1526 -27 c 0
 1475 -27 1434 -2 1427 47 c 1
 1169 1135 l 1
 872 39 l 1
 859 2 808 -27 758 -27 c 0
 702 -27 663 -2 653 51 c 1
 270 1538 l 1
 106 1538 l 2
 59 1538 33 1578 33 1622 c 0
 33 1672 53 1714 104 1714 c 2
 602 1714 l 2
 653 1714 674 1672 674 1622 c 0
 674 1578 647 1538 600 1538 c 2
 506 1538 l 1
 790 381 l 1
 1114 1538 l 1
 1022 1538 l 2
 975 1538 948 1578 948 1622 c 0
 948 1672 969 1714 1020 1714 c 2
 1374 1714 l 2
 1425 1714 1446 1672 1446 1622 c 0
 1446 1578 1419 1538 1372 1538 c 2
 1272 1538 l 1
 1550 401 l 1
 1866 1538 l 1
 1745 1538 l 2
 1698 1538 1671 1578 1671 1622 c 0
EndSplineSet
EndChar

StartChar: X
Encoding: 56 88 109
Width: 2011
VWidth: 0
Flags: HW
PickledData: "(dp1
S'com.typemytype.robofont.layerData'
p2
(dp3
s."
LayerCount: 2
Fore
SplineSet
1941 1630 m 0
 1941 1580 1920 1538 1869 1538 c 2
 1703 1538 l 1
 1150 895 l 1
 1769 176 l 1
 1890 176 l 2
 1941 176 1962 134 1962 84 c 0
 1962 40 1935 0 1888 0 c 2
 1212 0 l 2
 1165 0 1138 40 1138 84 c 0
 1138 134 1159 176 1210 176 c 2
 1488 176 l 1
 1009 731 l 1
 532 176 l 1
 780 176 l 2
 831 176 851 134 851 84 c 0
 851 40 825 0 778 0 c 2
 122 0 l 2
 75 0 49 40 49 84 c 0
 49 134 69 176 120 176 c 2
 303 176 l 1
 894 864 l 1
 317 1538 l 1
 182 1538 l 2
 131 1538 110 1580 110 1630 c 0
 110 1674 137 1714 184 1714 c 2
 778 1714 l 2
 825 1714 851 1674 851 1630 c 0
 851 1580 831 1538 780 1538 c 2
 598 1538 l 1
 1036 1028 l 1
 1474 1538 l 1
 1292 1538 l 2
 1241 1538 1220 1580 1220 1630 c 0
 1220 1674 1247 1714 1294 1714 c 2
 1867 1714 l 2
 1914 1714 1941 1674 1941 1630 c 0
EndSplineSet
EndChar

StartChar: Y
Encoding: 57 89 110
Width: 1832
VWidth: 0
Flags: HW
PickledData: "(dp1
S'com.typemytype.robofont.layerData'
p2
(dp3
s."
AnchorPoint: "top" 972 1714 basechar 0
LayerCount: 2
Fore
SplineSet
1766 1630 m 0
 1766 1580 1745 1538 1694 1538 c 2
 1555 1538 l 1
 1058 723 l 1
 1058 176 l 1
 1281 176 l 2
 1332 176 1352 134 1352 84 c 0
 1352 40 1326 0 1279 0 c 2
 562 0 l 2
 515 0 488 40 488 84 c 0
 488 134 509 176 560 176 c 2
 824 176 l 1
 824 739 l 1
 349 1538 l 1
 138 1538 l 2
 87 1538 66 1580 66 1630 c 0
 66 1674 93 1714 140 1714 c 2
 734 1714 l 2
 781 1714 808 1674 808 1630 c 0
 808 1580 787 1538 736 1538 c 2
 595 1538 l 1
 980 891 l 1
 1361 1538 l 1
 1199 1538 l 2
 1148 1538 1127 1580 1127 1630 c 0
 1127 1674 1154 1714 1201 1714 c 2
 1692 1714 l 2
 1739 1714 1766 1674 1766 1630 c 0
EndSplineSet
EndChar

StartChar: Z
Encoding: 58 90 113
Width: 1658
VWidth: 0
Flags: HW
PickledData: "(dp1
S'com.typemytype.robofont.layerData'
p2
(dp3
s."
AnchorPoint: "top" 922 1714 basechar 0
LayerCount: 2
Fore
SplineSet
163 1239 m 2
 162 1634 l 1
 163 1675 187 1714 265 1714 c 2
 1395 1714 l 2
 1442 1714 1469 1674 1469 1630 c 0
 1469 1603 1465 1579 1453 1565 c 1
 390 176 l 1
 1326 176 l 1
 1402 547 l 1
 1415 591 1454 623 1504 623 c 0
 1546 623 1578 594 1578 549 c 0
 1578 535 1576 522 1572 510 c 1
 1529 78 l 1
 1515 30 1494 0 1447 0 c 2
 167 0 l 2
 124 0 91 53 91 102 c 0
 91 137 106 175 136 213 c 2
 1154 1538 l 1
 357 1538 l 1
 318 1241 l 1
 304 1202 278 1165 236 1165 c 0
 195 1165 163 1196 163 1239 c 2
EndSplineSet
EndChar

StartChar: a
Encoding: 65 97 117
Width: 1355
VWidth: 0
Flags: HW
PickledData: "(dp1
S'com.typemytype.robofont.layerData'
p2
(dp3
s."
AnchorPoint: "top" 628 1133 basechar 0
LayerCount: 2
Fore
SplineSet
1370 168 m 0
 1370 61 1181 -25 1090 -25 c 0
 980 -25 914 27 890 137 c 1
 792 24 626 -28 447 -28 c 0
 242 -28 89 107 89 307 c 0
 89 666 528 688 863 717 c 1
 863 879 l 2
 863 984 755 1018 652 1018 c 0
 464 1018 399 979 271 897 c 0
 259 890 248 886 236 886 c 0
 190 886 148 938 148 985 c 0
 148 1146 457 1188 623 1188 c 0
 962 1188 1062 1058 1062 723 c 2
 1062 219 l 2
 1062 178 1075 147 1106 147 c 0
 1166 147 1251 255 1299 255 c 0
 1329 255 1370 205 1370 168 c 0
863 567 m 1
 651 544 304 538 304 313 c 0
 304 199 401 145 517 145 c 0
 657 145 771 203 863 276 c 1
 863 567 l 1
EndSplineSet
EndChar

StartChar: acute
Encoding: 114 180 121
Width: 633
VWidth: 0
Flags: HW
AnchorPoint: "top" 65 1220 mark 0
LayerCount: 2
Fore
SplineSet
517 1870 m 0
 559 1870 601 1827 601 1786 c 0
 601 1768 593 1753 575 1741 c 0
 417 1642 240 1527 77 1434 c 0
 70 1430 63 1427 58 1427 c 0
 32 1427 9 1454 9 1479 c 0
 9 1493 15 1502 26 1509 c 0
 176 1609 340 1738 476 1855 c 0
 487 1865 501 1870 517 1870 c 0
EndSplineSet
EndChar

StartChar: ae
Encoding: 164 230 123
Width: 1990
VWidth: 0
Flags: HW
LayerCount: 2
Fore
SplineSet
1029 967 m 1
 1111 1104 1251 1188 1454 1188 c 0
 1701 1188 1915 996 1915 728 c 0
 1915 637 1842 636 1752 627 c 1
 1109 580 l 1
 1114 338 1256 174 1477 174 c 0
 1620 174 1692 243 1762 314 c 0
 1780 331 1799 340 1821 340 c 0
 1875 340 1918 305 1918 250 c 0
 1918 85 1650 -25 1477 -25 c 0
 1268 -25 1073 86 997 269 c 1
 924 54 712 -25 506 -25 c 0
 273 -25 88 88 88 307 c 0
 88 661 550 682 902 711 c 1
 902 915 861 1018 651 1018 c 0
 449 1018 428 897 246 897 c 0
 190 897 148 926 148 985 c 0
 148 1146 457 1188 623 1188 c 0
 850 1188 968 1123 1029 967 c 1
900 576 m 1
 673 552 303 546 303 313 c 0
 303 199 400 145 516 145 c 0
 882 145 900 432 900 540 c 2
 900 568 l 1
 900 576 l 1
1409 1018 m 0
 1246 1018 1105 915 1105 731 c 0
 1105 721 1105 715 1109 707 c 1
 1615 747 l 1
 1653 752 1689 758 1689 790 c 0
 1689 949 1566 1018 1409 1018 c 0
EndSplineSet
EndChar

StartChar: ampersand
Encoding: 6 38 126
Width: 1737
VWidth: 0
Flags: HW
LayerCount: 2
Fore
SplineSet
395 932 m 1
 319 1057 216 1207 216 1370 c 0
 216 1589 350 1741 562 1741 c 0
 787 1741 927 1586 927 1366 c 0
 927 1128 792 1014 645 912 c 1
 683 864 722 820 757 780 c 1
 861 653 980 531 1112 423 c 1
 1180 532 1221 664 1229 797 c 1
 1093 797 l 2
 1046 797 1019 837 1019 881 c 0
 1019 931 1040 973 1091 973 c 2
 1566 973 l 2
 1617 973 1637 931 1637 881 c 0
 1637 837 1611 797 1564 797 c 2
 1403 797 l 1
 1394 609 1330 448 1243 323 c 1
 1334 259 1430 202 1531 154 c 0
 1588 126 1652 125 1652 43 c 0
 1652 -20 1595 -53 1535 -53 c 0
 1510 -53 1490 -49 1472 -39 c 1
 1347 22 1226 93 1112 173 c 1
 993 64 829 -27 630 -27 c 0
 304 -27 87 191 87 510 c 0
 87 733 238 836 395 932 c 1
482 798 m 1
 403 737 314 662 314 528 c 0
 314 298 446 156 669 156 c 0
 790 156 895 200 981 271 c 1
 789 423 620 601 482 798 c 1
555 1034 m 1
 660 1110 740 1202 740 1356 c 0
 740 1463 681 1573 577 1573 c 0
 478 1573 433 1479 433 1382 c 0
 433 1257 486 1139 555 1034 c 1
EndSplineSet
EndChar

StartChar: asciicircum
Encoding: 62 94 129
Width: 1301
VWidth: 0
Flags: HW
LayerCount: 2
Fore
SplineSet
1124 639 m 0
 1124 602 1090 573 1054 573 c 0
 1023 573 1000 594 989 618 c 2
 690 1257 l 1
 364 623 l 1
 347 593 320 567 280 567 c 0
 230 567 184 606 184 657 c 0
 184 668 187 682 194 698 c 2
 546 1411 l 2
 571 1460 604 1511 661 1511 c 0
 714 1511 747 1461 767 1419 c 2
 1116 674 l 2
 1121 663 1124 651 1124 639 c 0
EndSplineSet
EndChar

StartChar: asciitilde
Encoding: 94 126 130
Width: 1338
VWidth: 0
Flags: HW
LayerCount: 2
Fore
SplineSet
159 1065 m 0
 159 1231 257 1350 379 1350 c 0
 619 1350 798 1168 884 1168 c 0
 1026 1168 1031 1330 1107 1330 c 0
 1146 1330 1181 1312 1181 1276 c 0
 1181 1109 1066 992 922 992 c 0
 727 992 538 1173 409 1173 c 0
 290 1173 290 1012 232 1012 c 0
 194 1012 159 1029 159 1065 c 0
EndSplineSet
EndChar

StartChar: asterisk
Encoding: 10 42 131
Width: 1649
VWidth: 0
Flags: HW
LayerCount: 2
Fore
SplineSet
1402 1104 m 1
 1462 1104 1492 1042 1492 983 c 0
 1492 924 1462 862 1402 862 c 1
 1040 905 l 1
 993 909 966 939 966 983 c 0
 966 1027 993 1057 1040 1061 c 1
 1402 1104 l 1
247 862 m 1
 187 862 157 924 157 983 c 0
 157 1042 187 1104 247 1104 c 1
 609 1061 l 1
 656 1057 683 1027 683 983 c 0
 683 939 656 909 609 905 c 1
 247 862 l 1
1226 504 m 0
 1226 435 1146 381 1078 381 c 0
 1043 381 1017 396 1005 422 c 2
 863 758 l 2
 858 770 855 783 855 797 c 0
 855 840 892 870 933 870 c 0
 965 870 982 857 999 834 c 2
 1216 541 l 1
 1223 527 1226 515 1226 504 c 0
423 1462 m 0
 423 1532 501 1585 571 1585 c 0
 605 1585 629 1571 644 1544 c 1
 786 1208 l 2
 791 1196 794 1183 794 1169 c 0
 794 1137 775 1119 755 1106 c 1
 734 1098 l 2
 727 1095 721 1094 714 1094 c 0
 691 1094 669 1107 650 1133 c 2
 433 1425 l 1
 426 1439 423 1451 423 1462 c 0
569 381 m 0
 498 381 421 434 421 504 c 0
 421 515 424 527 431 541 c 1
 648 834 l 2
 665 857 680 870 712 870 c 0
 754 870 792 840 792 797 c 0
 792 783 789 770 784 758 c 2
 642 422 l 1
 627 395 603 381 569 381 c 0
1076 1585 m 0
 1145 1585 1224 1529 1224 1462 c 0
 1224 1451 1221 1439 1214 1425 c 1
 997 1133 l 2
 978 1107 956 1094 931 1094 c 0
 890 1094 853 1127 853 1169 c 0
 853 1183 856 1196 861 1208 c 2
 1003 1544 l 2
 1015 1570 1041 1585 1076 1585 c 0
EndSplineSet
EndChar

StartChar: at
Encoding: 32 64 132
Width: 2267
VWidth: 0
Flags: HW
LayerCount: 2
Fore
SplineSet
1469 1208 m 1
 1489 1266 1527 1360 1602 1360 c 0
 1632 1360 1651 1366 1674 1366 c 0
 1681 1366 1684 1363 1684 1356 c 0
 1684 1309 1664 1270 1649 1208 c 2
 1504 580 l 2
 1499 562 1496 542 1496 520 c 0
 1496 426 1557 377 1659 377 c 0
 1950 377 2059 717 2059 1016 c 0
 2059 1467 1722 1737 1258 1737 c 0
 666 1737 224 1262 224 672 c 0
 224 154 630 -176 1147 -176 c 0
 1540 -176 1736 -22 1965 125 c 1
 1975 133 1986 137 2001 137 c 0
 2032 137 2065 109 2065 78 c 0
 2065 67 2061 55 2051 41 c 0
 1873 -186 1514 -326 1117 -326 c 0
 792 -326 530 -205 352 -44 c 0
 176 115 35 355 35 674 c 0
 35 909 105 1109 197 1269 c 0
 385 1598 724 1896 1231 1896 c 0
 1556 1896 1808 1772 1974 1609 c 0
 2113 1472 2235 1267 2235 1022 c 0
 2235 606 2052 238 1639 238 c 0
 1501 238 1422 314 1389 416 c 1
 1318 317 1203 217 1035 217 c 0
 767 217 621 405 621 674 c 0
 621 985 846 1315 1158 1315 c 0
 1290 1315 1395 1266 1469 1208 c 1
1197 1163 m 0
 934 1163 814 927 814 662 c 0
 814 515 896 377 1043 377 c 0
 1342 377 1373 650 1414 907 c 2
 1426 981 l 1
 1426 1083 1302 1163 1197 1163 c 0
EndSplineSet
EndChar

StartChar: b
Encoding: 66 98 134
Width: 1454
VWidth: 0
Flags: HW
PickledData: "(dp1
S'com.typemytype.robofont.layerData'
p2
(dp3
s."
LayerCount: 2
Fore
SplineSet
1103 582 m 0
 1103 814 989 1018 763 1018 c 0
 601 1018 488 965 407 881 c 1
 407 324 l 1
 478 221 590 145 753 145 c 0
 986 145 1103 347 1103 582 c 0
1324 582 m 0
 1324 227 1117 -25 767 -25 c 0
 602 -25 470 55 386 150 c 1
 386 68 367 -8 290 -8 c 0
 222 -8 202 51 202 117 c 2
 202 1524 l 1
 -34 1462 l 1
 -40 1462 -38 1460 -44 1460 c 0
 -86 1460 -124 1505 -124 1546 c 0
 -124 1603 -90 1613 -46 1626 c 2
 339 1737 l 2
 342 1738 346 1739 353 1739 c 0
 381 1739 407 1720 407 1690 c 2
 407 1035 l 1
 502 1127 606 1188 771 1188 c 0
 1112 1188 1324 929 1324 582 c 0
EndSplineSet
EndChar

StartChar: backslash
Encoding: 60 92 135
Width: 1176
VWidth: 0
Flags: HW
LayerCount: 2
Fore
SplineSet
-49 1804 m 0
 -49 1854 7 1890 54 1890 c 0
 81 1890 101 1877 115 1851 c 1
 1223 -463 l 2
 1228 -473 1231 -483 1231 -494 c 0
 1231 -542 1174 -580 1127 -580 c 0
 1092 -580 1074 -561 1059 -532 c 1
 -43 1776 l 2
 -47 1786 -49 1794 -49 1804 c 0
EndSplineSet
EndChar

StartChar: bar
Encoding: 92 124 136
Width: 778
VWidth: 0
Flags: HW
LayerCount: 2
Fore
SplineSet
394 1841 m 0
 443 1841 475 1815 480 1769 c 1
 480 -98 l 2
 480 -140 432 -164 392 -164 c 0
 340 -164 304 -142 304 -82 c 2
 304 1769 l 2
 304 1817 348 1841 394 1841 c 0
EndSplineSet
EndChar

StartChar: braceleft
Encoding: 91 123 137
Width: 1027
VWidth: 0
Flags: HW
LayerCount: 2
Fore
SplineSet
569 949 m 0
 569 860 544 749 386 720 c 1
 544 690 569 579 569 490 c 0
 569 301 482 78 482 -95 c 0
 482 -238 556 -341 844 -341 c 0
 899 -341 946 -387 946 -443 c 0
 946 -497 898 -546 844 -546 c 0
 372 -546 260 -361 260 -134 c 0
 260 76 352 321 352 491 c 0
 352 564 315 617 171 617 c 0
 116 617 69 663 69 719 c 2
 69 720 l 2
 69 776 116 822 171 822 c 0
 315 822 352 875 352 948 c 0
 352 1118 260 1363 260 1573 c 0
 260 1800 372 1985 844 1985 c 0
 898 1985 946 1936 946 1882 c 0
 946 1826 899 1780 844 1780 c 0
 556 1780 482 1677 482 1534 c 0
 482 1361 569 1138 569 949 c 0
EndSplineSet
EndChar

StartChar: braceright
Encoding: 93 125 138
Width: 1026
VWidth: 0
Flags: HW
LayerCount: 2
Fore
SplineSet
459 949 m 0
 459 1138 546 1361 546 1534 c 0
 546 1677 472 1780 184 1780 c 0
 129 1780 82 1826 82 1882 c 0
 82 1936 130 1985 184 1985 c 0
 656 1985 768 1800 768 1573 c 0
 768 1363 676 1118 676 948 c 0
 676 875 713 822 857 822 c 0
 912 822 959 776 959 720 c 2
 959 719 l 2
 959 663 912 617 857 617 c 0
 713 617 676 564 676 491 c 0
 676 321 768 76 768 -134 c 0
 768 -361 656 -546 184 -546 c 0
 130 -546 82 -497 82 -443 c 0
 82 -387 129 -341 184 -341 c 0
 472 -341 546 -238 546 -95 c 0
 546 78 459 301 459 490 c 0
 459 579 484 690 642 720 c 1
 484 749 459 860 459 949 c 0
EndSplineSet
EndChar

StartChar: bracketleft
Encoding: 59 91 139
Width: 908
VWidth: 0
Flags: HW
LayerCount: 2
Fore
SplineSet
275 -518 m 2
 220 -518 173 -476 173 -420 c 1
 213 778 l 1
 173 1976 l 1
 173 2030 221 2075 275 2075 c 2
 675 2075 l 2
 729 2075 777 2026 777 1972 c 0
 777 1916 730 1870 675 1870 c 2
 394 1870 l 1
 394 -313 l 1
 675 -313 l 2
 730 -313 777 -360 777 -416 c 0
 777 -470 729 -518 675 -518 c 2
 275 -518 l 2
EndSplineSet
EndChar

StartChar: bracketright
Encoding: 61 93 140
Width: 878
VWidth: 0
Flags: HW
LayerCount: 2
Fore
SplineSet
635 -518 m 2
 235 -518 l 2
 181 -518 133 -470 133 -416 c 0
 133 -360 180 -313 235 -313 c 2
 516 -313 l 1
 516 1870 l 1
 235 1870 l 2
 180 1870 133 1916 133 1972 c 0
 133 2026 181 2075 235 2075 c 2
 635 2075 l 2
 689 2075 737 2030 737 1976 c 1
 697 778 l 1
 737 -420 l 1
 737 -476 690 -518 635 -518 c 2
EndSplineSet
EndChar

StartChar: breve
Encoding: 361 728 141
Width: 654
VWidth: 0
Flags: HW
AnchorPoint: "top" 308 1220 mark 0
LayerCount: 2
Fore
SplineSet
88 1767 m 4
 134 1647 215 1587 296 1587 c 4
 377 1587 458 1647 504 1767 c 4
 510 1783 524 1788 537 1788 c 4
 563 1788 592 1763 592 1741 c 4
 592 1530 444 1424 296 1424 c 4
 148 1424 0 1530 0 1741 c 4
 0 1763 29 1788 55 1788 c 4
 68 1788 82 1783 88 1767 c 4
EndSplineSet
EndChar

StartChar: brokenbar
Encoding: 100 166 142
Width: 778
VWidth: 0
Flags: HW
LayerCount: 2
Fore
SplineSet
402 714 m 0
 451 714 483 688 488 642 c 1
 488 -98 l 2
 488 -140 440 -164 400 -164 c 0
 348 -164 312 -142 312 -82 c 2
 312 642 l 2
 312 690 356 714 402 714 c 0
402 1891 m 0
 451 1891 483 1865 488 1819 c 1
 488 1079 l 2
 488 1037 440 1013 400 1013 c 0
 348 1013 312 1035 312 1095 c 2
 312 1819 l 2
 312 1867 356 1891 402 1891 c 0
EndSplineSet
EndChar

StartChar: bullet
Encoding: 403 8226 143
Width: 1143
VWidth: 0
Flags: HW
LayerCount: 2
Fore
SplineSet
551 289 m 0
 334 289 193 427 193 643 c 0
 193 860 335 997 551 997 c 0
 761 997 898 853 898 643 c 0
 898 432 760 289 551 289 c 0
EndSplineSet
EndChar

StartChar: c
Encoding: 67 99 144
Width: 1282
VWidth: 0
Flags: HW
PickledData: "(dp1
S'com.typemytype.robofont.layerData'
p2
(dp3
s."
AnchorPoint: "top" 757 1133 basechar 0
LayerCount: 2
Fore
SplineSet
750 1188 m 0
 953 1188 1180 1128 1180 878 c 0
 1180 799 1151 738 1083 738 c 0
 983 738 973 886 947 993 c 1
 882 1010 818 1018 757 1018 c 0
 499 1018 304 860 304 596 c 0
 304 310 503 174 722 174 c 0
 836 174 955 217 1050 302 c 0
 1069 318 1090 328 1113 328 c 0
 1168 328 1209 299 1209 250 c 0
 1209 78 909 -25 734 -25 c 0
 350 -25 82 207 82 596 c 0
 82 977 389 1188 750 1188 c 0
EndSplineSet
EndChar

StartChar: caron
Encoding: 360 711 146
Width: 654
VWidth: 0
Flags: HW
AnchorPoint: "top" 299 1220 mark 0
LayerCount: 2
Fore
SplineSet
296 1433 m 0
 277 1433 258 1439 250 1450 c 2
 -20 1864 l 1
 -27 1872 -30 1881 -30 1889 c 0
 -30 1913 -3 1932 24 1932 c 0
 36 1932 50 1930 58 1919 c 2
 296 1613 l 1
 534 1919 l 2
 542 1930 556 1932 568 1932 c 0
 595 1932 622 1913 622 1889 c 0
 622 1881 619 1872 612 1864 c 1
 342 1450 l 2
 334 1439 315 1433 296 1433 c 0
EndSplineSet
EndChar

StartChar: cedilla
Encoding: 118 184 151
Width: 354
VWidth: 0
Flags: HW
LayerCount: 2
Fore
SplineSet
264 0 m 1
 204 -501 l 1
 196 -619 127 -675 62 -675 c 0
 4 -675 -50 -629 -50 -538 c 0
 -50 -472 106 -49 136 0 c 1
 264 0 l 1
EndSplineSet
EndChar

StartChar: cent
Encoding: 96 162 152
Width: 1295
VWidth: 0
Flags: HW
LayerCount: 2
Fore
SplineSet
723 1623 m 0
 762 1623 791 1603 791 1566 c 2
 791 1328 l 1
 986 1322 1192 1256 1192 1018 c 0
 1192 939 1163 878 1095 878 c 0
 995 878 985 1026 959 1133 c 1
 902 1148 845 1156 791 1158 c 1
 791 317 l 1
 886 329 983 371 1062 442 c 0
 1081 458 1102 468 1125 468 c 0
 1180 468 1221 439 1221 390 c 0
 1221 232 967 132 791 117 c 1
 791 -113 l 2
 791 -152 757 -172 724 -172 c 0
 689 -172 655 -151 655 -104 c 2
 655 120 l 1
 320 154 94 379 94 736 c 0
 94 1079 342 1284 655 1322 c 1
 655 1566 l 2
 655 1604 688 1623 723 1623 c 0
655 1147 m 1
 455 1107 316 959 316 736 c 0
 316 485 469 350 655 320 c 1
 655 1147 l 1
EndSplineSet
EndChar

StartChar: circumflex
Encoding: 359 710 153
Width: 654
VWidth: 0
Flags: HW
AnchorPoint: "top" 305 1220 mark 0
LayerCount: 2
Fore
SplineSet
296 1932 m 0
 315 1932 334 1926 342 1915 c 2
 612 1501 l 1
 619 1493 622 1484 622 1476 c 0
 622 1452 595 1433 568 1433 c 0
 556 1433 542 1435 534 1446 c 2
 296 1752 l 1
 58 1446 l 2
 50 1435 36 1433 24 1433 c 0
 -3 1433 -30 1452 -30 1476 c 0
 -30 1484 -27 1493 -20 1501 c 1
 250 1915 l 2
 258 1926 277 1932 296 1932 c 0
EndSplineSet
EndChar

StartChar: ck
Encoding: 65536 -1 154
Width: 2636
VWidth: 0
Flags: HW
LayerCount: 2
Fore
SplineSet
1553 1739 m 0
 1581 1739 1606 1720 1606 1690 c 2
 1606 649 l 1
 1761 754 1918 858 2069 957 c 1
 1983 957 l 2
 1931 957 1907 997 1907 1047 c 0
 1907 1098 1933 1133 1989 1133 c 2
 2452 1133 l 2
 2499 1133 2526 1094 2526 1050 c 0
 2526 1000 2505 957 2454 957 c 2
 2343 957 l 2
 2290 957 2254 919 2218 894 c 2
 1938 692 l 1
 2218 291 l 2
 2289 190 2342 188 2470 188 c 2
 2485 188 l 2
 2574 188 2601 173 2601 96 c 0
 2601 17 2552 0 2462 0 c 2
 2026 0 l 2
 1975 0 1950 40 1950 90 c 0
 1950 141 1975 176 2032 176 c 2
 2091 176 l 1
 1790 608 l 1
 1606 496 l 1
 1606 176 l 1
 1758 176 l 2
 1809 176 1829 134 1829 84 c 0
 1829 40 1803 0 1756 0 c 2
 1252 0 l 2
 1196 0 1170 35 1170 86 c 0
 1170 135 1194 176 1246 176 c 2
 1401 176 l 1
 1401 1524 l 1
 1166 1462 l 1
 1160 1462 1161 1460 1155 1460 c 0
 1113 1460 1076 1505 1076 1546 c 0
 1076 1603 1109 1613 1153 1626 c 2
 1538 1737 l 2
 1541 1738 1546 1739 1553 1739 c 0
763 1188 m 0
 966 1188 1193 1128 1193 878 c 0
 1193 799 1164 738 1096 738 c 0
 996 738 986 886 960 993 c 1
 895 1010 831 1018 770 1018 c 0
 512 1018 317 860 317 596 c 0
 317 310 516 174 735 174 c 0
 849 174 968 217 1063 302 c 0
 1082 318 1103 328 1126 328 c 0
 1181 328 1222 299 1222 250 c 0
 1222 78 922 -25 747 -25 c 0
 363 -25 95 207 95 596 c 0
 95 977 402 1188 763 1188 c 0
EndSplineSet
EndChar

StartChar: colon
Encoding: 26 58 155
Width: 725
VWidth: 0
Flags: HW
LayerCount: 2
Fore
SplineSet
362 -70 m 0
 237 -70 147 21 147 145 c 0
 147 269 239 360 362 360 c 0
 485 360 577 267 577 145 c 0
 577 21 485 -70 362 -70 c 0
362 760 m 0
 237 760 147 851 147 975 c 0
 147 1099 239 1190 362 1190 c 0
 485 1190 577 1097 577 975 c 0
 577 851 485 760 362 760 c 0
EndSplineSet
EndChar

StartChar: comma
Encoding: 12 44 156
Width: 714
VWidth: 0
Flags: HW
LayerCount: 2
Fore
SplineSet
353 280 m 0
 463 280 558 206 558 58 c 0
 558 -153 435 -287 284 -363 c 0
 268 -372 251 -376 237 -376 c 0
 194 -376 162 -343 162 -308 c 0
 162 -290 171 -271 193 -256 c 0
 270 -205 371 -139 371 -25 c 1
 263 -25 183 23 183 125 c 0
 183 228 265 280 353 280 c 0
EndSplineSet
EndChar

StartChar: copyright
Encoding: 103 169 157
Width: 2128
VWidth: 0
Flags: HW
LayerCount: 2
Fore
SplineSet
1961 850 m 0
 1961 319 1593 -25 1064 -25 c 0
 535 -25 167 319 167 850 c 0
 167 1382 534 1739 1064 1739 c 0
 1594 1739 1961 1382 1961 850 c 0
1070 469 m 0
 1236 469 1359 562 1359 731 c 0
 1359 763 1397 774 1432 774 c 0
 1461 774 1504 759 1504 729 c 2
 1504 508 l 2
 1504 487 1503 480 1486 473 c 1
 1387 387 1246 319 1070 319 c 0
 750 319 537 537 537 858 c 0
 537 1181 750 1405 1070 1405 c 0
 1185 1405 1271 1367 1338 1307 c 1
 1338 1348 l 2
 1338 1380 1378 1391 1412 1391 c 0
 1440 1391 1484 1376 1484 1348 c 2
 1484 1083 l 2
 1484 1053 1441 1040 1412 1040 c 0
 1376 1040 1361 1079 1342 1106 c 1
 1284 1195 1199 1262 1070 1262 c 0
 849 1262 726 1080 726 858 c 0
 726 639 853 469 1070 469 c 0
333 854 m 0
 333 417 619 123 1064 123 c 0
 1509 123 1795 417 1795 854 c 0
 1795 1289 1507 1591 1064 1591 c 0
 621 1591 333 1289 333 854 c 0
EndSplineSet
EndChar

StartChar: ct
Encoding: 65537 -1 158
Width: 2109
VWidth: 0
Flags: HW
LayerCount: 2
Fore
SplineSet
1772 134 m 0
 1901 134 1905 242 1981 242 c 0
 2023 242 2053 208 2053 166 c 0
 2053 47 1873 -27 1738 -27 c 0
 1581 -27 1445 100 1445 248 c 2
 1445 956 l 1
 1295 956 l 2
 1239 956 1213 991 1213 1042 c 0
 1213 1091 1237 1133 1289 1133 c 2
 1445 1133 l 1
 1445 1255 1448 1528 1563 1528 c 0
 1596 1528 1619 1520 1643 1503 c 1
 1643 1483 l 2
 1643 1465 1645 1442 1645 1424 c 2
 1645 1133 l 1
 1907 1133 l 2
 1958 1133 1979 1090 1979 1040 c 0
 1979 996 1952 956 1905 956 c 2
 1645 956 l 1
 1645 279 l 2
 1645 174 1698 134 1772 134 c 0
762 1188 m 0
 965 1188 1192 1128 1192 878 c 0
 1192 799 1163 738 1095 738 c 0
 995 738 985 886 959 993 c 1
 894 1010 830 1018 769 1018 c 0
 511 1018 316 860 316 596 c 0
 316 310 515 174 734 174 c 0
 848 174 967 217 1062 302 c 0
 1081 318 1102 328 1125 328 c 0
 1180 328 1221 299 1221 250 c 0
 1221 78 921 -25 746 -25 c 0
 362 -25 94 207 94 596 c 0
 94 977 401 1188 762 1188 c 0
EndSplineSet
EndChar

StartChar: currency
Encoding: 98 164 159
Width: 1128
VWidth: 0
Flags: HW
LayerCount: 2
Fore
SplineSet
885 1108 m 0
 924 1108 959 1073 959 1035 c 0
 959 1016 951 998 937 983 c 2
 667 714 l 1
 937 444 l 2
 951 430 959 411 959 393 c 0
 959 354 924 319 885 319 c 0
 866 319 847 327 833 341 c 2
 564 610 l 1
 295 341 l 2
 280 327 262 319 243 319 c 0
 204 319 169 354 169 393 c 0
 169 411 176 430 191 444 c 2
 460 714 l 1
 191 983 l 2
 176 998 169 1016 169 1035 c 0
 169 1073 204 1108 243 1108 c 0
 262 1108 280 1101 295 1086 c 2
 564 817 l 1
 833 1086 l 2
 847 1101 866 1108 885 1108 c 0
EndSplineSet
EndChar

StartChar: d
Encoding: 68 100 160
Width: 1505
VWidth: 0
Flags: HW
PickledData: "(dp1
S'com.typemytype.robofont.layerData'
p2
(dp3
s."
LayerCount: 2
Fore
SplineSet
333 582 m 0
 333 349 451 145 683 145 c 0
 842 145 958 224 1029 324 c 1
 1029 881 l 1
 945 967 829 1018 673 1018 c 0
 447 1018 333 808 333 582 c 0
111 582 m 0
 111 924 323 1188 664 1188 c 0
 823 1188 933 1132 1029 1055 c 1
 1029 1524 l 1
 793 1462 l 1
 787 1462 789 1460 783 1460 c 0
 741 1460 703 1505 703 1546 c 0
 703 1603 737 1613 781 1626 c 2
 1166 1737 l 2
 1169 1738 1174 1739 1181 1739 c 0
 1209 1739 1234 1720 1234 1690 c 2
 1234 176 l 1
 1379 197 l 2
 1386 198 1395 199 1406 199 c 0
 1459 199 1494 172 1494 125 c 0
 1494 16 1341 22 1254 12 c 1
 1202 4 1129 -10 1086 -10 c 0
 1039 -10 1029 32 1029 78 c 2
 1029 150 l 1
 953 58 826 -25 669 -25 c 0
 316 -25 111 231 111 582 c 0
EndSplineSet
EndChar

StartChar: dagger
Encoding: 401 8224 161
Width: 1237
VWidth: 0
Flags: HW
LayerCount: 2
Fore
SplineSet
1023 1255 m 2
 1067 1255 1103 1219 1103 1175 c 0
 1103 1131 1067 1094 1023 1094 c 2
 695 1094 l 1
 695 -98 l 2
 695 -140 647 -164 607 -164 c 0
 555 -164 519 -142 519 -82 c 2
 519 1094 l 1
 213 1094 l 2
 169 1094 133 1131 133 1175 c 0
 133 1219 169 1255 213 1255 c 2
 519 1255 l 1
 519 1769 l 2
 519 1817 563 1841 609 1841 c 0
 658 1841 690 1815 695 1769 c 1
 695 1255 l 1
 1023 1255 l 2
EndSplineSet
EndChar

StartChar: daggerdbl
Encoding: 402 8225 162
Width: 1237
VWidth: 0
Flags: HW
LayerCount: 2
Fore
SplineSet
963 1255 m 2
 1007 1255 1043 1219 1043 1175 c 0
 1043 1131 1007 1094 963 1094 c 2
 695 1094 l 1
 695 538 l 1
 963 538 l 2
 1007 538 1043 501 1043 457 c 0
 1043 413 1007 377 963 377 c 2
 695 377 l 1
 695 -98 l 2
 695 -140 647 -164 607 -164 c 0
 555 -164 519 -142 519 -82 c 2
 519 377 l 1
 273 377 l 2
 229 377 193 413 193 457 c 0
 193 501 229 538 273 538 c 2
 519 538 l 1
 519 1094 l 1
 273 1094 l 2
 229 1094 193 1131 193 1175 c 0
 193 1219 229 1255 273 1255 c 2
 519 1255 l 1
 519 1769 l 2
 519 1817 563 1841 609 1841 c 0
 658 1841 690 1815 695 1769 c 1
 695 1255 l 1
 963 1255 l 2
EndSplineSet
EndChar

StartChar: dcroat
Encoding: 207 273 164
Width: 1516
VWidth: 0
Flags: HW
LayerCount: 2
Fore
SplineSet
311 582 m 0
 311 349 429 145 661 145 c 0
 820 145 936 224 1007 324 c 1
 1007 881 l 1
 923 967 807 1018 651 1018 c 0
 425 1018 311 808 311 582 c 0
1344 1438 m 2
 1392 1438 1416 1400 1416 1362 c 0
 1416 1323 1391 1283 1342 1283 c 2
 1212 1283 l 1
 1212 176 l 1
 1357 197 l 2
 1364 198 1373 199 1384 199 c 0
 1437 199 1472 172 1472 125 c 0
 1472 16 1319 22 1232 12 c 1
 1180 4 1107 -10 1064 -10 c 0
 1017 -10 1007 32 1007 78 c 2
 1007 150 l 1
 931 58 804 -25 647 -25 c 0
 294 -25 89 231 89 582 c 0
 89 924 301 1188 642 1188 c 0
 801 1188 911 1132 1007 1055 c 1
 1007 1283 l 1
 708 1283 l 2
 652 1283 625 1323 625 1362 c 0
 625 1400 651 1438 702 1438 c 2
 1007 1438 l 1
 1007 1560 l 1
 795 1560 l 2
 739 1560 712 1600 712 1639 c 0
 712 1677 738 1715 789 1715 c 2
 1141 1715 l 2
 1189 1715 1213 1677 1213 1639 c 0
 1213 1635 1212 1630 1212 1626 c 2
 1212 1438 l 1
 1344 1438 l 2
EndSplineSet
EndChar

StartChar: degree
Encoding: 110 176 165
Width: 1195
VWidth: 0
Flags: HW
LayerCount: 2
Fore
SplineSet
603 1642 m 0
 845 1642 965 1461 965 1278 c 0
 965 1097 839 912 596 912 c 0
 353 912 230 1091 230 1271 c 0
 230 1456 359 1642 603 1642 c 0
608 1052 m 0
 745 1052 810 1154 810 1274 c 0
 810 1394 742 1500 602 1500 c 0
 462 1500 394 1394 394 1274 c 0
 394 1155 473 1052 608 1052 c 0
EndSplineSet
EndChar

StartChar: dieresis
Encoding: 102 168 166
Width: 886
VWidth: 0
Flags: HW
AnchorPoint: "top" 445 1220 mark 0
LayerCount: 2
Fore
SplineSet
199 1432 m 0
 126 1432 65 1492 65 1565 c 0
 65 1638 126 1698 199 1698 c 0
 272 1698 332 1638 332 1565 c 0
 332 1492 272 1432 199 1432 c 0
690 1432 m 0
 617 1432 557 1492 557 1565 c 0
 557 1638 617 1698 690 1698 c 0
 763 1698 823 1638 823 1565 c 0
 823 1492 763 1432 690 1432 c 0
EndSplineSet
EndChar

StartChar: divide
Encoding: 181 247 167
Width: 996
VWidth: 0
Flags: HW
LayerCount: 2
Fore
SplineSet
25 809 m 0
 25 864 71 911 127 911 c 2
 869 911 l 2
 925 911 971 864 971 809 c 0
 971 752 926 706 869 706 c 2
 127 706 l 2
 70 706 25 752 25 809 c 0
494 314 m 0
 409 314 347 376 347 460 c 0
 347 544 410 606 494 606 c 0
 578 606 640 543 640 460 c 0
 640 376 578 314 494 314 c 0
494 1012 m 0
 409 1012 347 1074 347 1158 c 0
 347 1242 410 1304 494 1304 c 0
 578 1304 640 1241 640 1158 c 0
 640 1074 578 1012 494 1012 c 0
EndSplineSet
EndChar

StartChar: dollar
Encoding: 4 36 168
Width: 1630
VWidth: 0
Flags: HW
LayerCount: 2
Fore
SplineSet
900 1580 m 1
 900 997 l 1
 1023 967 l 1
 1287 901 1468 775 1468 458 c 0
 1468 146 1208 3 900 -23 c 1
 900 -144 l 2
 900 -180 870 -210 834 -210 c 0
 798 -210 768 -180 768 -144 c 2
 768 -27 l 1
 636 -24 511 0 392 45 c 1
 387 -1 346 -25 300 -25 c 0
 252 -25 221 -6 216 39 c 2
 159 535 l 1
 159 588 191 614 255 614 c 0
 295 614 330 589 335 549 c 2
 351 410 l 1
 374 227 562 151 768 150 c 1
 768 794 l 1
 660 825 l 1
 420 879 246 1001 246 1271 c 0
 246 1545 474 1716 768 1737 c 1
 768 1854 l 2
 768 1890 798 1920 834 1920 c 0
 870 1920 900 1890 900 1854 c 2
 900 1736 l 1
 1017 1728 1132 1699 1205 1657 c 1
 1205 1713 1244 1743 1299 1743 c 0
 1339 1743 1374 1717 1379 1677 c 1
 1410 1309 l 1
 1410 1251 1371 1227 1318 1227 c 0
 1271 1227 1239 1246 1234 1290 c 2
 1226 1372 l 1
 1209 1513 1058 1572 900 1580 c 1
900 757 m 1
 900 157 l 1
 1088 178 1263 255 1263 459 c 0
 1263 640 1138 689 988 732 c 2
 900 757 l 1
768 1030 m 1
 768 1576 l 1
 526 1551 467 1423 467 1287 c 0
 467 1157 557 1082 736 1038 c 2
 768 1030 l 1
EndSplineSet
EndChar

StartChar: dotaccent
Encoding: 362 729 169
Width: 322
VWidth: 0
Flags: HW
AnchorPoint: "top" 152 -2.80005 mark 0
LayerCount: 2
Fore
SplineSet
306 396 m 4
 306 319 246 240 157 240 c 4
 60 240 7 319 7 396 c 4
 7 469 55 541 159 541 c 4
 251 541 306 470 306 396 c 4
EndSplineSet
EndChar

StartChar: dotlessi
Encoding: 239 305 170
Width: 732
VWidth: 0
Flags: HW
LayerCount: 2
Fore
SplineSet
60 86 m 0
 60 135 84 176 136 176 c 2
 273 176 l 1
 273 928 l 1
 129 889 l 2
 126 888 122 887 115 887 c 0
 75 887 33 926 33 967 c 0
 33 1010 53 1041 91 1051 c 2
 410 1130 l 2
 414 1131 419 1133 426 1133 c 0
 456 1133 478 1115 478 1085 c 2
 478 176 l 1
 631 176 l 2
 682 176 703 134 703 84 c 0
 703 40 676 0 629 0 c 2
 142 0 l 2
 86 0 60 35 60 86 c 0
EndSplineSet
EndChar

StartChar: e
Encoding: 69 101 171
Width: 1304
VWidth: 0
Flags: HW
AnchorPoint: "top" 675 1133 basechar 0
LayerCount: 2
Fore
SplineSet
283 559 m 1
 283 297 467 158 707 158 c 0
 877 158 957 232 1045 314 c 1
 1065 331 1088 340 1111 340 c 0
 1165 340 1207 305 1207 250 c 0
 1207 79 883 -25 699 -25 c 0
 332 -25 70 207 70 575 c 0
 70 939 301 1188 675 1188 c 0
 943 1188 1205 985 1205 692 c 0
 1205 592 1136 590 1041 580 c 1
 283 559 l 1
954 756 m 0
 954 947 815 1018 675 1018 c 0
 439 1018 296 893 279 700 c 1
 880 713 l 1
 917 715 954 725 954 756 c 0
EndSplineSet
EndChar

StartChar: eight
Encoding: 24 56 179
Width: 1316
VWidth: 0
Flags: HW
LayerCount: 2
Fore
SplineSet
627 1737 m 0
 895 1737 1145 1600 1145 1337 c 0
 1145 1107 983 978 829 901 c 1
 1019 800 1216 703 1216 418 c 0
 1216 110 968 -25 661 -25 c 0
 337 -25 100 119 100 442 c 0
 100 677 251 805 407 883 c 1
 247 981 137 1084 137 1313 c 0
 137 1578 355 1737 627 1737 c 0
668 145 m 0
 859 145 1012 236 1012 418 c 0
 1012 673 715 713 549 805 c 1
 412 727 301 616 301 430 c 0
 301 231 469 145 668 145 c 0
639 1581 m 0
 471 1581 336 1492 336 1327 c 0
 336 1126 547 1039 688 973 c 1
 830 1042 940 1146 940 1325 c 0
 940 1499 809 1581 639 1581 c 0
EndSplineSet
EndChar

StartChar: emdash
Encoding: 394 8212 182
Width: 1449
VWidth: 0
Flags: HW
LayerCount: 2
Fore
SplineSet
1340 781 m 2
 1398 781 1446 733 1446 675 c 0
 1446 616 1398 569 1340 569 c 2
 105 569 l 2
 46 569 -1 616 -1 675 c 0
 -1 733 46 781 105 781 c 2
 1340 781 l 2
EndSplineSet
EndChar

StartChar: endash
Encoding: 393 8211 183
Width: 1237
VWidth: 0
Flags: HW
LayerCount: 2
Fore
SplineSet
1072 781 m 2
 1130 781 1178 733 1178 675 c 0
 1178 616 1130 569 1072 569 c 2
 165 569 l 2
 106 569 59 616 59 675 c 0
 59 733 106 781 165 781 c 2
 1072 781 l 2
EndSplineSet
EndChar

StartChar: eng
Encoding: 265 331 184
Width: 1415
VWidth: 0
Flags: HW
LayerCount: 2
Fore
SplineSet
1111 118 m 2
 1111 762 l 2
 1111 922 1031 1018 869 1018 c 0
 690 1018 494 886 494 707 c 2
 494 176 l 1
 640 176 l 2
 691 176 711 134 711 84 c 0
 711 40 685 0 638 0 c 2
 171 0 l 2
 115 0 89 35 89 86 c 0
 89 135 113 176 165 176 c 2
 289 176 l 1
 289 979 l 1
 146 944 l 2
 143 943 139 942 132 942 c 0
 92 942 50 981 50 1022 c 0
 50 1067 69 1094 107 1106 c 1
 386 1186 l 1
 392 1186 390 1188 396 1188 c 2
 402 1188 l 2
 430 1188 453 1170 453 1141 c 1
 474 952 l 1
 542 1075 718 1188 906 1188 c 0
 1156 1188 1313 1032 1313 780 c 2
 1313 118 l 2
 1313 -182 1227 -481 875 -481 c 0
 724 -481 602 -429 602 -263 c 0
 602 -186 620 -142 698 -142 c 0
 753 -142 787 -178 787 -240 c 1
 805 -284 763 -312 886 -312 c 0
 1064 -312 1111 -119 1111 118 c 2
EndSplineSet
EndChar

StartChar: equal
Encoding: 29 61 186
Width: 1237
VWidth: 0
Flags: HW
LayerCount: 2
Fore
SplineSet
1072 213 m 2
 1130 213 1178 165 1178 107 c 0
 1178 48 1130 1 1072 1 c 2
 165 1 l 2
 106 1 59 48 59 107 c 0
 59 165 106 213 165 213 c 2
 1072 213 l 2
1072 736 m 2
 1130 736 1178 688 1178 630 c 0
 1178 571 1130 524 1072 524 c 2
 165 524 l 2
 106 524 59 571 59 630 c 0
 59 688 106 736 165 736 c 2
 1072 736 l 2
EndSplineSet
EndChar

StartChar: eth
Encoding: 174 240 187
Width: 1378
VWidth: 0
Flags: HW
LayerCount: 2
Fore
SplineSet
668 149 m 0
 914 149 1053 326 1053 575 c 0
 1053 832 913 1005 676 1005 c 0
 429 1005 283 834 283 575 c 0
 283 327 420 149 668 149 c 0
526 1885 m 0
 634 1885 749 1760 814 1704 c 1
 967 1827 l 2
 990 1845 1012 1852 1031 1852 c 0
 1077 1852 1111 1812 1111 1770 c 0
 1111 1746 1100 1721 1073 1702 c 2
 924 1599 l 1
 1150 1364 1297 1065 1297 690 c 0
 1297 262 1098 -22 668 -22 c 0
 304 -22 67 214 67 580 c 0
 67 945 304 1188 666 1188 c 0
 803 1188 912 1122 997 1044 c 1
 962 1214 870 1359 756 1483 c 1
 585 1365 l 2
 574 1358 563 1354 552 1354 c 0
 521 1354 492 1381 492 1413 c 0
 492 1431 501 1452 524 1470 c 2
 660 1580 l 1
 599 1636 448 1730 448 1822 c 0
 448 1863 483 1885 526 1885 c 0
EndSplineSet
EndChar

StartChar: exclam
Encoding: 1 33 188
Width: 728
VWidth: 0
Flags: HW
LayerCount: 2
Fore
SplineSet
502 1587 m 0
 502 1249 428 917 428 557 c 0
 428 523 400 496 367 496 c 0
 333 496 305 523 305 557 c 0
 305 920 231 1249 231 1591 c 0
 231 1685 288 1739 367 1739 c 0
 448 1739 502 1685 502 1587 c 0
365 -25 m 0
 265 -25 188 52 188 152 c 0
 188 252 265 328 365 328 c 0
 465 328 541 252 541 152 c 0
 541 52 465 -25 365 -25 c 0
EndSplineSet
EndChar

StartChar: exclamdown
Encoding: 95 161 189
Width: 728
VWidth: 0
Flags: HW
LayerCount: 2
Fore
SplineSet
502 127 m 0
 502 29 448 -25 367 -25 c 0
 288 -25 231 29 231 123 c 0
 231 465 305 794 305 1157 c 0
 305 1191 333 1219 367 1219 c 0
 400 1219 428 1191 428 1157 c 0
 428 797 502 465 502 127 c 0
365 1739 m 0
 465 1739 541 1662 541 1562 c 0
 541 1462 465 1386 365 1386 c 0
 265 1386 188 1462 188 1562 c 0
 188 1662 265 1739 365 1739 c 0
EndSplineSet
EndChar

StartChar: f
Encoding: 70 102 190
Width: 1042
VWidth: 0
Flags: HW
LayerCount: 2
Fore
SplineSet
926 1411 m 0
 877 1411 835 1435 835 1487 c 2
 835 1556 l 1
 622 1537 562 1449 562 1231 c 0
 562 1218 563 1205 563 1191 c 2
 565 1122 l 1
 784 1122 l 2
 835 1122 856 1080 856 1030 c 0
 856 986 829 946 782 946 c 2
 563 946 l 1
 565 176 l 1
 817 176 l 2
 868 176 889 134 889 84 c 0
 889 40 862 0 815 0 c 2
 145 0 l 2
 89 0 63 35 63 86 c 0
 63 135 87 176 139 176 c 2
 360 176 l 1
 360 946 l 1
 182 946 l 2
 126 946 100 981 100 1032 c 0
 100 1081 124 1122 176 1122 c 2
 360 1122 l 1
 360 1227 l 2
 360 1580 569 1739 928 1739 c 0
 972 1739 1012 1712 1012 1665 c 2
 1012 1493 l 2
 1012 1437 977 1411 926 1411 c 0
EndSplineSet
EndChar

StartChar: five
Encoding: 21 53 191
Width: 1264
VWidth: 0
Flags: HW
LayerCount: 2
Fore
SplineSet
1042 1746 m 0
 1042 1660 1011 1516 930 1516 c 2
 441 1516 l 2
 392 1516 373 1447 371 1416 c 2
 345 949 l 1
 401 1019 526 1071 643 1071 c 0
 957 1071 1155 893 1155 580 c 0
 1155 183 823 -78 426 -78 c 0
 285 -78 88 -50 88 90 c 0
 88 152 125 205 188 205 c 0
 325 205 399 117 539 117 c 0
 754 117 938 269 938 535 c 0
 938 709 855 848 605 848 c 0
 414 848 348 729 242 729 c 0
 220 729 197 734 170 746 c 1
 229 1626 l 1
 229 1713 332 1714 428 1714 c 2
 872 1712 l 1
 897 1769 942 1801 977 1801 c 0
 1013 1801 1042 1784 1042 1746 c 0
EndSplineSet
EndChar

StartChar: florin
Encoding: 315 402 192
Width: 1042
VWidth: 0
Flags: HW
LayerCount: 2
Fore
SplineSet
360 946 m 1
 182 946 l 2
 126 946 100 981 100 1032 c 0
 100 1081 124 1122 176 1122 c 2
 360 1122 l 1
 360 1227 l 2
 360 1580 569 1739 928 1739 c 0
 972 1739 1012 1712 1012 1665 c 2
 1012 1493 l 2
 1012 1437 977 1411 926 1411 c 0
 877 1411 835 1435 835 1487 c 2
 835 1556 l 1
 622 1537 562 1449 562 1231 c 0
 562 1218 563 1205 563 1191 c 2
 565 1122 l 1
 784 1122 l 2
 835 1122 856 1080 856 1030 c 0
 856 986 829 946 782 946 c 2
 563 946 l 1
 565 71 l 2
 565 -282 404 -441 117 -441 c 0
 73 -441 33 -414 33 -367 c 2
 33 -195 l 2
 33 -139 68 -113 119 -113 c 0
 168 -113 210 -137 210 -189 c 2
 210 -258 l 1
 327 -239 363 -151 363 67 c 0
 363 80 362 93 360 946 c 1
EndSplineSet
EndChar

StartChar: foundryicon
Encoding: 65538 -1 193
Width: 1275
VWidth: 0
Flags: HW
LayerCount: 2
Fore
SplineSet
608 375 m 1
 399 202 290 115 282 115 c 0
 259 115 247 124 247 141 c 0
 247 156 257 171 262 186 c 2
 380 542 l 1
 176 703 70 786 55 799 c 0
 41 811 34 825 34 840 c 0
 34 860 47 870 73 870 c 0
 74 870 212 860 485 840 c 1
 554 1007 594 1105 605 1134 c 0
 626 1194 646 1235 682 1235 c 0
 701 1235 731 1204 731 1188 c 1
 794 848 l 1
 1187 848 l 2
 1223 848 1241 834 1241 807 c 0
 1241 802 1234 795 1221 786 c 0
 1208 777 1100 689 897 522 c 1
 961 259 991 122 991 106 c 0
 991 86 978 72 958 72 c 0
 947 72 830 173 608 375 c 1
EndSplineSet
EndChar

StartChar: four
Encoding: 20 52 194
Width: 1484
VWidth: 0
Flags: HW
LayerCount: 2
Fore
SplineSet
850 1376 m 1
 319 713 l 1
 850 713 l 1
 850 1376 l 1
1351 117 m 0
 1351 76 1326 34 1281 34 c 2
 578 34 l 2
 533 34 508 76 508 117 c 0
 508 166 528 204 577 204 c 2
 850 204 l 1
 850 562 l 1
 157 562 l 2
 117 562 94 598 94 634 c 0
 94 662 102 686 115 699 c 1
 388 1039 664 1373 941 1708 c 0
 951 1721 997 1730 1014 1730 c 0
 1055 1730 1051 1688 1051 1647 c 2
 1051 713 l 1
 1347 713 l 2
 1392 713 1408 679 1408 634 c 0
 1408 598 1384 562 1344 562 c 2
 1051 562 l 1
 1051 204 l 1
 1283 204 l 2
 1332 204 1351 166 1351 117 c 0
EndSplineSet
EndChar

StartChar: fraction
Encoding: 408 8260 195
Width: 1408
VWidth: 0
Flags: HW
LayerCount: 2
Fore
SplineSet
170 -580 m 0
 123 -580 65 -542 65 -494 c 0
 65 -483 68 -473 73 -463 c 2
 1181 1851 l 1
 1192 1877 1213 1890 1243 1890 c 0
 1289 1890 1345 1854 1345 1804 c 0
 1345 1794 1343 1786 1339 1776 c 2
 237 -532 l 1
 222 -561 205 -580 170 -580 c 0
EndSplineSet
EndChar

StartChar: g
Encoding: 71 103 196
Width: 1371
VWidth: 0
Flags: HW
AnchorPoint: "top" 600 1133 basechar 0
LayerCount: 2
Fore
SplineSet
96 776 m 0
 96 1039 325 1188 596 1188 c 0
 750 1188 876 1145 964 1075 c 1
 1100 1208 l 2
 1160 1268 1229 1276 1282 1276 c 0
 1346 1276 1407 1255 1407 1188 c 0
 1407 1141 1357 1092 1221 1092 c 2
 1220 1092 l 1
 1048 983 l 1
 1081 917 1118 829 1118 737 c 0
 1118 476 884 347 596 347 c 0
 570 347 537 349 503 349 c 0
 416 349 323 337 323 250 c 0
 323 182 424 173 516 173 c 0
 550 173 582 174 608 174 c 0
 932 174 1209 147 1209 -184 c 0
 1209 -486 901 -504 592 -504 c 0
 358 -504 100 -419 100 -186 c 0
 100 -39 161 40 266 88 c 1
 207 117 139 171 139 262 c 0
 139 375 204 424 299 448 c 1
 180 527 96 605 96 776 c 0
364 30 m 1
 322 -12 268 -66 268 -150 c 0
 268 -288 425 -336 588 -336 c 0
 799 -336 1014 -331 1014 -164 c 0
 1014 -16 858 1 700 1 c 0
 658 1 626 0 596 0 c 0
 535 0 481 4 364 30 c 1
610 1051 m 0
 427 1051 303 947 303 752 c 0
 303 574 428 487 602 487 c 0
 779 487 899 556 899 757 c 0
 899 945 799 1051 610 1051 c 0
EndSplineSet
EndChar

StartChar: germandbls
Encoding: 157 223 201
Width: 1708
VWidth: 0
Flags: HW
LayerCount: 2
Fore
SplineSet
1323 469 m 0
 1323 819 1082 866 814 866 c 0
 767 866 743 899 743 931 c 0
 743 963 766 995 814 995 c 0
 962 995 1132 1083 1132 1290 c 0
 1132 1500 1007 1576 859 1576 c 0
 718 1576 567 1491 567 1045 c 2
 567 176 l 1
 701 176 l 2
 752 176 773 134 773 84 c 0
 773 40 746 0 699 0 c 2
 143 0 l 2
 96 0 69 40 69 84 c 0
 69 134 90 176 141 176 c 2
 333 176 l 1
 333 988 l 2
 333 1578 602 1739 852 1739 c 0
 1102 1739 1337 1613 1337 1290 c 0
 1337 1109 1227 994 1099 956 c 1
 1348 925 1557 778 1557 468 c 0
 1557 184 1289 0 1041 0 c 0
 984 0 952 47 952 92 c 0
 952 135 980 176 1041 176 c 0
 1189 176 1323 283 1323 469 c 0
EndSplineSet
EndChar

StartChar: grave
Encoding: 64 96 202
Width: 633
VWidth: 0
Flags: HW
AnchorPoint: "top" 551 1220 mark 0
LayerCount: 2
Fore
SplineSet
601 1479 m 0
 601 1454 578 1427 552 1427 c 0
 545 1427 539 1430 534 1434 c 0
 372 1527 193 1643 36 1741 c 0
 18 1753 9 1768 9 1786 c 0
 9 1827 51 1870 93 1870 c 0
 109 1870 123 1865 134 1855 c 0
 270 1738 435 1609 585 1509 c 0
 596 1502 601 1493 601 1479 c 0
EndSplineSet
EndChar

StartChar: greater
Encoding: 30 62 203
Width: 1856
VWidth: 0
Flags: HW
LayerCount: 2
Fore
SplineSet
196 1430 m 2
 1645 901 l 1
 1697 878 1727 860 1727 807 c 0
 1727 755 1693 732 1645 714 c 2
 214 183 l 2
 195 177 178 173 162 173 c 0
 93 173 49 230 49 288 c 0
 49 333 75 379 136 401 c 2
 1342 835 l 1
 136 1247 l 2
 72 1269 46 1310 46 1350 c 0
 46 1397 84 1440 144 1440 c 0
 160 1440 177 1437 196 1430 c 2
EndSplineSet
EndChar

StartChar: guillemotleft
Encoding: 105 171 204
Width: 1573
VWidth: 0
Flags: HW
LayerCount: 2
Fore
SplineSet
706 273 m 1
 143 676 l 1
 105 700 77 723 77 755 c 0
 77 788 104 812 143 837 c 1
 693 1240 l 1
 720 1253 745 1259 766 1259 c 0
 821 1259 854 1221 854 1175 c 0
 854 1137 831 1094 780 1064 c 1
 371 751 l 1
 782 440 l 1
 838 406 864 361 864 324 c 0
 864 285 835 254 784 254 c 0
 762 254 736 260 706 273 c 1
1336 273 m 1
 773 676 l 1
 735 700 707 723 707 755 c 0
 707 788 734 812 773 837 c 1
 1323 1240 l 1
 1350 1253 1375 1259 1396 1259 c 0
 1451 1259 1484 1221 1484 1175 c 0
 1484 1137 1461 1094 1410 1064 c 1
 1001 751 l 1
 1412 440 l 1
 1468 406 1494 361 1494 324 c 0
 1494 285 1465 254 1414 254 c 0
 1392 254 1366 260 1336 273 c 1
EndSplineSet
EndChar

StartChar: guillemotright
Encoding: 121 187 205
Width: 1572
VWidth: 0
Flags: HW
LayerCount: 2
Fore
SplineSet
868 273 m 1
 838 260 812 254 790 254 c 0
 739 254 711 285 711 324 c 0
 711 361 736 406 792 440 c 1
 1204 751 l 1
 794 1064 l 1
 743 1094 720 1137 720 1175 c 0
 720 1221 753 1259 808 1259 c 0
 830 1259 854 1253 882 1240 c 1
 1432 837 l 1
 1471 812 1498 788 1498 755 c 0
 1498 723 1470 700 1432 676 c 1
 868 273 l 1
238 273 m 1
 208 260 182 254 160 254 c 0
 109 254 81 285 81 324 c 0
 81 361 106 406 162 440 c 1
 574 751 l 1
 164 1064 l 1
 113 1094 90 1137 90 1175 c 0
 90 1221 123 1259 178 1259 c 0
 200 1259 224 1253 252 1240 c 1
 802 837 l 1
 841 812 868 788 868 755 c 0
 868 723 840 700 802 676 c 1
 238 273 l 1
EndSplineSet
EndChar

StartChar: guilsinglleft
Encoding: 406 8249 206
Width: 1206
VWidth: 0
Flags: HW
LayerCount: 2
Fore
SplineSet
1006 293 m 2
 133 696 l 1
 91 714 67 743 67 775 c 0
 67 808 91 837 133 857 c 2
 993 1260 l 2
 1008 1267 1024 1268 1036 1268 c 0
 1095 1268 1133 1220 1133 1171 c 0
 1133 1132 1108 1097 1060 1076 c 2
 393 770 l 1
 1060 464 l 2
 1108 441 1135 412 1135 376 c 0
 1135 329 1102 285 1050 285 c 0
 1037 285 1022 286 1006 293 c 2
EndSplineSet
EndChar

StartChar: guilsinglright
Encoding: 407 8250 207
Width: 1207
VWidth: 0
Flags: HW
LayerCount: 2
Fore
SplineSet
201 293 m 2
 186 286 170 285 157 285 c 0
 105 285 72 329 72 376 c 0
 72 412 99 441 147 464 c 2
 815 770 l 1
 147 1076 l 2
 100 1097 75 1132 75 1171 c 0
 75 1220 112 1268 171 1268 c 0
 184 1268 199 1267 215 1260 c 2
 1075 857 l 2
 1117 837 1140 808 1140 775 c 0
 1140 743 1116 714 1075 696 c 2
 201 293 l 2
EndSplineSet
EndChar

StartChar: h
Encoding: 72 104 208
Width: 1544
VWidth: 0
Flags: HW
AnchorPoint: "top" 797 1133 basechar 0
LayerCount: 2
Fore
SplineSet
841 1018 m 0
 688 1018 567 909 499 799 c 1
 499 176 l 1
 663 176 l 2
 715 176 724 136 724 86 c 0
 724 46 703 0 661 0 c 2
 172 0 l 2
 115 0 96 32 96 84 c 0
 96 134 113 176 165 176 c 2
 294 176 l 1
 294 1524 l 1
 59 1462 l 1
 53 1462 55 1460 49 1460 c 0
 7 1460 -31 1505 -31 1546 c 0
 -31 1603 3 1613 47 1626 c 2
 432 1737 l 2
 435 1738 439 1739 446 1739 c 0
 474 1739 499 1720 499 1690 c 2
 499 1004 l 1
 577 1097 713 1188 878 1188 c 0
 1128 1188 1286 1032 1286 780 c 2
 1286 176 l 1
 1449 176 l 2
 1501 176 1511 136 1511 86 c 0
 1511 46 1489 0 1447 0 c 2
 958 0 l 2
 901 0 882 32 882 84 c 0
 882 134 900 176 952 176 c 2
 1083 176 l 1
 1083 762 l 2
 1083 922 1003 1018 841 1018 c 0
EndSplineSet
EndChar

StartChar: hbar
Encoding: 229 295 209
Width: 1567
VWidth: 0
Flags: HW
LayerCount: 2
Fore
SplineSet
506 1438 m 1
 823 1438 l 2
 871 1438 895 1400 895 1362 c 0
 895 1323 870 1283 821 1283 c 2
 506 1283 l 1
 506 1004 l 1
 584 1097 721 1188 886 1188 c 0
 1136 1188 1294 1032 1294 780 c 2
 1294 176 l 1
 1457 176 l 2
 1509 176 1519 136 1519 86 c 0
 1519 46 1497 0 1455 0 c 2
 966 0 l 2
 909 0 890 32 890 84 c 0
 890 134 908 176 960 176 c 2
 1091 176 l 1
 1091 762 l 2
 1091 922 1011 1018 849 1018 c 0
 696 1018 575 909 507 799 c 1
 507 176 l 1
 671 176 l 2
 723 176 732 136 732 86 c 0
 732 46 711 0 669 0 c 2
 180 0 l 2
 123 0 104 32 104 84 c 0
 104 134 121 176 173 176 c 2
 302 176 l 1
 302 1283 l 1
 187 1283 l 2
 131 1283 104 1323 104 1362 c 0
 104 1400 130 1438 181 1438 c 2
 302 1438 l 1
 302 1559 l 1
 187 1559 l 2
 131 1559 104 1599 104 1638 c 0
 104 1676 130 1714 181 1714 c 2
 435 1714 l 2
 483 1714 507 1676 507 1638 c 0
 507 1634 506 1631 506 1627 c 2
 506 1438 l 1
EndSplineSet
EndChar

StartChar: hungarumlaut
Encoding: 366 733 211
Width: 862
VWidth: 0
Flags: HW
AnchorPoint: "top" 197 1220 mark 0
LayerCount: 2
Fore
SplineSet
517 1870 m 0
 559 1870 601 1827 601 1786 c 0
 601 1768 593 1753 575 1741 c 0
 417 1642 240 1527 77 1434 c 0
 70 1430 63 1427 58 1427 c 0
 32 1427 9 1454 9 1479 c 0
 9 1493 15 1502 26 1509 c 0
 176 1609 340 1738 476 1855 c 0
 487 1865 501 1870 517 1870 c 0
892 1870 m 0
 934 1870 976 1827 976 1786 c 0
 976 1768 967 1753 949 1741 c 0
 791 1642 615 1527 452 1434 c 0
 445 1430 438 1427 433 1427 c 0
 407 1427 384 1454 384 1479 c 0
 384 1493 390 1502 401 1509 c 0
 551 1609 715 1738 851 1855 c 0
 862 1865 876 1870 892 1870 c 0
EndSplineSet
EndChar

StartChar: hyphen
Encoding: 13 45 212
Width: 1333
VWidth: 0
Flags: HW
LayerCount: 2
Fore
SplineSet
194 715 m 0
 194 770 240 817 296 817 c 2
 1038 817 l 2
 1094 817 1140 770 1140 715 c 0
 1140 658 1095 612 1038 612 c 2
 296 612 l 2
 239 612 194 658 194 715 c 0
EndSplineSet
EndChar

StartChar: i
Encoding: 73 105 213
Width: 788
VWidth: 0
Flags: HW
LayerCount: 2
Fore
SplineSet
410 1427 m 0
 326 1427 258 1495 258 1579 c 0
 258 1663 326 1731 410 1731 c 0
 494 1731 561 1663 561 1579 c 0
 561 1495 494 1427 410 1427 c 0
102 83 m 0
 102 132 126 173 178 173 c 2
 315 173 l 1
 315 983 l 1
 172 944 l 2
 169 943 165 942 158 942 c 0
 118 942 76 981 76 1022 c 0
 76 1065 95 1096 133 1106 c 2
 453 1186 l 2
 457 1187 462 1188 469 1188 c 0
 499 1188 520 1171 520 1141 c 2
 520 173 l 1
 674 173 l 2
 725 173 746 131 746 81 c 0
 746 37 719 0 672 0 c 2
 184 0 l 2
 128 0 102 32 102 83 c 0
EndSplineSet
EndChar

StartChar: ij
Encoding: 241 307 219
Width: 1469
VWidth: 0
Flags: HW
LayerCount: 2
Fore
SplineSet
1037 1579 m 0
 1037 1655 1088 1735 1164 1735 c 0
 1251 1735 1324 1680 1324 1593 c 0
 1324 1507 1266 1450 1181 1450 c 0
 1105 1450 1037 1503 1037 1579 c 0
894 -496 m 0
 709 -496 618 -452 618 -263 c 2
 618 -254 l 2
 618 -169 634 -121 714 -121 c 0
 770 -121 804 -162 804 -231 c 2
 804 -313 l 1
 857 -313 l 2
 1128 -313 1136 -143 1136 115 c 2
 1136 967 l 1
 523 967 l 1
 523 173 l 1
 677 173 l 2
 728 173 749 131 749 81 c 0
 749 37 722 0 675 0 c 2
 187 0 l 2
 131 0 105 32 105 83 c 0
 105 132 129 173 181 173 c 2
 318 173 l 1
 318 970 l 1
 165 970 l 1
 164 970 l 2
 122 970 79 995 79 1047 c 0
 79 1090 106 1131 166 1131 c 2
 1273 1131 l 2
 1312 1131 1341 1125 1341 1086 c 2
 1341 115 l 2
 1341 -191 1253 -496 894 -496 c 0
413 1427 m 0
 329 1427 261 1495 261 1579 c 0
 261 1663 329 1731 413 1731 c 0
 497 1731 564 1663 564 1579 c 0
 564 1495 497 1427 413 1427 c 0
EndSplineSet
EndChar

StartChar: j
Encoding: 74 106 223
Width: 804
VWidth: 0
Flags: HW
PickledData: "(dp1
S'com.typemytype.robofont.layerData'
p2
(dp3
s."
LayerCount: 2
Fore
SplineSet
214 -323 m 0
 397 -323 445 -126 445 115 c 2
 445 983 l 1
 301 944 l 2
 298 943 294 942 287 942 c 0
 247 942 205 981 205 1022 c 0
 205 1065 224 1096 262 1106 c 2
 582 1186 l 2
 586 1187 591 1188 598 1188 c 0
 628 1188 650 1174 650 1143 c 2
 650 115 l 2
 650 -191 562 -496 203 -496 c 0
 48 -496 -75 -436 -75 -243 c 0
 -75 -164 -57 -120 23 -120 c 0
 79 -120 113 -157 113 -220 c 1
 131 -283 89 -323 214 -323 c 0
346 1579 m 0
 346 1655 397 1735 473 1735 c 0
 560 1735 633 1680 633 1593 c 0
 633 1507 575 1450 490 1450 c 0
 414 1450 346 1503 346 1579 c 0
EndSplineSet
EndChar

StartChar: k
Encoding: 75 107 225
Width: 1498
VWidth: 0
Flags: HW
PickledData: "(dp1
S'com.typemytype.robofont.layerData'
p2
(dp3
s."
AnchorPoint: "top" 797 1133 basechar 0
LayerCount: 2
Fore
SplineSet
449 1739 m 0
 477 1739 502 1720 502 1690 c 2
 502 620 l 1
 657 725 834 847 985 946 c 1
 879 946 l 2
 827 946 803 986 803 1036 c 0
 803 1087 829 1122 885 1122 c 2
 1348 1122 l 2
 1395 1122 1422 1112 1422 1068 c 0
 1422 1018 1401 946 1350 946 c 2
 1239 946 l 2
 1186 946 1149 909 1114 883 c 2
 824 664 l 1
 1114 291 l 1
 1186 191 1238 188 1366 188 c 2
 1381 188 l 2
 1470 188 1497 173 1497 96 c 0
 1497 17 1448 0 1358 0 c 2
 922 0 l 2
 871 0 846 40 846 90 c 0
 846 141 871 176 928 176 c 2
 987 176 l 1
 686 579 l 1
 502 467 l 1
 502 176 l 1
 654 176 l 2
 705 176 725 134 725 84 c 0
 725 40 699 0 652 0 c 2
 148 0 l 2
 92 0 66 35 66 86 c 0
 66 135 90 176 142 176 c 2
 297 176 l 1
 297 1524 l 1
 62 1462 l 1
 56 1462 57 1460 51 1460 c 0
 9 1460 -28 1505 -28 1546 c 0
 -28 1603 5 1613 49 1626 c 2
 434 1737 l 2
 437 1738 442 1739 449 1739 c 0
EndSplineSet
EndChar

StartChar: kgreenlandic
Encoding: 246 312 227
Width: 1550
VWidth: 0
Flags: HW
LayerCount: 2
Fore
SplineSet
520 1082 m 2
 520 619 l 1
 983 957 l 1
 885 957 l 2
 833 957 809 997 809 1047 c 0
 809 1098 835 1133 891 1133 c 2
 1366 1133 l 2
 1413 1133 1440 1094 1440 1050 c 0
 1440 1000 1419 957 1368 957 c 2
 1270 957 l 2
 1217 957 1180 920 1145 894 c 2
 845 677 l 1
 1132 291 l 2
 1206 192 1256 188 1384 188 c 2
 1399 188 l 2
 1488 188 1515 173 1515 96 c 0
 1515 17 1466 0 1376 0 c 2
 940 0 l 2
 889 0 864 40 864 90 c 0
 864 141 889 176 946 176 c 2
 1005 176 l 1
 704 584 l 1
 520 452 l 1
 520 176 l 1
 672 176 l 2
 723 176 743 134 743 84 c 0
 743 40 717 0 670 0 c 2
 166 0 l 2
 110 0 84 35 84 86 c 0
 84 135 108 176 160 176 c 2
 315 176 l 1
 315 940 l 1
 80 940 l 2
 20 940 -7 985 -7 1032 c 0
 -7 1081 23 1131 77 1131 c 2
 452 1131 l 2
 489 1131 520 1120 520 1082 c 2
EndSplineSet
EndChar

StartChar: l
Encoding: 76 108 228
Width: 914
VWidth: 0
Flags: HW
AnchorPoint: "top" 797 1133 basechar 0
LayerCount: 2
Fore
SplineSet
517 1735 m 0
 545 1735 570 1716 570 1686 c 2
 570 176 l 1
 814 176 l 2
 865 176 886 134 886 84 c 0
 886 40 859 0 812 0 c 2
 144 0 l 2
 88 0 62 35 62 86 c 0
 62 135 86 176 138 176 c 2
 365 176 l 1
 365 1520 l 1
 130 1458 l 1
 124 1458 126 1456 120 1456 c 0
 78 1456 40 1501 40 1542 c 0
 40 1599 74 1609 118 1622 c 2
 503 1733 l 2
 506 1734 510 1735 517 1735 c 0
EndSplineSet
EndChar

StartChar: less
Encoding: 28 60 233
Width: 1856
VWidth: 0
Flags: HW
LayerCount: 2
Fore
SplineSet
1577 183 m 2
 128 713 l 1
 76 736 46 754 46 807 c 0
 46 859 80 882 128 900 c 2
 1559 1430 l 2
 1577 1437 1595 1440 1611 1440 c 0
 1680 1440 1724 1383 1724 1325 c 0
 1724 1280 1698 1235 1637 1213 c 2
 431 779 l 1
 1637 367 l 2
 1700 345 1727 303 1727 264 c 0
 1727 217 1689 173 1629 173 c 0
 1613 173 1596 176 1577 183 c 2
EndSplineSet
EndChar

StartChar: logicalnot
Encoding: 106 172 234
Width: 1291
VWidth: 0
Flags: HW
LayerCount: 2
Fore
SplineSet
171 715 m 0
 171 770 217 817 273 817 c 2
 1015 817 l 2
 1071 817 1117 770 1117 715 c 2
 1117 711 l 1
 1117 409 l 2
 1117 353 1077 326 1038 326 c 0
 999 326 961 352 961 403 c 2
 961 612 l 1
 273 612 l 2
 216 612 171 658 171 715 c 0
EndSplineSet
EndChar

StartChar: lslash
Encoding: 256 322 235
Width: 946
VWidth: 0
Flags: HW
LayerCount: 2
Fore
SplineSet
527 1735 m 0
 555 1735 580 1716 580 1686 c 2
 580 1175 l 1
 757 1250 l 1
 778 1256 796 1259 812 1259 c 0
 862 1259 880 1228 880 1195 c 0
 880 1160 860 1122 836 1115 c 1
 580 1006 l 1
 580 176 l 1
 824 176 l 2
 875 176 896 134 896 84 c 0
 896 40 869 0 822 0 c 2
 154 0 l 2
 98 0 72 35 72 86 c 0
 72 135 96 176 148 176 c 2
 375 176 l 1
 375 919 l 1
 220 853 l 1
 196 846 176 843 159 843 c 0
 107 843 88 874 88 907 c 0
 88 941 107 977 133 985 c 1
 375 1088 l 1
 375 1520 l 1
 140 1458 l 1
 134 1458 136 1456 130 1456 c 0
 88 1456 50 1501 50 1542 c 0
 50 1599 84 1609 128 1622 c 2
 513 1733 l 2
 516 1734 520 1735 527 1735 c 0
EndSplineSet
EndChar

StartChar: m
Encoding: 77 109 236
Width: 2547
VWidth: 0
Flags: HW
PickledData: "(dp1
S'com.typemytype.robofont.layerData'
p2
(dp3
s."
LayerCount: 2
Fore
SplineSet
1865 1188 m 0
 2112 1188 2293 1029 2293 780 c 2
 2293 176 l 1
 2439 176 l 2
 2490 176 2510 134 2510 84 c 0
 2510 40 2484 0 2437 0 c 2
 1949 0 l 2
 1893 0 1867 35 1867 86 c 0
 1867 135 1891 176 1943 176 c 2
 2091 176 l 1
 2091 762 l 2
 2091 922 2011 1018 1849 1018 c 0
 1633 1018 1489 885 1407 733 c 1
 1407 176 l 1
 1572 176 l 2
 1623 176 1644 134 1644 84 c 0
 1644 40 1617 0 1570 0 c 2
 1042 0 l 2
 986 0 960 35 960 86 c 0
 960 135 984 176 1036 176 c 2
 1204 176 l 1
 1204 762 l 2
 1204 922 1124 1018 962 1018 c 0
 736 1018 582 897 505 743 c 1
 505 176 l 1
 690 176 l 2
 741 176 761 134 761 84 c 0
 761 40 735 0 688 0 c 2
 159 0 l 2
 103 0 77 35 77 86 c 0
 77 135 101 176 153 176 c 2
 301 176 l 1
 301 979 l 1
 157 944 l 2
 154 943 150 942 143 942 c 0
 103 942 61 981 61 1022 c 0
 61 1067 80 1094 118 1106 c 1
 397 1186 l 1
 403 1186 401 1188 407 1188 c 2
 413 1188 l 2
 441 1188 464 1170 464 1141 c 1
 485 952 l 1
 566 1088 763 1188 979 1188 c 0
 1181 1188 1324 1084 1380 934 c 1
 1473 1068 1640 1188 1865 1188 c 0
EndSplineSet
EndChar

StartChar: macron
Encoding: 109 175 237
Width: 958
VWidth: 0
Flags: HW
AnchorPoint: "top" 521 1220 mark 0
LayerCount: 2
Fore
SplineSet
782 1481.79980469 m 6
 252 1481.79980469 l 6
 197 1481.79980469 170 1521.79980469 170 1560.79980469 c 4
 170 1599.79980469 196 1637.79980469 246 1637.79980469 c 6
 784 1637.79980469 l 6
 832 1637.79980469 856 1599.79980469 856 1560.79980469 c 4
 856 1521.79980469 831 1481.79980469 782 1481.79980469 c 6
EndSplineSet
EndChar

StartChar: minus
Encoding: 411 8722 238
Width: 1293
VWidth: 0
Flags: HW
LayerCount: 2
Fore
SplineSet
174 715 m 0
 174 770 220 817 276 817 c 2
 1018 817 l 2
 1074 817 1120 770 1120 715 c 0
 1120 658 1075 612 1018 612 c 2
 276 612 l 2
 219 612 174 658 174 715 c 0
EndSplineSet
EndChar

StartChar: mu
Encoding: 65539 956 239
Width: 1555
VWidth: 0
Flags: HW
LayerCount: 2
Fore
SplineSet
395 -502 m 0
 343 -502 289 -454 289 -375 c 2
 289 979 l 1
 146 944 l 2
 143 943 139 942 132 942 c 0
 92 942 50 981 50 1022 c 0
 50 1065 69 1096 107 1106 c 2
 427 1186 l 2
 431 1187 436 1188 443 1188 c 0
 474 1188 494 1171 494 1139 c 2
 494 401 l 2
 494 254 561 145 703 145 c 0
 875 145 1026 236 1082 354 c 1
 1082 979 l 1
 939 944 l 2
 936 943 931 942 924 942 c 0
 884 942 842 981 842 1022 c 0
 842 1065 862 1096 900 1106 c 2
 1219 1186 l 2
 1223 1187 1229 1188 1236 1188 c 0
 1267 1188 1287 1171 1287 1139 c 2
 1287 190 l 1
 1438 190 l 2
 1483 190 1508 154 1508 109 c 0
 1508 66 1489 35 1451 25 c 1
 1178 -4 l 1
 1139 -4 1117 18 1107 84 c 2
 1092 182 l 1
 1014 67 840 -25 666 -25 c 0
 584 -25 494 25 447 100 c 1
 463 -44 486 -227 486 -371 c 0
 486 -463 442 -502 395 -502 c 0
EndSplineSet
EndChar

StartChar: multiply
Encoding: 149 215 240
Width: 1128
VWidth: 0
Flags: HW
LayerCount: 2
Fore
SplineSet
885 1108 m 0
 924 1108 959 1073 959 1035 c 0
 959 1016 951 998 937 983 c 2
 667 714 l 1
 937 444 l 2
 951 430 959 411 959 393 c 0
 959 354 924 319 885 319 c 0
 866 319 847 327 833 341 c 2
 564 610 l 1
 295 341 l 2
 280 327 262 319 243 319 c 0
 204 319 169 354 169 393 c 0
 169 411 176 430 191 444 c 2
 460 714 l 1
 191 983 l 2
 176 998 169 1016 169 1035 c 0
 169 1073 204 1108 243 1108 c 0
 262 1108 280 1101 295 1086 c 2
 564 817 l 1
 833 1086 l 2
 847 1101 866 1108 885 1108 c 0
EndSplineSet
EndChar

StartChar: n
Encoding: 78 110 241
Width: 1558
VWidth: 0
Flags: HW
PickledData: "(dp1
S'com.typemytype.robofont.layerData'
p2
(dp3
s."
AnchorPoint: "top" 837 1133 basechar 0
LayerCount: 2
Fore
SplineSet
880 1018 m 0
 701 1018 505 886 505 707 c 2
 505 176 l 1
 651 176 l 2
 702 176 722 134 722 84 c 0
 722 40 696 0 649 0 c 2
 182 0 l 2
 126 0 100 35 100 86 c 0
 100 135 124 176 176 176 c 2
 300 176 l 1
 300 979 l 1
 157 944 l 2
 154 943 150 942 143 942 c 0
 103 942 61 981 61 1022 c 0
 61 1067 80 1094 118 1106 c 1
 397 1186 l 1
 403 1186 401 1188 407 1188 c 2
 413 1188 l 2
 441 1188 464 1170 464 1141 c 1
 485 952 l 1
 553 1075 729 1188 917 1188 c 0
 1167 1188 1324 1032 1324 780 c 2
 1324 176 l 1
 1449 176 l 2
 1500 176 1521 134 1521 84 c 0
 1521 40 1494 0 1447 0 c 2
 960 0 l 2
 904 0 878 35 878 86 c 0
 878 135 902 176 954 176 c 2
 1122 176 l 1
 1122 762 l 2
 1122 922 1042 1018 880 1018 c 0
EndSplineSet
EndChar

StartChar: nine
Encoding: 25 57 245
Width: 1367
VWidth: 0
Flags: HW
LayerCount: 2
Fore
SplineSet
124 1192 m 0
 124 1525 340 1739 671 1739 c 0
 1062 1739 1242 1481 1242 1092 c 0
 1242 536 950 193 655 -102 c 0
 635 -122 602 -145 562 -145 c 0
 497 -145 458 -108 458 -43 c 0
 458 57 585 132 646 195 c 0
 788 343 947 524 988 770 c 1
 902 710 791 659 651 659 c 0
 333 659 124 872 124 1192 c 0
671 1587 m 0
 446 1587 321 1424 321 1196 c 0
 321 972 451 825 671 825 c 0
 891 825 1021 974 1021 1196 c 0
 1021 1425 895 1587 671 1587 c 0
EndSplineSet
EndChar

StartChar: numbersign
Encoding: 3 35 248
Width: 1727
VWidth: 0
Flags: HW
LayerCount: 2
Fore
SplineSet
1022 732 m 1
 1081 965 l 1
 666 965 l 1
 607 732 l 1
 1022 732 l 1
802 1989 m 0
 847 1989 901 1962 901 1910 c 0
 901 1905 900 1901 899 1896 c 2
 708 1133 l 1
 1123 1133 l 1
 1326 1935 l 1
 1333 1968 1358 1988 1400 1988 c 0
 1443 1988 1498 1961 1498 1910 c 0
 1498 1905 1498 1900 1496 1894 c 2
 1304 1133 l 1
 1561 1133 l 2
 1607 1133 1645 1095 1645 1049 c 0
 1645 1002 1608 965 1562 965 c 2
 1262 965 l 1
 1203 732 l 1
 1499 732 l 2
 1545 732 1583 694 1583 648 c 0
 1583 601 1546 564 1500 564 c 2
 1161 564 l 1
 936 -327 l 2
 926 -364 908 -390 860 -390 c 0
 815 -390 759 -363 759 -313 c 0
 759 -307 760 -300 762 -294 c 2
 979 564 l 1
 565 564 l 1
 344 -320 l 2
 334 -357 316 -383 268 -383 c 0
 223 -383 167 -357 167 -306 c 0
 167 -300 168 -294 170 -287 c 2
 384 564 l 1
 168 564 l 2
 122 564 84 601 84 648 c 0
 84 694 122 732 168 732 c 2
 426 732 l 1
 485 965 l 1
 230 965 l 2
 184 965 146 1002 146 1049 c 0
 146 1095 184 1133 230 1133 c 2
 527 1133 l 1
 729 1936 l 1
 735 1969 761 1989 802 1989 c 0
EndSplineSet
EndChar

StartChar: o
Encoding: 79 111 249
Width: 1391
VWidth: 0
Flags: HW
PickledData: "(dp1
S'com.typemytype.robofont.layerData'
p2
(dp3
s."
AnchorPoint: "top" 707 1133 basechar 0
LayerCount: 2
Fore
SplineSet
702 1018 m 0
 448 1018 303 836 303 582 c 0
 303 326 448 145 702 145 c 0
 950 145 1089 332 1089 582 c 0
 1089 833 950 1018 702 1018 c 0
702 -25 m 0
 331 -25 81 211 81 582 c 0
 81 955 332 1188 702 1188 c 0
 1067 1188 1310 948 1310 582 c 0
 1310 216 1066 -25 702 -25 c 0
EndSplineSet
EndChar

StartChar: oe
Encoding: 273 339 254
Width: 2264
VWidth: 0
Flags: HW
LayerCount: 2
Fore
SplineSet
1939 756 m 0
 1939 947 1800 1018 1660 1018 c 0
 1436 1018 1300 893 1284 700 c 1
 1865 713 l 1
 1902 715 1939 725 1939 756 c 0
1288 559 m 1
 1288 297 1463 158 1692 158 c 0
 1862 158 1942 232 2030 314 c 1
 2050 331 2073 340 2096 340 c 0
 2150 340 2192 305 2192 250 c 0
 2192 79 1868 -25 1684 -25 c 0
 1460 -25 1277 68 1173 230 c 1
 1075 70 904 -25 688 -25 c 0
 317 -25 67 211 67 582 c 0
 67 955 318 1188 688 1188 c 0
 903 1188 1074 1094 1172 935 c 1
 1269 1093 1438 1188 1660 1188 c 0
 1928 1188 2190 985 2190 692 c 0
 2190 592 2121 590 2026 580 c 1
 1288 559 l 1
688 1018 m 0
 434 1018 289 836 289 582 c 0
 289 326 434 145 688 145 c 0
 936 145 1075 332 1075 582 c 0
 1075 833 936 1018 688 1018 c 0
EndSplineSet
EndChar

StartChar: ogonek
Encoding: 364 731 255
Width: 354
VWidth: 0
Flags: HW
LayerCount: 2
Fore
SplineSet
111 -516 m 0
 19 -516 -51 -473 -51 -358 c 0
 -51 -286 15 -111 185 30 c 1
 264 30 l 2
 273 30 153 -162 153 -257 c 0
 153 -368 290 -343 290 -403 c 0
 290 -454 205 -516 111 -516 c 0
EndSplineSet
EndChar

StartChar: one
Encoding: 17 49 259
Width: 1089
VWidth: 0
Flags: HW
LayerCount: 2
Fore
SplineSet
159 84 m 0
 159 131 182 170 232 170 c 2
 471 170 l 1
 471 1527 l 1
 307 1514 l 1
 254 1514 225 1551 225 1602 c 0
 225 1647 249 1684 290 1687 c 2
 620 1716 l 1
 666 1716 686 1706 686 1651 c 2
 686 170 l 1
 860 170 l 2
 909 170 931 130 931 81 c 0
 931 40 903 0 858 0 c 2
 237 0 l 2
 182 0 159 35 159 84 c 0
EndSplineSet
EndChar

StartChar: onehalf
Encoding: 123 189 260
Width: 2342
VWidth: 0
Flags: HW
LayerCount: 2
Fore
SplineSet
74 541 m 0
 74 575 91 603 127 603 c 2
 299 603 l 1
 299 1580 l 1
 181 1570 l 1
 143 1570 122 1597 122 1634 c 0
 122 1666 139 1693 169 1695 c 2
 406 1716 l 1
 439 1716 454 1709 454 1669 c 2
 454 603 l 1
 579 603 l 2
 614 603 630 574 630 539 c 0
 630 509 610 480 578 480 c 2
 131 480 l 2
 91 480 74 506 74 541 c 0
566 -93 m 0
 531 -93 490 -58 490 -15 c 0
 490 -6 492 1 498 9 c 2
 1574 1757 l 2
 1584 1774 1601 1783 1626 1783 c 0
 1660 1783 1700 1750 1700 1705 c 0
 1700 1697 1697 1692 1693 1684 c 2
 624 -61 l 1
 611 -80 596 -93 566 -93 c 0
2175 948 m 0
 2175 561 1679 410 1633 139 c 1
 2082 139 l 1
 2144 281 l 1
 2155 311 2179 334 2214 334 c 0
 2244 334 2266 314 2266 282 c 0
 2266 273 2263 265 2262 256 c 1
 2217 56 l 1
 2208 23 2193 2 2160 2 c 2
 1487 2 l 1
 1481 102 l 1
 1481 154 1493 207 1519 260 c 0
 1617 464 2009 749 2009 941 c 0
 2009 1035 1902 1067 1807 1067 c 0
 1706 1067 1653 1034 1599 994 c 0
 1587 985 1573 980 1558 980 c 0
 1521 980 1491 1004 1491 1042 c 0
 1491 1057 1500 1075 1519 1094 c 0
 1581 1157 1696 1204 1823 1204 c 0
 2004 1204 2175 1129 2175 948 c 0
EndSplineSet
EndChar

StartChar: onequarter
Encoding: 122 188 261
Width: 2236
VWidth: 0
Flags: HW
LayerCount: 2
Fore
SplineSet
1784 987 m 1
 1378 491 l 1
 1784 491 l 1
 1784 987 l 1
2121 62 m 0
 2121 32 2102 2 2070 2 c 2
 1588 2 l 2
 1556 2 1537 32 1537 62 c 0
 1537 97 1552 124 1587 124 c 2
 1784 124 l 1
 1784 382 l 1
 1261 382 l 2
 1232 382 1216 408 1216 434 c 0
 1216 454 1222 472 1231 481 c 1
 1428 726 1626 966 1825 1207 c 0
 1832 1216 1843 1223 1855 1223 c 0
 1885 1223 1917 1193 1917 1163 c 2
 1917 491 l 1
 2118 491 l 2
 2150 491 2162 466 2162 434 c 0
 2162 408 2145 382 2116 382 c 2
 1917 382 l 1
 1917 124 l 1
 2072 124 l 2
 2107 124 2121 97 2121 62 c 0
75 541 m 0
 75 575 92 603 128 603 c 2
 300 603 l 1
 300 1580 l 1
 182 1570 l 1
 144 1570 123 1597 123 1634 c 0
 123 1666 140 1693 170 1695 c 2
 407 1716 l 1
 440 1716 455 1709 455 1669 c 2
 455 603 l 1
 580 603 l 2
 615 603 631 574 631 539 c 0
 631 509 611 480 579 480 c 2
 132 480 l 2
 92 480 75 506 75 541 c 0
567 -93 m 0
 532 -93 491 -58 491 -15 c 0
 491 -6 493 1 499 9 c 2
 1575 1757 l 2
 1585 1774 1602 1783 1627 1783 c 0
 1661 1783 1701 1750 1701 1705 c 0
 1701 1697 1698 1692 1694 1684 c 2
 625 -61 l 1
 612 -80 597 -93 567 -93 c 0
EndSplineSet
EndChar

StartChar: ordfeminine
Encoding: 104 170 262
Width: 1366
VWidth: 0
Flags: HW
LayerCount: 2
Fore
SplineSet
1122 96 m 0
 1122 30 1006 -23 949 -23 c 0
 882 -23 841 10 826 77 c 1
 766 7 664 -25 553 -25 c 0
 427 -25 332 59 332 183 c 0
 332 404 603 417 810 435 c 1
 810 535 l 2
 810 600 743 621 679 621 c 0
 564 621 523 597 445 547 c 0
 437 542 430 539 423 539 c 0
 395 539 369 572 369 601 c 0
 369 700 559 726 662 726 c 0
 871 726 933 646 933 439 c 2
 933 128 l 2
 933 102 941 84 960 84 c 0
 996 84 1049 150 1079 150 c 0
 1097 150 1122 119 1122 96 c 0
810 342 m 1
 679 329 464 324 464 186 c 0
 464 116 525 83 596 83 c 0
 682 83 753 118 810 163 c 1
 810 342 l 1
EndSplineSet
EndChar

StartChar: ordmasculine
Encoding: 120 186 263
Width: 1363
VWidth: 0
Flags: HW
LayerCount: 2
Fore
SplineSet
659 661 m 0
 491 661 395 541 395 373 c 0
 395 203 491 83 659 83 c 0
 824 83 916 207 916 373 c 0
 916 539 824 661 659 661 c 0
659 -30 m 0
 414 -30 248 127 248 373 c 0
 248 620 414 774 659 774 c 0
 901 774 1062 615 1062 373 c 0
 1062 130 901 -30 659 -30 c 0
EndSplineSet
EndChar

StartChar: oslash
Encoding: 182 248 264
Width: 1363
VWidth: 0
Flags: HW
LayerCount: 2
Fore
SplineSet
691 1018 m 0
 437 1018 292 836 292 582 c 0
 292 423 348 293 451 218 c 1
 824 998 l 1
 784 1011 740 1018 691 1018 c 0
691 145 m 0
 939 145 1078 332 1078 582 c 0
 1078 738 1024 869 924 945 c 1
 552 166 l 1
 594 152 640 145 691 145 c 0
386 -181 m 2
 377 -200 366 -212 343 -212 c 0
 313 -212 276 -187 276 -156 c 0
 276 -149 278 -143 281 -137 c 2
 369 48 l 1
 183 144 70 333 70 582 c 0
 70 955 321 1188 691 1188 c 0
 767 1188 837 1178 901 1158 c 1
 990 1344 l 1
 997 1361 1011 1369 1030 1369 c 0
 1060 1369 1095 1346 1095 1314 c 0
 1095 1308 1094 1302 1091 1296 c 2
 1005 1115 l 1
 1189 1018 1299 829 1299 582 c 0
 1299 216 1055 -25 691 -25 c 0
 613 -25 541 -15 475 5 c 1
 386 -181 l 2
EndSplineSet
EndChar

StartChar: p
Encoding: 80 112 266
Width: 1516
VWidth: 0
Flags: HW
PickledData: "(dp1
S'com.typemytype.robofont.layerData'
p2
(dp3
s."
AnchorPoint: "top" 797 1133 basechar 0
LayerCount: 2
Fore
SplineSet
1186 582 m 0
 1186 819 1068 1018 836 1018 c 0
 659 1018 533 945 453 840 c 1
 453 283 l 1
 538 198 662 145 830 145 c 0
 1064 145 1186 346 1186 582 c 0
1407 582 m 0
 1407 225 1182 -25 830 -25 c 0
 665 -25 548 29 453 109 c 1
 453 -399 l 1
 655 -399 l 2
 706 -399 727 -442 727 -492 c 0
 727 -536 700 -575 653 -575 c 2
 129 -575 l 2
 73 -575 47 -540 47 -489 c 0
 47 -440 71 -399 123 -399 c 2
 248 -399 l 1
 248 979 l 1
 105 944 l 2
 102 943 97 942 90 942 c 0
 50 942 8 981 8 1022 c 0
 8 1067 28 1094 66 1106 c 1
 344 1186 l 1
 350 1186 348 1188 354 1188 c 2
 361 1188 l 2
 389 1188 412 1170 412 1141 c 1
 432 952 l 1
 496 1089 654 1188 850 1188 c 0
 1201 1188 1407 935 1407 582 c 0
EndSplineSet
EndChar

StartChar: paragraph
Encoding: 116 182 267
Width: 1780
VWidth: 0
Flags: HW
LayerCount: 2
Fore
SplineSet
995 176 m 1
 1154 176 l 1
 1154 1538 l 1
 995 1538 l 1
 995 176 l 1
1367 1714 m 1
 1371 176 l 1
 1635 176 l 2
 1686 176 1707 134 1707 84 c 0
 1707 40 1680 0 1633 0 c 2
 458 0 l 2
 411 0 384 40 384 84 c 0
 384 134 405 176 456 176 c 2
 761 176 l 1
 761 725 l 1
 302 725 80 976 80 1232 c 0
 80 1470 295 1714 708 1714 c 2
 1367 1714 l 1
EndSplineSet
EndChar

StartChar: parenleft
Encoding: 8 40 268
Width: 789
VWidth: 0
Flags: HW
LayerCount: 2
Fore
SplineSet
715 -432 m 0
 715 -486 665 -526 611 -526 c 0
 588 -526 558 -511 523 -480 c 0
 250 -239 82 271 82 776 c 0
 82 1239 224 1627 413 1902 c 0
 459 1969 533 2079 611 2079 c 0
 665 2079 715 2039 715 1985 c 0
 715 1962 705 1938 686 1915 c 0
 466 1660 305 1243 305 776 c 0
 305 308 467 -107 686 -362 c 0
 705 -385 715 -409 715 -432 c 0
EndSplineSet
EndChar

StartChar: parenright
Encoding: 9 41 269
Width: 789
VWidth: 0
Flags: HW
LayerCount: 2
Fore
SplineSet
76 1985 m 0
 76 2039 127 2079 181 2079 c 0
 203 2079 232 2064 267 2033 c 0
 542 1795 709 1280 709 776 c 0
 709 313 567 -74 378 -349 c 0
 332 -415 258 -526 181 -526 c 0
 127 -526 76 -486 76 -432 c 0
 76 -409 86 -385 105 -362 c 0
 325 -107 486 309 486 776 c 0
 486 1244 324 1660 105 1915 c 0
 86 1938 76 1962 76 1985 c 0
EndSplineSet
EndChar

StartChar: percent
Encoding: 5 37 270
Width: 2042
VWidth: 0
Flags: HW
LayerCount: 2
Fore
SplineSet
79 1157 m 0
 79 1420 255 1726 517 1726 c 2
 601 1726 l 2
 1029 1726 1300 1771 1492 2009 c 1
 1507 2040 1532 2056 1566 2056 c 0
 1614 2056 1652 2018 1652 1972 c 0
 1652 1962 1649 1951 1644 1937 c 1
 534 -420 l 1
 518 -451 492 -467 458 -467 c 0
 411 -467 374 -428 374 -383 c 0
 374 -371 376 -358 380 -346 c 1
 1336 1681 l 1
 1161 1611 945 1577 702 1577 c 1
 743 1529 769 1460 769 1378 c 0
 769 1109 591 813 331 813 c 0
 156 813 79 981 79 1157 c 0
1525 -49 m 0
 1350 -49 1273 119 1273 295 c 0
 1273 558 1449 864 1711 864 c 0
 1886 864 1963 693 1963 516 c 0
 1963 247 1785 -49 1525 -49 c 0
1562 127 m 0
 1713 127 1805 334 1805 492 c 0
 1805 589 1764 688 1674 688 c 0
 1520 688 1431 475 1431 319 c 0
 1431 221 1472 127 1562 127 c 0
368 989 m 0
 519 989 611 1196 611 1354 c 0
 611 1451 570 1550 480 1550 c 0
 326 1550 237 1338 237 1182 c 0
 237 1084 278 989 368 989 c 0
EndSplineSet
EndChar

StartChar: period
Encoding: 14 46 271
Width: 806
VWidth: 0
Flags: HW
LayerCount: 2
Fore
SplineSet
403 -127 m 0
 281 -127 192 -37 192 84 c 0
 192 206 282 295 403 295 c 0
 525 295 614 205 614 84 c 0
 614 -38 524 -127 403 -127 c 0
EndSplineSet
EndChar

StartChar: periodcentered
Encoding: 117 183 272
Width: 477
VWidth: 0
Flags: HW
LayerCount: 2
Fore
SplineSet
233 711 m 0
 111 711 22 801 22 922 c 0
 22 1044 112 1133 233 1133 c 0
 355 1133 444 1043 444 922 c 0
 444 800 354 711 233 711 c 0
EndSplineSet
EndChar

StartChar: plus
Encoding: 11 43 273
Width: 1238
VWidth: 0
Flags: HW
LayerCount: 2
Fore
SplineSet
1073 787 m 2
 1114 787 1147 754 1147 714 c 0
 1147 673 1114 640 1073 640 c 2
 699 640 l 1
 699 257 l 2
 699 213 664 178 620 178 c 0
 576 178 541 213 541 257 c 2
 541 640 l 1
 165 640 l 2
 124 640 92 673 92 714 c 0
 92 754 124 787 165 787 c 2
 541 787 l 1
 541 1177 l 2
 541 1221 576 1256 620 1256 c 0
 664 1256 699 1221 699 1177 c 2
 699 787 l 1
 1073 787 l 2
EndSplineSet
EndChar

StartChar: plusminus
Encoding: 111 177 274
Width: 1238
VWidth: 0
Flags: HW
LayerCount: 2
Fore
SplineSet
257 78 m 0
 257 120 291 155 334 155 c 2
 898 155 l 2
 941 155 975 120 975 78 c 0
 975 35 941 0 898 0 c 2
 334 0 l 2
 291 0 257 35 257 78 c 0
1073 847 m 2
 1114 847 1146 815 1146 774 c 0
 1146 733 1114 700 1073 700 c 2
 699 700 l 1
 699 377 l 2
 699 333 664 298 620 298 c 0
 576 298 541 333 541 377 c 2
 541 700 l 1
 165 700 l 2
 124 700 92 733 92 774 c 0
 92 815 124 847 165 847 c 2
 541 847 l 1
 541 1177 l 2
 541 1221 576 1256 620 1256 c 0
 664 1256 699 1221 699 1177 c 2
 699 847 l 1
 1073 847 l 2
EndSplineSet
EndChar

StartChar: q
Encoding: 81 113 275
Width: 1413
VWidth: 0
Flags: HW
PickledData: "(dp1
S'com.typemytype.robofont.layerData'
p2
(dp3
s."
LayerCount: 2
Fore
SplineSet
1034 1006 m 1
 1044 1086 1058 1133 1143 1133 c 0
 1190 1133 1212 1081 1212 1028 c 2
 1212 -399 l 1
 1337 -399 l 2
 1389 -399 1413 -439 1413 -489 c 0
 1413 -540 1387 -575 1331 -575 c 2
 807 -575 l 2
 760 -575 733 -536 733 -492 c 0
 733 -442 754 -399 805 -399 c 2
 1007 -399 l 1
 1007 109 l 1
 924 31 822 -25 672 -25 c 0
 326 -25 114 234 114 582 c 0
 114 930 309 1188 651 1188 c 0
 815 1188 951 1101 1034 1006 c 1
336 582 m 0
 336 352 448 145 672 145 c 0
 826 145 932 200 1007 283 c 1
 1007 840 l 1
 936 943 828 1018 665 1018 c 0
 441 1018 336 809 336 582 c 0
EndSplineSet
EndChar

StartChar: question
Encoding: 31 63 276
Width: 1296
VWidth: 0
Flags: HW
LayerCount: 2
Fore
SplineSet
745 160 m 0
 745 52 655 -24 547 -24 c 0
 452 -24 401 64 401 158 c 0
 401 258 475 343 575 343 c 0
 671 343 745 255 745 160 c 0
584 479 m 0
 471 479 465 561 465 663 c 2
 465 676 l 2
 465 988 897 957 897 1279 c 0
 897 1443 801 1582 626 1582 c 0
 570 1582 507 1568 436 1536 c 1
 425 1380 427 1236 268 1236 c 0
 185 1236 129 1307 129 1389 c 0
 129 1626 381 1739 618 1739 c 0
 910 1739 1145 1551 1145 1250 c 0
 1145 898 679 889 679 640 c 0
 679 548 657 479 584 479 c 0
EndSplineSet
EndChar

StartChar: questiondown
Encoding: 125 191 277
Width: 1096
VWidth: 0
Flags: HW
LayerCount: 2
Fore
SplineSet
446 1557 m 0
 446 1665 536 1741 644 1741 c 0
 739 1741 790 1653 790 1559 c 0
 790 1459 716 1374 616 1374 c 0
 520 1374 446 1462 446 1557 c 0
607 1238 m 0
 720 1238 726 1156 726 1054 c 2
 726 1041 l 2
 726 729 304 760 304 438 c 0
 304 232 441 170 648 170 c 0
 693 170 731 177 755 201 c 1
 766 347 764 481 923 481 c 0
 1006 481 1062 410 1062 328 c 0
 1062 91 810 -22 573 -22 c 0
 270 -22 26 166 26 467 c 0
 26 819 492 798 492 1077 c 0
 492 1169 518 1238 607 1238 c 0
EndSplineSet
EndChar

StartChar: quotedbl
Encoding: 2 34 278
Width: 879
VWidth: 0
Flags: HW
LayerCount: 2
Fore
SplineSet
689 1377 m 2
 685 1338 650 1319 625 1319 c 0
 599 1319 563 1338 559 1377 c 2
 505 1924 l 1
 505 1924 504 1935 504 1941 c 0
 504 2020 562 2058 620 2058 c 0
 681 2058 742 2017 742 1938 c 0
 742 1932 741 1927 741 1922 c 2
 689 1377 l 2
363 1377 m 2
 359 1338 324 1319 299 1319 c 0
 273 1319 237 1338 233 1377 c 2
 179 1924 l 2
 178 1929 178 1935 178 1941 c 0
 178 2020 236 2058 294 2058 c 0
 355 2058 416 2017 416 1938 c 0
 416 1932 416 1927 415 1922 c 2
 363 1377 l 2
EndSplineSet
EndChar

StartChar: quotedblbase
Encoding: 400 8222 279
Width: 1151
VWidth: 0
Flags: HW
LayerCount: 2
Fore
SplineSet
1020 82 m 0
 1020 -129 897 -263 746 -339 c 0
 730 -348 713 -352 699 -352 c 0
 656 -352 624 -319 624 -284 c 0
 624 -266 633 -247 655 -232 c 0
 732 -181 833 -115 833 -1 c 1
 725 -1 645 47 645 149 c 0
 645 252 727 304 815 304 c 0
 925 304 1020 230 1020 82 c 0
353 304 m 0
 463 304 558 230 558 82 c 0
 558 -129 435 -263 284 -339 c 0
 268 -348 251 -352 237 -352 c 0
 194 -352 162 -319 162 -284 c 0
 162 -266 171 -247 193 -232 c 0
 270 -181 371 -115 371 -1 c 1
 263 -1 183 47 183 149 c 0
 183 252 265 304 353 304 c 0
EndSplineSet
EndChar

StartChar: quotedblleft
Encoding: 398 8220 280
Width: 1190
VWidth: 0
Flags: HW
LayerCount: 2
Fore
SplineSet
655 1279 m 0
 655 1490 778 1624 929 1700 c 0
 945 1709 962 1713 976 1713 c 0
 1019 1713 1051 1680 1051 1645 c 0
 1051 1627 1042 1608 1020 1593 c 0
 943 1542 842 1476 842 1362 c 1
 950 1362 1030 1314 1030 1212 c 0
 1030 1109 948 1057 860 1057 c 0
 750 1057 655 1131 655 1279 c 0
350 1057 m 0
 240 1057 145 1131 145 1279 c 0
 145 1490 268 1624 419 1700 c 0
 435 1709 452 1713 466 1713 c 0
 509 1713 541 1680 541 1645 c 0
 541 1627 532 1608 510 1593 c 0
 433 1542 332 1476 332 1362 c 1
 440 1362 520 1314 520 1212 c 0
 520 1109 438 1057 350 1057 c 0
EndSplineSet
EndChar

StartChar: quotedblright
Encoding: 399 8221 281
Width: 1151
VWidth: 0
Flags: HW
LayerCount: 2
Fore
SplineSet
1020 1492 m 0
 1020 1281 897 1147 746 1071 c 0
 730 1062 713 1058 699 1058 c 0
 656 1058 624 1091 624 1126 c 0
 624 1144 633 1163 655 1178 c 0
 732 1229 833 1295 833 1409 c 1
 725 1409 645 1457 645 1559 c 0
 645 1662 727 1714 815 1714 c 0
 925 1714 1020 1640 1020 1492 c 0
353 1714 m 0
 463 1714 558 1640 558 1492 c 0
 558 1281 435 1147 284 1071 c 0
 268 1062 251 1058 237 1058 c 0
 194 1058 162 1091 162 1126 c 0
 162 1144 171 1163 193 1178 c 0
 270 1229 371 1295 371 1409 c 1
 263 1409 183 1457 183 1559 c 0
 183 1662 265 1714 353 1714 c 0
EndSplineSet
EndChar

StartChar: quoteleft
Encoding: 395 8216 282
Width: 714
VWidth: 0
Flags: HW
LayerCount: 2
Fore
SplineSet
350 1057 m 0
 240 1057 145 1131 145 1279 c 0
 145 1490 268 1624 419 1700 c 0
 435 1709 452 1713 466 1713 c 0
 509 1713 541 1680 541 1645 c 0
 541 1627 532 1608 510 1593 c 0
 433 1542 332 1476 332 1362 c 1
 440 1362 520 1314 520 1212 c 0
 520 1109 438 1057 350 1057 c 0
EndSplineSet
EndChar

StartChar: quoteright
Encoding: 396 8217 283
Width: 714
VWidth: 0
Flags: HW
LayerCount: 2
Fore
SplineSet
353 1714 m 0
 463 1714 558 1640 558 1492 c 0
 558 1281 435 1147 284 1071 c 0
 268 1062 251 1058 237 1058 c 0
 194 1058 162 1091 162 1126 c 0
 162 1144 171 1163 193 1178 c 0
 270 1229 371 1295 371 1409 c 1
 263 1409 183 1457 183 1559 c 0
 183 1662 265 1714 353 1714 c 0
EndSplineSet
EndChar

StartChar: quotesinglbase
Encoding: 397 8218 284
Width: 501
VWidth: 0
Flags: HW
LayerCount: 2
Fore
SplineSet
81 -288 m 0
 40 -288 20 -260 20 -225 c 0
 20 -97 304 -174 304 14 c 1
 274 4 246 -0 220 -0 c 0
 117 -0 58 73 58 137 c 0
 58 251 136 320 279 320 c 0
 404 320 467 218 467 96 c 0
 467 -121 320 -288 81 -288 c 0
EndSplineSet
EndChar

StartChar: quotesingle
Encoding: 7 39 285
Width: 633
VWidth: 0
Flags: HW
LayerCount: 2
Fore
SplineSet
363 1377 m 2
 359 1338 324 1319 299 1319 c 0
 273 1319 237 1338 233 1377 c 2
 179 1924 l 2
 178 1929 178 1935 178 1941 c 0
 178 2020 236 2058 294 2058 c 0
 355 2058 416 2017 416 1938 c 0
 416 1932 416 1927 415 1922 c 2
 363 1377 l 2
EndSplineSet
EndChar

StartChar: r
Encoding: 82 114 286
Width: 1142
VWidth: 0
Flags: HW
PickledData: "(dp1
S'com.typemytype.robofont.layerData'
p2
(dp3
s."
AnchorPoint: "top" 677 1133 basechar 0
LayerCount: 2
Fore
SplineSet
895 1006 m 1
 734 1006 603 925 538 827 c 1
 538 176 l 1
 806 176 l 2
 857 176 878 134 878 84 c 0
 878 40 851 0 804 0 c 2
 143 0 l 2
 87 0 61 35 61 86 c 0
 61 135 85 176 137 176 c 2
 333 176 l 1
 333 979 l 1
 190 944 l 2
 187 943 183 942 176 942 c 0
 136 942 94 981 94 1022 c 0
 94 1067 113 1094 151 1106 c 1
 430 1186 l 1
 436 1186 434 1188 440 1188 c 2
 446 1188 l 2
 474 1188 497 1170 497 1141 c 1
 518 952 l 1
 610 1093 753 1188 987 1188 c 0
 1031 1188 1071 1161 1071 1114 c 2
 1071 901 l 2
 1071 845 1036 819 985 819 c 0
 936 819 895 843 895 895 c 2
 895 1006 l 1
EndSplineSet
EndChar

StartChar: registered
Encoding: 108 174 290
Width: 2133
VWidth: 0
Flags: HW
LayerCount: 2
Fore
SplineSet
918 986 m 2
 1122 986 1304 988 1304 1132 c 0
 1304 1307 1113 1307 933 1307 c 2
 855 1307 l 1
 855 986 l 1
 918 986 l 2
1464 1135 m 0
 1464 970 1336 912 1160 886 c 1
 1408 478 l 1
 1496 478 l 2
 1550 478 1569 462 1569 416 c 0
 1569 366 1540 359 1498 359 c 2
 1497 359 l 1
 1186 360 l 2
 1155 360 1137 387 1137 416 c 0
 1137 450 1151 478 1185 478 c 2
 1248 478 l 1
 1027 867 l 1
 855 867 l 1
 855 478 l 1
 972 478 l 2
 1006 478 1020 450 1020 416 c 0
 1020 387 1001 360 970 360 c 2
 610 360 l 2
 579 360 560 387 560 416 c 0
 560 450 574 478 608 478 c 2
 698 478 l 1
 698 1307 l 1
 636 1307 l 2
 602 1307 588 1336 588 1369 c 0
 588 1398 606 1425 637 1425 c 2
 954 1425 l 2
 1218 1425 1464 1379 1464 1135 c 0
337 860 m 0
 337 442 643 106 1066 106 c 0
 1489 106 1795 442 1795 860 c 0
 1795 1278 1489 1614 1066 1614 c 0
 643 1614 337 1278 337 860 c 0
167 860 m 0
 167 1358 558 1757 1066 1757 c 0
 1574 1757 1965 1358 1965 860 c 0
 1965 362 1574 -37 1066 -37 c 0
 558 -37 167 362 167 860 c 0
EndSplineSet
EndChar

StartChar: ring
Encoding: 363 730 291
Width: 352
VWidth: 0
Flags: HW
AnchorPoint: "top" 159 1220 mark 0
LayerCount: 2
Fore
SplineSet
158 1975.79980469 m 0
 323 1975.79980469 405 1851.79980469 405 1727.79980469 c 0
 405 1603.79980469 319 1477.79980469 153 1477.79980469 c 0
 -13 1477.79980469 -97 1599.79980469 -97 1722.79980469 c 0
 -97 1848.79980469 -9 1975.79980469 158 1975.79980469 c 0
161 1572.79980469 m 0
 255 1572.79980469 299 1642.79980469 299 1724.79980469 c 0
 299 1806.79980469 252 1878.79980469 157 1878.79980469 c 0
 61 1878.79980469 15 1806.79980469 15 1724.79980469 c 0
 15 1643.79980469 69 1572.79980469 161 1572.79980469 c 0
EndSplineSet
EndChar

StartChar: s
Encoding: 83 115 292
Width: 1233
VWidth: 0
Flags: HW
PickledData: "(dp1
S'com.typemytype.robofont.layerData'
p2
(dp3
s."
AnchorPoint: "top" 617 1133 basechar 0
LayerCount: 2
Fore
SplineSet
165 861 m 0
 165 1120 387 1188 598 1188 c 0
 735 1188 888 1126 937 1037 c 1
 938 1122 l 2
 938 1163 972 1190 1013 1190 c 0
 1072 1190 1101 1163 1101 1112 c 2
 1097 823 l 1
 1092 778 1061 754 1015 754 c 0
 971 754 963 782 950 831 c 1
 905 972 739 1048 596 1048 c 0
 473 1048 366 1001 366 903 c 0
 366 818 417 778 540 747 c 1
 796 663 l 2
 976 603 1148 537 1148 311 c 0
 1148 88 991 -27 716 -27 c 0
 572 -27 372 21 296 105 c 1
 296 16 260 0 215 0 c 0
 164 0 126 20 126 74 c 2
 126 412 l 1
 128 453 163 475 202 475 c 0
 261 475 278 447 290 395 c 0
 331 213 490 123 705 123 c 0
 835 123 941 168 941 281 c 0
 941 394 896 432 759 474 c 2
 487 559 l 2
 317 613 165 687 165 861 c 0
EndSplineSet
EndChar

StartChar: section
Encoding: 101 167 298
Width: 877
VWidth: 0
Flags: HW
LayerCount: 2
Fore
SplineSet
100 1593 m 0
 100 1794 253 1937 460 1937 c 0
 638 1937 847 1833 847 1661 c 0
 847 1616 816 1587 774 1587 c 0
 733 1587 702 1612 690 1645 c 0
 655 1738 580 1802 468 1802 c 0
 359 1802 268 1729 268 1622 c 0
 268 1569 282 1518 309 1470 c 0
 403 1306 561 1184 677 1039 c 0
 748 950 821 842 821 694 c 0
 821 553 762 419 655 366 c 1
 715 282 784 167 784 35 c 0
 784 -168 632 -309 423 -309 c 0
 245 -309 36 -205 36 -33 c 0
 36 12 68 41 110 41 c 0
 151 41 182 17 194 -16 c 0
 229 -109 303 -174 415 -174 c 0
 524 -174 616 -101 616 6 c 0
 616 59 602 110 575 158 c 0
 481 322 322 444 206 589 c 0
 135 678 63 786 63 934 c 0
 63 1075 121 1209 229 1262 c 1
 169 1347 100 1459 100 1593 c 0
294 1177 m 1
 249 1140 225 1067 225 1006 c 0
 225 960 239 911 266 862 c 0
 350 710 479 587 590 451 c 1
 635 488 659 561 659 623 c 0
 659 669 645 717 618 766 c 0
 534 918 405 1040 294 1177 c 1
EndSplineSet
EndChar

StartChar: semicolon
Encoding: 27 59 299
Width: 705
VWidth: 0
Flags: HW
LayerCount: 2
Fore
SplineSet
336 367 m 0
 446 367 541 292 541 145 c 0
 541 -67 418 -200 267 -276 c 0
 251 -285 235 -289 220 -289 c 0
 177 -289 145 -256 145 -222 c 0
 145 -203 155 -184 176 -169 c 0
 253 -118 354 -52 354 62 c 1
 246 62 166 109 166 212 c 0
 166 315 249 367 336 367 c 0
355 760 m 0
 230 760 140 851 140 975 c 0
 140 1099 232 1190 355 1190 c 0
 478 1190 570 1097 570 975 c 0
 570 851 478 760 355 760 c 0
EndSplineSet
EndChar

StartChar: seven
Encoding: 23 55 300
Width: 1365
VWidth: 0
Flags: HW
LayerCount: 2
Fore
SplineSet
508 123 m 0
 508 749 801 1095 1022 1518 c 1
 324 1518 l 1
 289 1343 l 1
 272 1301 237 1268 187 1268 c 0
 138 1268 92 1292 92 1341 c 0
 92 1355 94 1368 98 1380 c 1
 150 1635 l 1
 164 1683 184 1713 232 1713 c 2
 1180 1712 l 2
 1220 1712 1266 1683 1266 1637 c 0
 1266 1629 1265 1621 1262 1612 c 0
 1103 1101 750 801 750 121 c 0
 750 32 710 -25 631 -25 c 0
 549 -25 508 35 508 123 c 0
EndSplineSet
EndChar

StartChar: six
Encoding: 22 54 301
Width: 1353
VWidth: 0
Flags: HW
LayerCount: 2
Fore
SplineSet
1280 522 m 0
 1280 188 1056 -25 725 -25 c 0
 334 -25 153 234 153 623 c 0
 153 1180 436 1536 741 1817 c 1
 761 1837 793 1860 833 1860 c 0
 898 1860 936 1835 936 1769 c 0
 936 1738 924 1712 899 1692 c 0
 673 1502 487 1247 387 924 c 1
 472 1013 594 1085 754 1085 c 0
 1083 1085 1280 853 1280 522 c 0
725 127 m 0
 950 127 1075 291 1075 518 c 0
 1075 747 954 909 729 909 c 0
 504 909 375 745 375 518 c 0
 375 288 500 127 725 127 c 0
EndSplineSet
EndChar

StartChar: slash
Encoding: 15 47 302
Width: 1288
VWidth: 0
Flags: HW
LayerCount: 2
Fore
SplineSet
170 -314 m 0
 123 -314 65 -276 65 -228 c 0
 65 -217 68 -207 73 -197 c 2
 1059 1851 l 1
 1070 1877 1091 1890 1121 1890 c 0
 1167 1890 1223 1854 1223 1804 c 0
 1223 1794 1222 1786 1217 1776 c 2
 237 -266 l 2
 222 -295 205 -314 170 -314 c 0
EndSplineSet
EndChar

StartChar: st
Encoding: 65541 -1 304
Width: 2031
VWidth: 0
Flags: HW
LayerCount: 2
Fore
SplineSet
1692 134 m 0
 1821 134 1825 242 1901 242 c 0
 1943 242 1973 208 1973 166 c 0
 1973 47 1793 -27 1658 -27 c 0
 1501 -27 1365 100 1365 248 c 2
 1365 956 l 1
 1215 956 l 2
 1159 956 1133 991 1133 1042 c 0
 1133 1091 1157 1133 1209 1133 c 2
 1365 1133 l 1
 1365 1255 1368 1528 1483 1528 c 0
 1516 1528 1539 1520 1563 1503 c 1
 1563 1483 l 2
 1563 1465 1565 1442 1565 1424 c 2
 1565 1133 l 1
 1827 1133 l 2
 1878 1133 1899 1090 1899 1040 c 0
 1899 996 1872 956 1825 956 c 2
 1565 956 l 1
 1565 279 l 2
 1565 174 1618 134 1692 134 c 0
167 848 m 0
 167 1107 379 1188 590 1188 c 0
 727 1188 880 1126 929 1037 c 1
 930 1122 l 2
 930 1163 964 1190 1005 1190 c 0
 1064 1190 1093 1163 1093 1112 c 2
 1089 823 l 1
 1084 778 1053 754 1007 754 c 0
 963 754 955 782 942 831 c 1
 897 972 731 1048 588 1048 c 0
 465 1048 358 1001 358 903 c 0
 358 818 409 778 532 747 c 1
 788 663 l 2
 968 603 1131 542 1131 316 c 0
 1131 93 983 -27 708 -27 c 0
 564 -27 364 21 288 105 c 1
 288 16 252 0 207 0 c 0
 156 0 118 20 118 74 c 2
 118 412 l 1
 120 453 155 475 194 475 c 0
 253 475 270 447 282 395 c 0
 323 213 482 123 697 123 c 0
 827 123 936 169 936 282 c 0
 936 395 888 432 751 474 c 2
 479 559 l 2
 309 613 167 674 167 848 c 0
EndSplineSet
EndChar

StartChar: sterling
Encoding: 97 163 305
Width: 1336
VWidth: 0
Flags: HW
LayerCount: 2
Fore
SplineSet
47 227 m 0
 47 399 185 502 356 502 c 0
 447 502 512 474 571 438 c 1
 574 456 575 474 575 494 c 0
 575 631 520 733 467 840 c 1
 450 870 l 1
 178 870 l 2
 131 870 104 902 104 946 c 0
 104 990 129 1018 176 1018 c 2
 383 1018 l 1
 340 1119 297 1236 297 1378 c 0
 297 1610 500 1778 731 1778 c 0
 904 1778 1032 1714 1114 1616 c 0
 1136 1590 1147 1580 1147 1542 c 0
 1147 1475 1088 1430 1024 1430 c 0
 950 1430 890 1532 849 1559 c 0
 814 1582 775 1593 733 1593 c 0
 597 1593 524 1490 524 1352 c 0
 524 1231 573 1116 618 1018 c 1
 962 1018 l 2
 1009 1018 1034 990 1034 946 c 0
 1034 902 1007 870 960 870 c 2
 684 870 l 1
 718 775 755 668 755 549 c 0
 755 470 741 393 714 319 c 1
 787 244 870 145 999 145 c 0
 1106 145 1147 252 1237 252 c 0
 1277 252 1314 209 1314 168 c 0
 1314 34 1129 -27 993 -27 c 0
 827 -27 718 74 628 154 c 1
 560 62 456 -29 311 -29 c 0
 157 -29 47 77 47 227 c 0
512 256 m 1
 465 297 410 348 338 348 c 0
 253 348 192 311 192 231 c 0
 192 163 255 133 319 133 c 0
 412 133 473 194 512 256 c 1
EndSplineSet
EndChar

StartChar: t
Encoding: 84 116 306
Width: 892
VWidth: 0
Flags: HW
PickledData: "(dp1
S'com.typemytype.robofont.layerData'
p2
(dp3
s."
LayerCount: 2
Fore
SplineSet
574 134 m 0
 703 134 707 242 783 242 c 0
 825 242 855 208 855 166 c 0
 855 47 675 -27 540 -27 c 0
 383 -27 247 100 247 248 c 2
 247 956 l 1
 97 956 l 2
 41 956 15 991 15 1042 c 0
 15 1091 39 1133 91 1133 c 2
 247 1133 l 1
 247 1255 250 1528 365 1528 c 0
 398 1528 421 1520 445 1503 c 1
 445 1483 l 2
 445 1465 447 1442 447 1424 c 2
 447 1133 l 1
 709 1133 l 2
 760 1133 781 1090 781 1040 c 0
 781 996 754 956 707 956 c 2
 447 956 l 1
 447 279 l 2
 447 174 500 134 574 134 c 0
EndSplineSet
EndChar

StartChar: thorn
Encoding: 188 254 309
Width: 1474
VWidth: 0
Flags: HW
LayerCount: 2
Fore
SplineSet
1186 582 m 0
 1186 819 1068 1018 836 1018 c 0
 659 1018 533 945 453 840 c 1
 453 283 l 1
 538 198 662 145 830 145 c 0
 1064 145 1186 346 1186 582 c 0
1407 582 m 0
 1407 225 1182 -25 830 -25 c 0
 665 -25 548 29 453 109 c 1
 453 -399 l 1
 655 -399 l 2
 706 -399 727 -442 727 -492 c 0
 727 -536 700 -575 653 -575 c 2
 129 -575 l 2
 73 -575 47 -540 47 -489 c 0
 47 -440 71 -399 123 -399 c 2
 248 -399 l 1
 248 1530 l 1
 105 1495 l 2
 102 1494 97 1493 90 1493 c 0
 50 1493 8 1532 8 1573 c 0
 8 1618 28 1645 66 1657 c 1
 362 1734 l 2
 373 1736 383 1738 392 1738 c 0
 452 1738 452 1679 453 1590 c 1
 453 990 l 1
 526 1107 672 1188 850 1188 c 0
 1201 1188 1407 935 1407 582 c 0
EndSplineSet
EndChar

StartChar: three
Encoding: 19 51 310
Width: 1335
VWidth: 0
Flags: HW
LayerCount: 2
Fore
SplineSet
976 569 m 0
 976 738 874 855 704 855 c 0
 659 855 623 843 578 843 c 0
 528 843 493 876 493 931 c 0
 493 948 504 964 525 981 c 0
 640 1075 911 1149 911 1348 c 0
 911 1455 821 1533 710 1533 c 0
 571 1533 473 1463 386 1407 c 0
 371 1397 353 1391 334 1391 c 0
 294 1391 262 1419 262 1459 c 0
 262 1600 562 1707 713 1707 c 0
 932 1707 1106 1587 1106 1374 c 0
 1106 1147 943 1078 796 993 c 1
 776 981 l 1
 1036 964 1204 830 1204 561 c 0
 1204 237 950 9 617 9 c 0
 465 9 174 56 174 197 c 0
 174 242 208 270 254 270 c 0
 273 270 293 267 312 257 c 0
 391 218 495 186 613 186 c 0
 832 186 976 353 976 569 c 0
EndSplineSet
EndChar

StartChar: threequarters
Encoding: 124 190 311
Width: 2316
VWidth: 0
Flags: HW
LayerCount: 2
Fore
SplineSet
1864 987 m 1
 1458 491 l 1
 1864 491 l 1
 1864 987 l 1
2201 62 m 0
 2201 32 2182 2 2150 2 c 2
 1668 2 l 2
 1636 2 1617 32 1617 62 c 0
 1617 97 1632 124 1667 124 c 2
 1864 124 l 1
 1864 382 l 1
 1341 382 l 2
 1312 382 1296 408 1296 434 c 0
 1296 454 1302 472 1311 481 c 1
 1508 726 1706 966 1905 1207 c 0
 1912 1216 1923 1223 1935 1223 c 0
 1965 1223 1997 1193 1997 1163 c 2
 1997 491 l 1
 2198 491 l 2
 2230 491 2242 466 2242 434 c 0
 2242 408 2225 382 2196 382 c 2
 1997 382 l 1
 1997 124 l 1
 2152 124 l 2
 2187 124 2201 97 2201 62 c 0
647 -93 m 0
 612 -93 571 -58 571 -15 c 0
 571 -6 573 1 579 9 c 2
 1655 1757 l 2
 1665 1774 1682 1783 1707 1783 c 0
 1741 1783 1781 1750 1781 1705 c 0
 1781 1697 1778 1692 1774 1684 c 2
 705 -61 l 1
 692 -80 677 -93 647 -93 c 0
653 919 m 0
 653 1041 580 1125 458 1125 c 0
 426 1125 399 1116 367 1116 c 0
 331 1116 306 1139 306 1179 c 0
 306 1191 314 1203 329 1215 c 0
 412 1283 607 1337 607 1480 c 0
 607 1557 542 1613 462 1613 c 0
 362 1613 292 1562 229 1522 c 0
 218 1515 205 1511 191 1511 c 0
 162 1511 139 1531 139 1560 c 0
 139 1662 355 1738 464 1738 c 0
 622 1738 747 1651 747 1498 c 0
 747 1335 630 1285 524 1224 c 1
 509 1215 l 1
 696 1203 818 1107 818 913 c 0
 818 680 635 516 395 516 c 0
 286 516 76 549 76 651 c 0
 76 683 101 704 134 704 c 0
 148 704 161 701 175 694 c 0
 232 666 307 643 392 643 c 0
 550 643 653 763 653 919 c 0
EndSplineSet
EndChar

StartChar: tilde
Encoding: 365 732 312
Width: 1143
VWidth: 0
Flags: HW
AnchorPoint: "top" 524 1220 mark 0
LayerCount: 2
Fore
SplineSet
141 1539.79980469 m 4
 141 1694.79980469 225 1804.79980469 331 1804.79980469 c 4
 486 1804.79980469 602 1662.79980469 658 1662.79980469 c 4
 747 1662.79980469 750 1804.79980469 799 1804.79980469 c 4
 838 1804.79980469 872 1786.79980469 872 1750.79980469 c 4
 872 1595.79980469 772 1486.79980469 646 1486.79980469 c 4
 530 1486.79980469 417 1627.79980469 340 1627.79980469 c 4
 255 1627.79980469 255 1486.79980469 214 1486.79980469 c 4
 175 1486.79980469 141 1503.79980469 141 1539.79980469 c 4
EndSplineSet
EndChar

StartChar: trademark
Encoding: 410 8482 313
Width: 2803
VWidth: 0
Flags: HW
LayerCount: 2
Fore
SplineSet
2146 808 m 0
 2146 841 2158 870 2189 870 c 2
 2300 870 l 1
 2300 1428 l 1
 2009 860 l 1
 2002 836 1981 816 1952 816 c 0
 1928 816 1906 833 1898 853 c 1
 1553 1438 l 1
 1553 870 l 1
 1676 870 l 2
 1707 870 1720 841 1720 808 c 0
 1720 777 1704 750 1675 750 c 2
 1246 750 l 2
 1218 750 1202 777 1202 808 c 0
 1202 841 1214 870 1245 870 c 2
 1405 870 l 1
 1405 1592 l 1
 1276 1592 l 2
 1245 1592 1232 1620 1232 1655 c 0
 1232 1685 1248 1712 1277 1712 c 2
 1519 1712 l 2
 1541 1712 1551 1695 1559 1677 c 1
 1952 1054 l 1
 2294 1682 l 2
 2302 1698 2314 1712 2335 1712 c 2
 2572 1712 l 2
 2601 1712 2617 1685 2617 1655 c 0
 2617 1620 2604 1592 2573 1592 c 2
 2448 1592 l 1
 2448 870 l 1
 2606 870 l 2
 2637 870 2649 841 2649 808 c 0
 2649 777 2634 750 2605 750 c 2
 2190 750 l 2
 2162 750 2146 777 2146 808 c 0
255 1328 m 0
 227 1328 193 1350 193 1382 c 1
 202 1659 l 2
 203 1695 212 1712 239 1712 c 2
 1096 1712 l 2
 1123 1712 1133 1693 1134 1659 c 2
 1143 1382 l 1
 1143 1350 1108 1328 1082 1328 c 0
 1053 1328 1035 1340 1032 1373 c 2
 1013 1570 l 1
 749 1570 l 1
 749 870 l 1
 910 870 l 2
 941 870 953 841 953 808 c 0
 953 777 938 750 909 750 c 2
 415 750 l 2
 386 750 370 777 370 808 c 0
 370 841 383 870 414 870 c 2
 574 870 l 1
 574 1570 l 1
 322 1570 l 1
 304 1373 l 2
 301 1339 283 1328 255 1328 c 0
EndSplineSet
EndChar

StartChar: two
Encoding: 18 50 314
Width: 1297
VWidth: 0
Flags: HW
LayerCount: 2
Fore
SplineSet
1131 1288 m 0
 1131 845 494 655 342 225 c 1
 981 225 l 1
 1068 422 l 1
 1083 463 1116 496 1165 496 c 0
 1206 496 1237 469 1237 424 c 0
 1237 411 1234 400 1232 388 c 2
 1169 109 l 1
 1157 63 1136 35 1090 35 c 2
 155 35 l 1
 146 174 l 1
 146 246 164 319 200 393 c 0
 328 660 898 1046 898 1294 c 0
 898 1449 746 1514 599 1514 c 0
 459 1514 385 1468 310 1412 c 0
 293 1400 274 1393 253 1393 c 0
 202 1393 161 1426 161 1479 c 0
 161 1500 173 1525 199 1551 c 0
 285 1639 453 1701 630 1704 c 1
 644 1704 l 2
 937 1704 1131 1542 1131 1288 c 0
EndSplineSet
EndChar

StartChar: u
Encoding: 85 117 315
Width: 1484
VWidth: 0
Flags: HW
PickledData: "(dp1
S'com.typemytype.robofont.layerData'
p2
(dp3
s."
AnchorPoint: "top" 797 1133 basechar 0
LayerCount: 2
Fore
SplineSet
664 145 m 0
 836 145 987 236 1043 354 c 1
 1043 979 l 1
 900 944 l 2
 897 943 892 942 885 942 c 0
 845 942 803 981 803 1022 c 0
 803 1065 823 1096 861 1106 c 2
 1180 1186 l 2
 1184 1187 1190 1188 1197 1188 c 0
 1228 1188 1248 1171 1248 1139 c 2
 1248 190 l 1
 1399 190 l 2
 1444 190 1469 154 1469 109 c 0
 1469 66 1450 35 1412 25 c 1
 1139 -4 l 1
 1100 -4 1078 18 1068 84 c 2
 1053 182 l 1
 975 67 801 -25 627 -25 c 0
 389 -25 250 141 250 383 c 2
 250 979 l 1
 107 944 l 2
 104 943 100 942 93 942 c 0
 53 942 11 981 11 1022 c 0
 11 1065 30 1096 68 1106 c 2
 388 1186 l 2
 392 1187 397 1188 404 1188 c 0
 435 1188 455 1171 455 1139 c 2
 455 401 l 2
 455 254 522 145 664 145 c 0
EndSplineSet
EndChar

StartChar: underscore
Encoding: 63 95 323
Width: 1237
VWidth: 0
Flags: HW
LayerCount: 2
Fore
SplineSet
1072 213 m 2
 1130 213 1178 165 1178 107 c 0
 1178 48 1130 1 1072 1 c 2
 165 1 l 2
 106 1 59 48 59 107 c 0
 59 165 106 213 165 213 c 2
 1072 213 l 2
EndSplineSet
EndChar

StartChar: uni00AD
Encoding: 107 173 331
Width: 1293
VWidth: 0
Flags: HW
LayerCount: 2
Fore
SplineSet
174 715 m 0
 174 770 220 817 276 817 c 2
 1018 817 l 2
 1074 817 1120 770 1120 715 c 0
 1120 658 1075 612 1018 612 c 2
 276 612 l 2
 219 612 174 658 174 715 c 0
EndSplineSet
EndChar

StartChar: uni00B2
Encoding: 112 178 332
Width: 1353
VWidth: 0
Flags: HW
LayerCount: 2
Fore
SplineSet
1013 1493 m 0
 1013 1106 517 955 471 684 c 1
 920 684 l 1
 982 826 l 1
 993 856 1017 879 1052 879 c 0
 1082 879 1104 859 1104 827 c 0
 1104 818 1101 810 1100 801 c 1
 1055 601 l 1
 1046 568 1031 547 998 547 c 2
 325 547 l 1
 319 647 l 1
 319 699 331 752 357 805 c 0
 455 1009 847 1294 847 1486 c 0
 847 1580 740 1612 645 1612 c 0
 544 1612 491 1579 437 1539 c 0
 425 1530 411 1525 396 1525 c 0
 359 1525 329 1549 329 1587 c 0
 329 1602 338 1620 357 1639 c 0
 419 1702 534 1749 661 1749 c 0
 842 1749 1013 1674 1013 1493 c 0
EndSplineSet
EndChar

StartChar: uni00B3
Encoding: 113 179 333
Width: 1111
VWidth: 0
Flags: HW
LayerCount: 2
Fore
SplineSet
743 926 m 0
 743 1048 670 1132 548 1132 c 0
 516 1132 489 1123 457 1123 c 0
 421 1123 396 1146 396 1186 c 0
 396 1198 404 1210 419 1222 c 0
 502 1290 697 1344 697 1487 c 0
 697 1564 632 1620 552 1620 c 0
 452 1620 382 1569 319 1529 c 0
 308 1522 295 1518 281 1518 c 0
 252 1518 229 1538 229 1567 c 0
 229 1669 445 1745 554 1745 c 0
 712 1745 837 1658 837 1505 c 0
 837 1342 720 1292 614 1231 c 1
 599 1222 l 1
 786 1210 908 1114 908 920 c 0
 908 687 725 523 485 523 c 0
 376 523 166 556 166 658 c 0
 166 690 191 711 224 711 c 0
 238 711 251 708 265 701 c 0
 322 673 397 650 482 650 c 0
 640 650 743 770 743 926 c 0
EndSplineSet
EndChar

StartChar: uni00B9
Encoding: 119 185 334
Width: 1272
VWidth: 0
Flags: HW
LayerCount: 2
Fore
SplineSet
790 1485 m 1
 384 989 l 1
 790 989 l 1
 790 1485 l 1
1127 560 m 0
 1127 530 1108 500 1076 500 c 2
 594 500 l 2
 562 500 543 530 543 560 c 0
 543 595 558 622 593 622 c 2
 790 622 l 1
 790 880 l 1
 267 880 l 2
 238 880 222 906 222 932 c 0
 222 952 228 970 237 979 c 1
 434 1224 632 1464 831 1705 c 0
 838 1714 849 1721 861 1721 c 0
 891 1721 923 1691 923 1661 c 2
 923 989 l 1
 1124 989 l 2
 1156 989 1168 964 1168 932 c 0
 1168 906 1151 880 1122 880 c 2
 923 880 l 1
 923 622 l 1
 1078 622 l 2
 1113 622 1127 595 1127 560 c 0
EndSplineSet
EndChar

StartChar: uni0237
Encoding: 358 567 375
Width: 977
VWidth: 0
Flags: HW
AnchorPoint: "top" 617 1133 basechar 0
LayerCount: 2
Fore
SplineSet
402 -496 m 0
 217 -496 128 -452 128 -263 c 0
 128 -240 124 -221 124 -203 c 0
 124 -124 142 -80 222 -80 c 0
 278 -80 312 -117 312 -180 c 2
 312 -313 l 1
 365 -313 l 2
 636 -313 644 -143 644 115 c 2
 644 983 l 1
 500 944 l 2
 497 943 493 942 486 942 c 0
 446 942 404 981 404 1022 c 0
 404 1065 423 1096 461 1106 c 2
 781 1186 l 2
 785 1187 790 1188 797 1188 c 0
 827 1188 849 1174 849 1143 c 2
 849 115 l 2
 849 -191 761 -496 402 -496 c 0
EndSplineSet
EndChar

StartChar: uni0307
Encoding: 367 775 376
Width: 322
VWidth: 0
Flags: HW
LayerCount: 2
Fore
SplineSet
300 206 m 0
 300 129 240 50 151 50 c 0
 54 50 1 129 1 206 c 0
 1 279 49 351 153 351 c 0
 245 351 300 280 300 206 c 0
EndSplineSet
EndChar

StartChar: uni030F
Encoding: 368 783 377
Width: 862
VWidth: 0
Flags: HW
AnchorPoint: "top" 710 1220 mark 0
LayerCount: 2
Fore
SplineSet
468 1870 m 0
 426 1870 384 1827 384 1786 c 0
 384 1768 392 1753 410 1741 c 0
 568 1642 745 1527 908 1434 c 0
 915 1430 922 1427 927 1427 c 0
 953 1427 976 1454 976 1479 c 0
 976 1493 970 1502 959 1509 c 0
 809 1609 645 1738 509 1855 c 0
 498 1865 484 1870 468 1870 c 0
93 1870 m 0
 51 1870 9 1827 9 1786 c 0
 9 1768 18 1753 36 1741 c 0
 194 1642 370 1527 533 1434 c 0
 540 1430 547 1427 552 1427 c 0
 578 1427 601 1454 601 1479 c 0
 601 1493 595 1502 584 1509 c 0
 434 1609 270 1738 134 1855 c 0
 123 1865 109 1870 93 1870 c 0
EndSplineSet
EndChar

StartChar: uni0311
Encoding: 369 785 378
Width: 654
VWidth: 0
Flags: HW
AnchorPoint: "top" 302 1220 mark 0
LayerCount: 2
Fore
SplineSet
53 1382 m 4
 27 1382 0 1399 0 1423 c 4
 0 1635 148 1745 296 1745 c 4
 444 1745 592 1634 592 1423 c 4
 592 1399 565 1382 539 1382 c 4
 521 1382 503 1390 496 1410 c 4
 450 1531 377 1583 296 1583 c 4
 215 1583 142 1531 96 1410 c 4
 89 1390 71 1382 53 1382 c 4
EndSplineSet
EndChar

StartChar: uni0326
Encoding: 370 806 379
Width: 501
VWidth: 0
Flags: HW
LayerCount: 2
Fore
SplineSet
81 -676.8 m 0
 40 -676.8 20 -648.8 20 -613.8 c 0
 20 -485.8 304 -562.8 304 -374.8 c 1
 274 -384.8 246 -388.8 220 -388.8 c 0
 117 -388.8 58 -315.8 58 -251.8 c 0
 58 -137.8 136 -68.7998 279 -68.7998 c 0
 404 -68.7998 467 -170.8 467 -292.8 c 0
 467 -509.8 320 -676.8 81 -676.8 c 0
EndSplineSet
EndChar

StartChar: uni2206
Encoding: 65549 8710 380
Width: 1301
VWidth: 0
Flags: HW
LayerCount: 2
Fore
SplineSet
1054 485 m 2
 280 487 l 2
 230 487 184 526 184 577 c 0
 184 588 187 602 194 618 c 2
 546 1411 l 2
 568.317 1461.28 604 1511 661 1511 c 0
 714 1511 749.024 1461.9 767 1419 c 2
 1116 586 l 2
 1121 575 1124 563 1124 551 c 0
 1124 514 1090 485 1054 485 c 2
979.457 592.994 m 1
 683 1336 l 1
 360 594 l 1
 979.457 592.994 l 1
EndSplineSet
EndChar

StartChar: uniFB01
Encoding: 418 64257 381
Width: 1822
VWidth: 0
Flags: HW
LayerCount: 2
Fore
SplineSet
1130 86 m 0
 1130 135 1154 176 1206 176 c 2
 1343 176 l 1
 1343 946 l 1
 563 946 l 1
 565 176 l 1
 817 176 l 2
 868 176 889 134 889 84 c 0
 889 40 862 0 815 0 c 2
 145 0 l 2
 89 0 63 35 63 86 c 0
 63 135 87 176 139 176 c 2
 360 176 l 1
 360 946 l 1
 182 946 l 2
 126 946 100 981 100 1032 c 0
 100 1081 124 1122 176 1122 c 2
 360 1122 l 1
 360 1227 l 2
 360 1580 569 1739 928 1739 c 0
 972 1739 1012 1712 1012 1665 c 2
 1012 1493 l 2
 1012 1437 977 1411 926 1411 c 0
 877 1411 835 1435 835 1487 c 2
 835 1556 l 1
 663 1541 561 1475 561 1284 c 1
 565 1122 l 1
 1497 1122 l 2
 1528 1122 1548 1105 1548 1075 c 2
 1548 176 l 1
 1702 176 l 2
 1753 176 1773 134 1773 84 c 0
 1773 40 1747 0 1700 0 c 2
 1212 0 l 2
 1156 0 1130 35 1130 86 c 0
1438 1427 m 0
 1354 1427 1286 1495 1286 1579 c 0
 1286 1663 1354 1731 1438 1731 c 0
 1522 1731 1589 1663 1589 1579 c 0
 1589 1495 1522 1427 1438 1427 c 0
EndSplineSet
Ligature2: "'liga' Standard Ligatures lookup 0-1" f i
EndChar

StartChar: uniFB02
Encoding: 419 64258 382
Width: 1972
VWidth: 0
Flags: HW
LayerCount: 2
Fore
SplineSet
1554 1739 m 2
 1583 1739 1607 1720 1607 1690 c 2
 1607 176 l 1
 1851 176 l 2
 1902 176 1923 134 1923 84 c 0
 1923 40 1896 0 1849 0 c 2
 1182 0 l 2
 1126 0 1100 35 1100 86 c 0
 1100 135 1123 176 1175 176 c 2
 1403 176 l 1
 1403 1556 l 1
 815 1556 l 2
 607 1556 565 1432 565 1191 c 2
 565 1122 l 1
 835 1122 l 2
 886 1122 907 1080 907 1030 c 0
 907 986 880 946 833 946 c 2
 563 946 l 1
 563 176 l 1
 817 176 l 2
 868 176 889 134 889 84 c 0
 889 40 862 0 815 0 c 2
 145 0 l 2
 89 0 63 35 63 86 c 0
 63 135 87 176 139 176 c 2
 360 176 l 1
 360 946 l 1
 182 946 l 2
 126 946 100 981 100 1032 c 0
 100 1081 124 1122 176 1122 c 2
 360 1122 l 1
 360 1227 l 2
 360 1580 569 1739 928 1739 c 2
 1554 1739 l 2
EndSplineSet
Ligature2: "'liga' Standard Ligatures lookup 0-1" f l
EndChar

StartChar: v
Encoding: 86 118 386
Width: 1433
VWidth: 0
Flags: HW
PickledData: "(dp1
S'com.typemytype.robofont.layerData'
p2
(dp3
s."
LayerCount: 2
Fore
SplineSet
620 1049 m 0
 620 999 600 956 549 956 c 2
 434 956 l 1
 753 272 l 1
 1046 956 l 1
 950 956 l 2
 899 956 878 999 878 1049 c 0
 878 1093 905 1133 952 1133 c 2
 1349 1133 l 2
 1406 1133 1431 1098 1431 1047 c 0
 1431 998 1407 956 1355 956 c 2
 1224 956 l 1
 848 117 l 1
 818 61 791 0 727 0 c 0
 669 0 641 62 610 125 c 2
 196 956 l 1
 78 956 l 2
 27 956 2 997 2 1047 c 0
 2 1098 28 1133 84 1133 c 2
 547 1133 l 2
 594 1133 620 1093 620 1049 c 0
EndSplineSet
EndChar

StartChar: w
Encoding: 87 119 387
Width: 1997
VWidth: 0
Flags: HW
PickledData: "(dp1
S'com.typemytype.robofont.layerData'
p2
(dp3
s."
AnchorPoint: "top" 1007 1133 basechar 0
LayerCount: 2
Fore
SplineSet
1297 1049 m 0
 1297 999 1276 956 1225 956 c 2
 1063 956 l 1
 1368 299 l 1
 1667 956 l 1
 1567 956 l 2
 1516 956 1495 999 1495 1049 c 0
 1495 1093 1522 1133 1569 1133 c 2
 1915 1133 l 2
 1971 1133 1997 1098 1997 1047 c 0
 1997 998 1973 956 1921 956 c 2
 1819 956 l 1
 1446 117 l 2
 1423 66 1397 -2 1348 -2 c 0
 1302 -2 1265 79 1243 125 c 2
 1008 608 l 1
 789 117 l 2
 756 42 720 4 682 4 c 0
 645 4 607 44 567 125 c 2
 160 956 l 1
 76 956 l 2
 24 956 0 997 0 1047 c 0
 0 1098 26 1133 82 1133 c 2
 463 1133 l 2
 510 1133 537 1093 537 1049 c 0
 537 999 516 956 465 956 c 2
 385 956 l 1
 711 299 l 1
 926 774 l 1
 838 956 l 1
 774 956 l 2
 722 956 699 997 699 1047 c 0
 699 1098 724 1133 780 1133 c 2
 1223 1133 l 2
 1270 1133 1297 1093 1297 1049 c 0
EndSplineSet
EndChar

StartChar: x
Encoding: 88 120 388
Width: 1553
VWidth: 0
Flags: HW
PickledData: "(dp1
S'com.typemytype.robofont.layerData'
p2
(dp3
s."
LayerCount: 2
Fore
SplineSet
872 86 m 0
 872 135 895 176 947 176 c 2
 1064 176 l 1
 767 473 l 1
 450 176 l 1
 528 176 l 2
 579 176 599 134 599 84 c 0
 599 40 573 0 526 0 c 2
 120 0 l 2
 64 0 38 35 38 86 c 0
 38 135 62 176 114 176 c 2
 249 176 l 1
 667 575 l 1
 292 956 l 1
 141 956 l 2
 85 956 59 992 59 1043 c 0
 59 1092 82 1133 134 1133 c 2
 569 1133 l 2
 620 1133 640 1091 640 1041 c 0
 640 997 614 956 567 956 c 2
 530 956 l 1
 796 698 l 1
 1064 956 l 1
 1015 956 l 2
 959 956 933 992 933 1043 c 0
 933 1092 957 1133 1009 1133 c 2
 1443 1133 l 2
 1494 1133 1515 1091 1515 1041 c 0
 1515 997 1488 956 1441 956 c 2
 1281 956 l 1
 900 598 l 1
 1339 176 l 1
 1443 176 l 2
 1494 176 1515 134 1515 84 c 0
 1515 40 1488 0 1441 0 c 2
 954 0 l 2
 898 0 872 35 872 86 c 0
EndSplineSet
EndChar

StartChar: y
Encoding: 89 121 389
Width: 1392
VWidth: 0
Flags: HW
PickledData: "(dp1
S'com.typemytype.robofont.layerData'
p2
(dp3
s."
AnchorPoint: "top" 744 1133 basechar 0
LayerCount: 2
Fore
SplineSet
606 1049 m 0
 606 999 585 956 534 956 c 2
 414 956 l 1
 762 209 l 1
 1038 956 l 1
 922 956 l 2
 871 956 850 999 850 1049 c 0
 850 1093 877 1133 924 1133 c 2
 1327 1133 l 2
 1384 1133 1409 1098 1409 1047 c 0
 1409 998 1385 956 1333 956 c 2
 1216 956 l 1
 801 -121 l 1
 729 -291 628 -590 375 -590 c 0
 294 -590 248 -538 248 -484 c 0
 248 -434 277 -370 363 -368 c 1
 475 -368 558 -273 602 -166 c 1
 666 -6 l 1
 659 -6 622 72 616 84 c 2
 188 956 l 1
 67 956 l 2
 15 956 -8 997 -8 1047 c 0
 -8 1098 18 1133 74 1133 c 2
 532 1133 l 2
 579 1133 606 1093 606 1049 c 0
EndSplineSet
EndChar

StartChar: yen
Encoding: 99 165 392
Width: 1824
VWidth: 0
Flags: HW
LayerCount: 2
Fore
SplineSet
1763 1630 m 0
 1763 1580 1742 1538 1691 1538 c 2
 1552 1538 l 1
 1130 846 l 1
 1406 846 l 2
 1447 846 1480 812 1480 771 c 0
 1480 730 1447 697 1406 697 c 2
 1055 697 l 1
 1055 584 l 1
 1406 584 l 2
 1447 584 1480 551 1480 510 c 0
 1480 469 1447 435 1406 435 c 2
 1055 435 l 1
 1055 176 l 1
 1278 176 l 2
 1329 176 1349 134 1349 84 c 0
 1349 40 1323 0 1276 0 c 2
 559 0 l 2
 512 0 485 40 485 84 c 0
 485 134 506 176 557 176 c 2
 821 176 l 1
 821 435 l 1
 471 435 l 2
 430 435 397 469 397 510 c 0
 397 551 430 584 471 584 c 2
 821 584 l 1
 821 697 l 1
 471 697 l 2
 430 697 397 730 397 771 c 0
 397 812 430 846 471 846 c 2
 757 846 l 1
 346 1538 l 1
 135 1538 l 2
 84 1538 63 1580 63 1630 c 0
 63 1674 90 1714 137 1714 c 2
 731 1714 l 2
 778 1714 805 1674 805 1630 c 0
 805 1580 784 1538 733 1538 c 2
 592 1538 l 1
 977 891 l 1
 1358 1538 l 1
 1196 1538 l 2
 1145 1538 1124 1580 1124 1630 c 0
 1124 1674 1151 1714 1198 1714 c 2
 1689 1714 l 2
 1736 1714 1763 1674 1763 1630 c 0
EndSplineSet
EndChar

StartChar: z
Encoding: 90 122 393
Width: 1301
VWidth: 0
Flags: HW
PickledData: "(dp1
S'com.typemytype.robofont.layerData'
p2
(dp3
s."
AnchorPoint: "top" 709 1133 basechar 0
LayerCount: 2
Fore
SplineSet
1106 1130 m 2
 1165 1130 1184 1112 1184 1086 c 0
 1184 1041 1125 976 1104 954 c 2
 361 176 l 1
 1049 176 l 1
 1079 467 l 1
 1081 508 1116 530 1155 530 c 0
 1210 530 1244 507 1244 461 c 0
 1244 458 1243 455 1243 451 c 2
 1202 68 l 2
 1198 32 1162 0 1127 0 c 2
 164 0 l 2
 108 0 82 35 82 86 c 0
 82 118 91 143 107 160 c 2
 846 954 l 1
 299 954 l 1
 287 762 l 1
 282 717 251 692 205 692 c 0
 151 692 125 717 125 769 c 2
 125 780 l 1
 144 1063 l 2
 146 1098 176 1130 211 1130 c 2
 1106 1130 l 2
EndSplineSet
EndChar

StartChar: zero
Encoding: 16 48 397
Width: 1422
VWidth: 0
Flags: HW
LayerCount: 2
Fore
SplineSet
120 856 m 0
 120 1290 270 1739 711 1739 c 0
 1152 1739 1302 1289 1302 856 c 0
 1302 422 1152 -25 711 -25 c 0
 270 -25 120 422 120 856 c 0
335 856 m 0
 335 554 407 141 711 141 c 0
 1013 141 1087 561 1087 856 c 0
 1087 1153 1009 1569 711 1569 c 0
 414 1569 335 1146 335 856 c 0
EndSplineSet
EndChar

StartChar: uniFB00
Encoding: 417 64256 425
Width: 1815
VWidth: 0
Flags: HW
LayerCount: 2
Fore
SplineSet
927 1411 m 0
 878 1411 836 1435 836 1487 c 2
 836 1556 l 1
 610 1536 564 1439 564 1191 c 1
 566 1122 l 1
 1096 1122 l 1
 1096 1227 l 2
 1096 1580 1305 1739 1664 1739 c 0
 1708 1739 1748 1712 1748 1665 c 2
 1748 1493 l 2
 1748 1437 1713 1411 1662 1411 c 0
 1613 1411 1571 1435 1571 1487 c 2
 1571 1556 l 1
 1345 1536 1299 1439 1299 1191 c 1
 1301 1122 l 1
 1520 1122 l 2
 1571 1122 1592 1080 1592 1030 c 0
 1592 986 1565 946 1518 946 c 2
 1299 946 l 1
 1301 176 l 1
 1553 176 l 2
 1604 176 1625 134 1625 84 c 0
 1625 40 1598 0 1551 0 c 2
 981 0 l 2
 925 0 899 35 899 86 c 0
 899 135 923 176 975 176 c 2
 1096 176 l 1
 1096 946 l 1
 564 946 l 1
 566 176 l 1
 718 176 l 2
 769 176 790 134 790 84 c 0
 790 40 763 0 716 0 c 2
 146 0 l 2
 90 0 64 35 64 86 c 0
 64 135 88 176 140 176 c 2
 361 176 l 1
 361 946 l 1
 183 946 l 2
 127 946 101 981 101 1032 c 0
 101 1081 125 1122 177 1122 c 2
 361 1122 l 1
 361 1227 l 2
 361 1580 570 1739 929 1739 c 0
 973 1739 1013 1712 1013 1665 c 2
 1013 1493 l 2
 1013 1437 978 1411 927 1411 c 0
EndSplineSet
Ligature2: "'liga' Standard Ligatures lookup 0-1" f f
EndChar

StartChar: uniFB03
Encoding: 420 64259 426
Width: 2783
VWidth: 0
Flags: HW
LayerCount: 2
Fore
SplineSet
2399 1427 m 0
 2315 1427 2247 1495 2247 1579 c 0
 2247 1663 2315 1731 2399 1731 c 0
 2483 1731 2550 1663 2550 1579 c 0
 2550 1495 2483 1427 2399 1427 c 0
2091 86 m 0
 2091 135 2115 176 2167 176 c 2
 2304 176 l 1
 2304 946 l 1
 1524 946 l 1
 1526 176 l 1
 1778 176 l 2
 1829 176 1850 134 1850 84 c 0
 1850 40 1823 0 1776 0 c 2
 1106 0 l 2
 1050 0 1024 35 1024 86 c 0
 1024 135 1048 176 1100 176 c 2
 1321 176 l 1
 1321 946 l 1
 564 946 l 1
 564 176 l 1
 817 176 l 2
 868 176 889 134 889 84 c 0
 889 40 862 0 815 0 c 2
 145 0 l 2
 89 0 63 35 63 86 c 0
 63 135 87 176 139 176 c 2
 360 176 l 1
 360 946 l 1
 182 946 l 2
 126 946 100 981 100 1032 c 0
 100 1081 124 1122 176 1122 c 2
 360 1122 l 1
 360 1227 l 2
 360 1580 569 1739 928 1739 c 0
 972 1739 1012 1712 1012 1665 c 2
 1012 1493 l 2
 1012 1437 977 1411 926 1411 c 0
 877 1411 835 1435 835 1487 c 2
 835 1556 l 1
 609 1536 564 1439 564 1191 c 2
 564 1122 l 1
 1321 1122 l 1
 1321 1227 l 2
 1321 1580 1530 1739 1889 1739 c 0
 1933 1739 1973 1712 1973 1665 c 2
 1973 1493 l 2
 1973 1437 1938 1411 1887 1411 c 0
 1838 1411 1796 1435 1796 1487 c 2
 1796 1556 l 1
 1624 1541 1522 1475 1522 1284 c 1
 1526 1122 l 1
 2458 1122 l 2
 2489 1122 2509 1105 2509 1075 c 2
 2509 176 l 1
 2663 176 l 2
 2714 176 2734 134 2734 84 c 0
 2734 40 2708 0 2661 0 c 2
 2173 0 l 2
 2117 0 2091 35 2091 86 c 0
EndSplineSet
Ligature2: "'liga' Standard Ligatures lookup 0-1" f f i
EndChar

StartChar: uniFB04
Encoding: 421 64260 427
Width: 2605
VWidth: 0
Flags: HW
LayerCount: 2
Fore
SplineSet
2238 1739 m 2
 2267 1739 2291 1720 2291 1690 c 2
 2291 176 l 1
 2483 176 l 2
 2534 176 2555 134 2555 84 c 0
 2555 40 2528 0 2481 0 c 2
 1914 0 l 2
 1858 0 1832 35 1832 86 c 0
 1832 135 1855 176 1907 176 c 2
 2087 176 l 1
 2087 1556 l 1
 1643 1556 l 2
 1435 1556 1393 1432 1393 1191 c 2
 1393 1122 l 1
 1663 1122 l 2
 1714 1122 1735 1080 1735 1030 c 0
 1735 986 1708 946 1661 946 c 2
 1391 946 l 1
 1391 176 l 1
 1609 176 l 2
 1660 176 1681 134 1681 84 c 0
 1681 40 1654 0 1607 0 c 2
 1063 0 l 2
 1007 0 981 35 981 86 c 0
 981 135 1005 176 1057 176 c 2
 1188 176 l 1
 1188 946 l 1
 564 946 l 1
 564 176 l 1
 717 176 l 2
 768 176 789 134 789 84 c 0
 789 40 762 0 715 0 c 2
 145 0 l 2
 89 0 63 35 63 86 c 0
 63 135 87 176 139 176 c 2
 360 176 l 1
 360 946 l 1
 182 946 l 2
 126 946 100 981 100 1032 c 0
 100 1081 124 1122 176 1122 c 2
 360 1122 l 1
 360 1227 l 2
 360 1580 591 1739 987 1739 c 0
 1031 1739 1071 1712 1071 1665 c 2
 1071 1493 l 2
 1071 1437 1036 1411 985 1411 c 0
 936 1411 894 1435 894 1487 c 2
 894 1556 l 1
 619 1536 564 1439 564 1191 c 2
 564 1122 l 1
 1188 1122 l 1
 1188 1227 l 2
 1188 1580 1397 1739 1756 1739 c 2
 2238 1739 l 2
EndSplineSet
Ligature2: "'liga' Standard Ligatures lookup 0-1" f f l
EndChar

StartChar: uni00B5
Encoding: 115 181 428
Width: 1555
VWidth: 0
Flags: HW
LayerCount: 2
Fore
SplineSet
395 -502 m 0
 343 -502 289 -454 289 -375 c 2
 289 979 l 1
 146 944 l 2
 143 943 139 942 132 942 c 0
 92 942 50 981 50 1022 c 0
 50 1065 69 1096 107 1106 c 2
 427 1186 l 2
 431 1187 436 1188 443 1188 c 0
 474 1188 494 1171 494 1139 c 2
 494 401 l 2
 494 254 561 145 703 145 c 0
 875 145 1026 236 1082 354 c 1
 1082 979 l 1
 939 944 l 2
 936 943 931 942 924 942 c 0
 884 942 842 981 842 1022 c 0
 842 1065 862 1096 900 1106 c 2
 1219 1186 l 2
 1223 1187 1229 1188 1236 1188 c 0
 1267 1188 1287 1171 1287 1139 c 2
 1287 190 l 1
 1438 190 l 2
 1483 190 1508 154 1508 109 c 0
 1508 66 1489 35 1451 25 c 1
 1178 -4 l 1
 1139 -4 1117 18 1107 84 c 2
 1092 182 l 1
 1014 67 840 -25 666 -25 c 0
 584 -25 494 25 447 100 c 1
 463 -44 486 -227 486 -371 c 0
 486 -463 442 -502 395 -502 c 0
EndSplineSet
EndChar
